<?xml version="1.0" encoding="UTF-8"?>
<svg version="1.1" xmlns="http://www.w3.org/2000/svg" width="256" height="69">
<path d="M0 0 C84.48 0 168.96 0 256 0 C256 22.77 256 45.54 256 69 C171.52 69 87.04 69 0 69 C0 46.23 0 23.46 0 0 Z " fill="#252934" transform="translate(0,0)"/>
<path d="M0 0 C7.32811337 4.28474388 12.05080673 9.9727327 14.76171875 18.10546875 C16.20334564 26.19623189 16.1764831 34.99639293 12.14453125 42.25390625 C10.18855941 43.65102899 8.19016724 44.99170532 6.14453125 46.25390625 C5.85449219 47.05957031 5.56445312 47.86523438 5.265625 48.6953125 C3.83045426 51.97070217 2.47743185 52.53798135 -0.73046875 54.00390625 C-1.59414063 54.41125 -2.4578125 54.81859375 -3.34765625 55.23828125 C-11.06336043 58.36302126 -18.60596716 57.90780911 -26.4375 55.28515625 C-35.28679563 51.5109817 -40.60035078 44.68669046 -44.23046875 35.94140625 C-45.74501132 27.00560509 -45.8053453 19.08025974 -40.85546875 11.25390625 C-31.2118941 -2.22268415 -15.44995418 -7.35346078 0 0 Z " fill="#192432" transform="translate(59.85546875,6.74609375)"/>
<path d="M0 0 C7.29783925 6.75050131 7.29783925 6.75050131 7.703125 11.88671875 C7.87268128 23.14808179 7.87268128 23.14808179 4.5 28.3125 C0.36281544 32.37710237 -3.76005741 33.66900711 -9.5 33.9375 C-15.27510724 33.66770332 -19.29095641 32.31869812 -23.5 28.3125 C-27.37736052 23.756884 -28.93593049 18.25700669 -28.5 12.3125 C-27.09806119 7.59959932 -25.24807879 3.57633089 -21.5 0.3125 C-14.97193708 -2.86783835 -6.50843823 -3.137997 0 0 Z " fill="#19212D" transform="translate(54.5,18.6875)"/>
<path d="M0 0 C7.32811337 4.28474388 12.05080673 9.9727327 14.76171875 18.10546875 C16.20334564 26.19623189 16.1764831 34.99639293 12.14453125 42.25390625 C10.18855941 43.65102899 8.19016724 44.99170532 6.14453125 46.25390625 C5.85449219 47.05957031 5.56445312 47.86523438 5.265625 48.6953125 C3.83045426 51.97070217 2.47743185 52.53798135 -0.73046875 54.00390625 C-1.59414063 54.41125 -2.4578125 54.81859375 -3.34765625 55.23828125 C-11.06336043 58.36302126 -18.60596716 57.90780911 -26.4375 55.28515625 C-35.28679563 51.5109817 -40.60035078 44.68669046 -44.23046875 35.94140625 C-45.74501132 27.00560509 -45.8053453 19.08025974 -40.85546875 11.25390625 C-31.2118941 -2.22268415 -15.44995418 -7.35346078 0 0 Z M-36.85546875 11.25390625 C-36.85546875 11.91390625 -36.85546875 12.57390625 -36.85546875 13.25390625 C-37.84546875 13.25390625 -38.83546875 13.25390625 -39.85546875 13.25390625 C-42.16956948 23.52272824 -43.03114216 32.00826734 -37.6015625 41.4296875 C-33.56507783 47.26994189 -28.59314971 51.0080126 -21.85546875 53.25390625 C-12.80978064 54.07731089 -5.32269468 53.76098538 2.14453125 48.25390625 C8.86436282 42.28496495 12.11728602 35.93982849 12.70703125 27.00390625 C12.46725143 19.50818055 9.41105253 12.73271717 4.28125 7.26953125 C-1.98977629 2.19238772 -9.52736133 -0.42685389 -17.6015625 -0.08984375 C-25.29668404 1.08376231 -31.70219102 5.553005 -36.85546875 11.25390625 Z " fill="#151A27" transform="translate(59.85546875,6.74609375)"/>
<path d="M0 0 C1.98 0 3.96 0 6 0 C7.67862395 3.74476003 9.3407917 7.49660176 11 11.25 C11.47695312 12.31347656 11.95390625 13.37695312 12.4453125 14.47265625 C12.89648438 15.49746094 13.34765625 16.52226563 13.8125 17.578125 C14.23144531 18.52075195 14.65039062 19.46337891 15.08203125 20.43457031 C16 23 16 23 16 27 C7.42 27 -1.16 27 -10 27 C-9.67 25.35 -9.34 23.7 -9 22 C-3.06 22 2.88 22 9 22 C7.7625 19.339375 7.7625 19.339375 6.5 16.625 C4 11.25 4 11.25 4 9 C3.34 9 2.68 9 2 9 C1.79503906 9.62648438 1.59007812 10.25296875 1.37890625 10.8984375 C1.10949219 11.71570312 0.84007812 12.53296875 0.5625 13.375 C0.29566406 14.18710937 0.02882812 14.99921875 -0.24609375 15.8359375 C-1 18 -1 18 -2 20 C-3.65 20 -5.3 20 -7 20 C-6.41161801 15.15888235 -4.92346884 11.03928805 -2.9375 6.625 C-2.65583984 5.98433594 -2.37417969 5.34367187 -2.08398438 4.68359375 C-1.39540579 3.11970341 -0.69855289 1.55946059 0 0 Z " fill="#028895" transform="translate(175,20)"/>
<path d="M0 0 C2.54283234 -0.10871967 5.08095088 -0.18762401 7.625 -0.25 C8.33785156 -0.28351562 9.05070313 -0.31703125 9.78515625 -0.3515625 C14.99105002 -0.44708349 17.86549155 0.56517759 22 4 C23.45147903 6.90295805 23.37239025 8.77261779 23 12 C20.94696376 15.43229611 18.87134276 17.70955241 15 19 C13.43881572 19.06740865 11.8749748 19.08514456 10.3125 19.0625 C9.10013672 19.04896484 9.10013672 19.04896484 7.86328125 19.03515625 C7.24839844 19.02355469 6.63351563 19.01195313 6 19 C6 21.64 6 24.28 6 27 C4.02 27 2.04 27 0 27 C-0.02685938 24.85423363 -0.04633088 22.70837355 -0.0625 20.5625 C-0.07410156 19.36753906 -0.08570313 18.17257813 -0.09765625 16.94140625 C0 14 0 14 1 13 C3.52596259 12.76346477 6.03107207 12.57826308 8.5625 12.4375 C9.27341797 12.39431641 9.98433594 12.35113281 10.71679688 12.30664062 C12.47761912 12.20028223 14.2387832 12.09961154 16 12 C16.042721 10.33388095 16.04063832 8.66617115 16 7 C14.00383446 5.00383446 10.18298037 5.59016573 7.4375 5.4375 C6.72658203 5.39431641 6.01566406 5.35113281 5.28320312 5.30664062 C3.52238088 5.20028223 1.7612168 5.09961154 0 5 C0 3.35 0 1.7 0 0 Z " fill="#038290" transform="translate(140,20)"/>
<path d="M0 0 C3.05833399 0.44484858 4.93970603 0.74229313 7.4375 2.5 C9.93781654 6.25047482 9.97353554 8.05856266 9.4375 12.5 C7 15.375 7 15.375 4.4375 17.5 C4.1075 17.83 3.7775 18.16 3.4375 18.5 C-0.5358857 19.04182532 -2.09752269 18.84098336 -5.375 16.4375 C-8.02791435 12.87501502 -8.71837894 10.94254965 -8.5625 6.5 C-6.1113236 2.28704056 -4.89680565 0.68727097 0 0 Z " fill="#028D8E" transform="translate(44.5625,24.5)"/>
<path d="M0 0 C0.721875 0.268125 1.44375 0.53625 2.1875 0.8125 C2.1875 2.1325 2.1875 3.4525 2.1875 4.8125 C1.1975 5.1425 0.2075 5.4725 -0.8125 5.8125 C-0.8125 6.8025 -0.8125 7.7925 -0.8125 8.8125 C0.01894531 9.06644531 0.85039063 9.32039063 1.70703125 9.58203125 C2.79371094 9.92621094 3.88039063 10.27039062 5 10.625 C6.61841797 11.12966797 6.61841797 11.12966797 8.26953125 11.64453125 C11.03962198 12.7533092 12.46515942 13.41542806 14.1875 15.8125 C14.83664992 21.87123261 14.83664992 21.87123261 12.9375 24.625 C9.86611693 26.7091528 7.96574387 27.8125 4.1875 27.8125 C4.1875 25.8325 4.1875 23.8525 4.1875 21.8125 C5.8375 21.4825 7.4875 21.1525 9.1875 20.8125 C9.1875 19.8225 9.1875 18.8325 9.1875 17.8125 C8.37925781 17.64234375 7.57101563 17.4721875 6.73828125 17.296875 C-4.70020999 14.70286251 -4.70020999 14.70286251 -7.8125 10.8125 C-8.4375 7.875 -8.4375 7.875 -7.8125 4.8125 C-4.02871622 -0.26858108 -4.02871622 -0.26858108 0 0 Z " fill="#03828E" transform="translate(120.8125,20.1875)"/>
<path d="M0 0 C0.3125 2.25 0.3125 2.25 0 5 C-0.825 5.5775 -1.65 6.155 -2.5 6.75 C-5.16693801 8.69231931 -5.16693801 8.69231931 -5.40234375 11.14453125 C-5.46361883 15.35889538 -5.39995228 17.40007159 -3 21 C-2.01 21.33 -1.02 21.66 0 22 C0 23.65 0 25.3 0 27 C-2.1875 27.3125 -2.1875 27.3125 -5 27 C-8.31342806 24.14891074 -11.6711471 21.22166901 -12.3359375 16.73046875 C-12.42478902 10.94623463 -11.97335819 7.5252135 -8 3 C-4.9589176 0.14898525 -4.3743888 0 0 0 Z " fill="#04828F" transform="translate(206,20)"/>
<path d="M0 0 C5.94 0 11.88 0 18 0 C18.33 1.65 18.66 3.3 19 5 C18 6 18 6 15.27734375 6.09765625 C13.62412109 6.08025391 13.62412109 6.08025391 11.9375 6.0625 C10.28041016 6.04896484 10.28041016 6.04896484 8.58984375 6.03515625 C7.73519531 6.02355469 6.88054687 6.01195312 6 6 C6 9.3 6 12.6 6 16 C4.02 16 2.04 16 0 16 C0 10.72 0 5.44 0 0 Z " fill="#04808E" transform="translate(89,31)"/>
<path d="M0 0 C4.94229987 1.26430927 7.82576264 2.96006154 11 7 C10.8125 9.3125 10.8125 9.3125 10 11 C8.68 11 7.36 11 6 11 C6.33 11.99 6.66 12.98 7 14 C3.37 13.01 -0.26 12.02 -4 11 C-4.33 9.68 -4.66 8.36 -5 7 C-3.68 6.67 -2.36 6.34 -1 6 C-1.020625 5.195625 -1.04125 4.39125 -1.0625 3.5625 C-1 1 -1 1 0 0 Z " fill="#192A37" transform="translate(124,19)"/>
<path d="M0 0 C6.93 0 13.86 0 21 0 C21 1.65 21 3.3 21 5 C14.07 5 7.14 5 0 5 C0 3.35 0 1.7 0 0 Z " fill="#038997" transform="translate(225,42)"/>
<path d="M0 0 C6.93 0 13.86 0 21 0 C21 1.65 21 3.3 21 5 C14.07 5 7.14 5 0 5 C0 3.35 0 1.7 0 0 Z " fill="#038896" transform="translate(225,20)"/>
<path d="M0 0 C0.66 0 1.32 0 2 0 C2.83790789 1.78953185 3.67019396 3.58169695 4.5 5.375 C4.9640625 6.37273438 5.428125 7.37046875 5.90625 8.3984375 C7 11 7 11 7 13 C1.06 13 -4.88 13 -11 13 C-9 11 -9 11 -6.375 10.875 C-5.59125 10.91625 -4.8075 10.9575 -4 11 C-3.79503906 10.37351562 -3.59007812 9.74703125 -3.37890625 9.1015625 C-3.10949219 8.28429688 -2.84007812 7.46703125 -2.5625 6.625 C-2.29566406 5.81289063 -2.02882812 5.00078125 -1.75390625 4.1640625 C-1 2 -1 2 0 0 Z " fill="#1D3242" transform="translate(177,29)"/>
<path d="M0 0 C6.6 0 13.2 0 20 0 C20 1.65 20 3.3 20 5 C13.4 5 6.8 5 0 5 C0 3.35 0 1.7 0 0 Z " fill="#028896" transform="translate(89,20)"/>
<path d="M0 0 C6.27 0 12.54 0 19 0 C19 1.65 19 3.3 19 5 C12.73 5 6.46 5 0 5 C0 3.35 0 1.7 0 0 Z " fill="#028996" transform="translate(225,31)"/>
<path d="M0 0 C1.65 0.33 3.3 0.66 5 1 C3.65467623 5.40287778 1.90569587 7.54758631 -2 10 C-4.8125 10.25 -4.8125 10.25 -7 10 C-7 8.35 -7 6.7 -7 5 C-5.824375 4.87625 -5.824375 4.87625 -4.625 4.75 C-1.85250896 4.27193661 -1.85250896 4.27193661 -0.6875 1.9375 C-0.460625 1.298125 -0.23375 0.65875 0 0 Z " fill="#05828F" transform="translate(215,37)"/>
<path d="M0 0 C3.92683468 0.27396521 5.72768614 0.77609749 8.8125 3.3125 C10.78495555 5.73580253 11.66218781 6.95969029 12 10 C9.125 10.1875 9.125 10.1875 6 10 C5.34 9.01 4.68 8.02 4 7 C1.94996045 5.80767387 1.94996045 5.80767387 0 5 C0 3.35 0 1.7 0 0 Z " fill="#04838D" transform="translate(208,20)"/>
<path d="M0 0 C0.66 0.33 1.32 0.66 2 1 C0.576875 2.299375 0.576875 2.299375 -0.875 3.625 C-3.77204593 6.49471531 -5.04314133 8.98119358 -6 13 C-6.66 13 -7.32 13 -8 13 C-8.02719556 15.37507855 -8.04693247 17.74983964 -8.0625 20.125 C-8.07087891 20.79015625 -8.07925781 21.4553125 -8.08789062 22.140625 C-8.10782292 26.20681354 -7.78890161 30.0120092 -7 34 C-11.20727575 29.06102412 -11.31141195 24.33204298 -11 18 C-10.43549923 14.64244759 -9.74840374 11.32104161 -9 8 C-8.01 8 -7.02 8 -6 8 C-5.7525 7.4225 -5.505 6.845 -5.25 6.25 C-3.83316683 3.6997003 -2.12372463 1.98214299 0 0 Z " fill="#124E58" transform="translate(29,12)"/>
<path d="M0 0 C3.56050965 0.30518654 5.00035037 1.00028808 7.8125 3.3125 C10 6 10 6 10 10 C6.46322336 10.32152515 4.6037896 10.4131192 1.625 8.375 C-0.4131192 5.3962104 -0.32152515 3.53677664 0 0 Z " fill="#04818C" transform="translate(113,37)"/>
<path d="M0 0 C3.56943715 0.30595176 5.03014419 1.02424641 7.875 3.3125 C10 6 10 6 9.8125 8.3125 C9.544375 8.869375 9.27625 9.42625 9 10 C5.89903219 9.65544802 4.20062862 9.15182706 1.6875 7.25 C-0.30929204 4.58761061 -0.36116409 3.25047681 0 0 Z " fill="#057F8A" transform="translate(125,20)"/>
<path d="M0 0 C1.32 0 2.64 0 4 0 C4 1.65 4 3.3 4 5 C2.68 5.33 1.36 5.66 0 6 C-0.38218767 4.34385343 -0.71395102 2.67542976 -1 1 C-0.67 0.67 -0.34 0.34 0 0 Z " fill="#038B89" transform="translate(67,51)"/>
</svg>
