<?xml version="1.0" encoding="UTF-8"?>
<svg version="1.1" xmlns="http://www.w3.org/2000/svg" width="206" height="206">
<path d="M0 0 C0.62422852 0.32693848 1.24845703 0.65387695 1.89160156 0.99072266 C2.57125977 1.33828613 3.25091797 1.68584961 3.95117188 2.04394531 C6.29100682 3.24499141 8.62312292 4.46008053 10.95410156 5.67822266 C11.83404785 6.13729004 12.71399414 6.59635742 13.62060547 7.06933594 C17.46042364 9.07356649 21.29937784 11.07943095 25.13647461 13.08886719 C31.79745802 16.57161152 38.48406786 19.99830761 45.20410156 23.36572266 C46.04360352 23.78772949 46.88310547 24.20973633 47.74804688 24.64453125 C48.52245117 25.0307666 49.29685547 25.41700195 50.09472656 25.81494141 C50.77051758 26.15227295 51.44630859 26.48960449 52.14257812 26.8371582 C54.11634435 27.7949035 54.11634435 27.7949035 56.95410156 28.67822266 C56.82910156 30.55322266 56.82910156 30.55322266 55.95410156 32.67822266 C53.96776641 33.38456329 51.96474835 34.04438991 49.95410156 34.67822266 C47.99172688 35.58217077 46.04646652 36.52401671 44.11816406 37.49853516 C43.0546875 38.03349609 41.99121094 38.56845703 40.89550781 39.11962891 C39.80109375 39.67521484 38.70667969 40.23080078 37.57910156 40.80322266 C36.46148437 41.36654297 35.34386719 41.92986328 34.19238281 42.51025391 C31.44446118 43.89595798 28.69903361 45.28660594 25.95410156 46.67822266 C26.44910156 54.59822266 26.44910156 54.59822266 26.95410156 62.67822266 C25.30410156 62.67822266 23.65410156 62.67822266 21.95410156 62.67822266 C21.95410156 63.33822266 21.95410156 63.99822266 21.95410156 64.67822266 C23.60410156 64.67822266 25.25410156 64.67822266 26.95410156 64.67822266 C27.82464987 74.05426318 28.24007561 82.44409063 25.95410156 91.67822266 C25.82003906 92.42845703 25.68597656 93.17869141 25.54785156 93.95166016 C24.57586473 98.97982283 22.79876483 101.382797 18.95410156 104.67822266 C16.06948046 107.39967225 16.06948046 107.39967225 13.95410156 110.67822266 C12.2874349 111.01155599 10.62076823 111.34488932 8.95410156 111.67822266 C6.93173104 112.63217102 4.92583196 113.62357616 2.95410156 114.67822266 C3.28410156 115.99822266 3.61410156 117.31822266 3.95410156 118.67822266 C-4.62589844 118.67822266 -13.20589844 118.67822266 -22.04589844 118.67822266 C-22.70589844 117.35822266 -23.36589844 116.03822266 -24.04589844 114.67822266 C-23.05589844 114.67822266 -22.06589844 114.67822266 -21.04589844 114.67822266 C-22.60709266 113.88398404 -24.16991808 113.09295142 -25.73339844 112.30322266 C-27.03857422 111.64193359 -27.03857422 111.64193359 -28.37011719 110.96728516 C-31.0249053 109.64818126 -31.0249053 109.64818126 -33.76855469 108.60400391 C-36.2003326 107.61544239 -37.41574187 106.71591837 -39.04589844 104.67822266 C-39.37589844 103.68822266 -39.70589844 102.69822266 -40.04589844 101.67822266 C-40.97402344 100.81197266 -40.97402344 100.81197266 -41.92089844 99.92822266 C-45.69326005 95.93395742 -47.26027993 91.75901664 -47.22558594 86.33837891 C-47.14162401 84.80476187 -47.03978461 83.27202828 -46.92089844 81.74072266 C-46.88480469 80.98082031 -46.84871094 80.22091797 -46.81152344 79.43798828 C-46.46036261 74.02733916 -45.27093924 69.63198265 -43.04589844 64.67822266 C-42.38589844 64.34822266 -41.72589844 64.01822266 -41.04589844 63.67822266 C-44.01589844 62.68822266 -44.01589844 62.68822266 -47.04589844 61.67822266 C-47.04589844 56.39822266 -47.04589844 51.11822266 -47.04589844 45.67822266 C-52.32589844 43.03822266 -57.60589844 40.39822266 -63.04589844 37.67822266 C-62.90522186 41.92845118 -62.7585793 46.17832848 -62.60839844 50.42822266 C-62.56908203 51.63478516 -62.52976562 52.84134766 -62.48925781 54.08447266 C-62.42641602 55.82470703 -62.42641602 55.82470703 -62.36230469 57.60009766 C-62.32564697 58.6684082 -62.28898926 59.73671875 -62.2512207 60.83740234 C-62.07602934 63.26133417 -61.73391356 65.35708978 -61.04589844 67.67822266 C-62.53089844 68.17322266 -62.53089844 68.17322266 -64.04589844 68.67822266 C-63.71589844 70.98822266 -63.38589844 73.29822266 -63.04589844 75.67822266 C-62.38589844 75.67822266 -61.72589844 75.67822266 -61.04589844 75.67822266 C-61.04589844 80.29822266 -61.04589844 84.91822266 -61.04589844 89.67822266 C-65.00589844 89.34822266 -68.96589844 89.01822266 -73.04589844 88.67822266 C-73.04589844 80.75822266 -73.04589844 72.83822266 -73.04589844 64.67822266 C-72.05589844 64.18322266 -72.05589844 64.18322266 -71.04589844 63.67822266 C-71.37589844 53.44822266 -71.70589844 43.21822266 -72.04589844 32.67822266 C-73.03589844 32.34822266 -74.02589844 32.01822266 -75.04589844 31.67822266 C-75.04589844 30.35822266 -75.04589844 29.03822266 -75.04589844 27.67822266 C-74.46994934 27.46293411 -73.89400024 27.24764557 -73.30059814 27.02583313 C-66.10679427 24.25196319 -59.3148383 20.87889173 -52.46777344 17.34619141 C-50.67995257 16.43562564 -48.89212181 15.52507869 -47.1037178 14.61565876 C-42.73693453 12.39439865 -38.37407735 10.16575932 -34.02050781 7.91870117 C-31.56049806 6.64954189 -29.09643463 5.3890036 -26.6272583 4.13777161 C-24.31236401 2.96438455 -22.00373942 1.77852588 -19.70233154 0.5789032 C-18.65394104 0.05117813 -17.60555054 -0.47654694 -16.52539062 -1.02026367 C-15.1516629 -1.72497551 -15.1516629 -1.72497551 -13.75018311 -2.44392395 C-8.67896797 -4.09012025 -4.59528954 -2.32809395 0 0 Z M-70.04589844 35.67822266 C-70.04589844 44.25822266 -70.04589844 52.83822266 -70.04589844 61.67822266 C-69.71589844 61.67822266 -69.38589844 61.67822266 -69.04589844 61.67822266 C-69.04589844 53.09822266 -69.04589844 44.51822266 -69.04589844 35.67822266 C-69.37589844 35.67822266 -69.70589844 35.67822266 -70.04589844 35.67822266 Z M-65.04589844 37.67822266 C-65.04589844 45.59822266 -65.04589844 53.51822266 -65.04589844 61.67822266 C-64.71589844 61.67822266 -64.38589844 61.67822266 -64.04589844 61.67822266 C-64.04589844 53.75822266 -64.04589844 45.83822266 -64.04589844 37.67822266 C-64.37589844 37.67822266 -64.70589844 37.67822266 -65.04589844 37.67822266 Z M-46.04589844 47.67822266 C-46.04589844 51.96822266 -46.04589844 56.25822266 -46.04589844 60.67822266 C-45.71589844 60.67822266 -45.38589844 60.67822266 -45.04589844 60.67822266 C-45.04589844 56.38822266 -45.04589844 52.09822266 -45.04589844 47.67822266 C-45.37589844 47.67822266 -45.70589844 47.67822266 -46.04589844 47.67822266 Z M-71.04589844 70.67822266 C-70.04589844 72.67822266 -70.04589844 72.67822266 -70.04589844 72.67822266 Z M-72.04589844 72.67822266 C-72.04589844 74.65822266 -72.04589844 76.63822266 -72.04589844 78.67822266 C-71.71589844 78.67822266 -71.38589844 78.67822266 -71.04589844 78.67822266 C-71.04589844 76.69822266 -71.04589844 74.71822266 -71.04589844 72.67822266 C-71.37589844 72.67822266 -71.70589844 72.67822266 -72.04589844 72.67822266 Z M-46.04589844 86.67822266 C-45.04589844 89.67822266 -45.04589844 89.67822266 -45.04589844 89.67822266 Z M-45.04589844 90.67822266 C-44.04589844 92.67822266 -44.04589844 92.67822266 -44.04589844 92.67822266 Z " fill="#090706" transform="translate(113.0458984375,44.32177734375)"/>
<path d="M0 0 C0.72341583 -0.00191345 1.44683167 -0.0038269 2.19216919 -0.00579834 C3.71324006 -0.00715104 5.23432283 -0.00351898 6.75537109 0.00488281 C9.05723624 0.01556432 11.3583155 0.00497277 13.66015625 -0.0078125 C32.16050776 -0.02686177 32.16050776 -0.02686177 39.1953125 4.265625 C39.6903125 5.750625 39.6903125 5.750625 40.1953125 7.265625 C39.5353125 7.595625 38.8753125 7.925625 38.1953125 8.265625 C38.8553125 9.255625 39.5153125 10.245625 40.1953125 11.265625 C43.7596825 18.41982478 43.23139691 27.59404916 41.53515625 35.2421875 C38.57214587 43.52835506 33.36929042 49.33964891 25.8203125 53.765625 C17.45237363 57.60268239 7.99905492 57.90565028 -0.83203125 55.41015625 C-9.00501475 51.72035014 -14.97285249 45.70143197 -18.8046875 37.640625 C-21.64874976 29.97906952 -22.50853624 21.94239603 -19.671875 14.15625 C-18.49033689 11.76616719 -17.24926398 9.50471855 -15.8046875 7.265625 C-16.7946875 6.935625 -17.7846875 6.605625 -18.8046875 6.265625 C-13.8582551 0.32990612 -7.32777427 -0.04366879 0 0 Z " fill="#F8B224" transform="translate(92.8046875,98.734375)"/>
<path d="M0 0 C1.22820172 0.63640794 2.45214756 1.28109125 3.671875 1.93359375 C7.83148951 4.40106172 7.83148951 4.40106172 12.421875 5.37109375 C13.081875 4.38109375 13.741875 3.39109375 14.421875 2.37109375 C14.421875 6.37109375 14.421875 6.37109375 13.421875 8.37109375 C14.25589844 8.62503906 15.08992188 8.87898438 15.94921875 9.140625 C19.80616941 10.50726106 23.34486001 12.2033634 26.984375 14.05859375 C27.6753125 14.40728516 28.36625 14.75597656 29.078125 15.11523438 C35.58874053 18.41832647 42.01964449 21.86302224 48.421875 25.37109375 C45.45793878 31.29896618 32.2403714 34.71019601 26.421875 37.37109375 C26.195 36.46359375 25.968125 35.55609375 25.734375 34.62109375 C24.18144642 30.7757468 22.91971994 29.54999992 19.421875 27.37109375 C11.75683629 24.6397734 3.56711348 22.73345446 -4.578125 22.37109375 C-5.25488281 22.33113281 -5.93164062 22.29117188 -6.62890625 22.25 C-17.97476666 21.89738642 -30.86119468 23.29243912 -40.140625 30.30859375 C-41.79149297 32.6772304 -42.09106237 34.55540787 -42.578125 37.37109375 C-45.30887202 36.1035695 -48.03772098 34.83221043 -50.765625 33.55859375 C-51.53455078 33.20216797 -52.30347656 32.84574219 -53.09570312 32.47851562 C-57.05798168 30.6249175 -60.87822412 28.72153178 -64.578125 26.37109375 C-62.16250863 23.63446524 -59.66552409 22.26006241 -56.390625 20.68359375 C-55.30910156 20.15636719 -54.22757813 19.62914063 -53.11328125 19.0859375 C-51.36337891 18.23708984 -51.36337891 18.23708984 -49.578125 17.37109375 C-47.79607511 16.48304882 -46.01410677 15.59482833 -44.23461914 14.70166016 C-42.94748465 14.05652705 -41.65886856 13.41434271 -40.36889648 12.77490234 C-36.02811907 10.61954509 -31.72268035 8.4054307 -27.4296875 6.15625 C-26.36008789 5.60340332 -25.29048828 5.05055664 -24.18847656 4.48095703 C-22.06137022 3.38144915 -19.94065814 2.26946543 -17.82714844 1.14404297 C-16.84520508 0.64018066 -15.86326172 0.13631836 -14.8515625 -0.3828125 C-13.97935059 -0.83986572 -13.10713867 -1.29691895 -12.20849609 -1.76782227 C-7.61010318 -3.27316214 -4.28171583 -1.94920906 0 0 Z " fill="#2A2A2A" transform="translate(111.578125,48.62890625)"/>
<path d="M0 0 C1.65 0 3.3 0 5 0 C5 0.66 5 1.32 5 2 C6.670625 2.433125 6.670625 2.433125 8.375 2.875 C12 4 12 4 14 6 C14 7.32 14 8.64 14 10 C9.25 9.125 9.25 9.125 7 8 C5.50350638 7.87994547 4.00125207 7.82468549 2.5 7.8125 C1.7059375 7.79832031 0.911875 7.78414063 0.09375 7.76953125 C-2.22033317 7.80333697 -2.22033317 7.80333697 -4 10 C-4.49852362 14.08742922 -4.49852362 14.08742922 -2.75390625 17.6328125 C-0.6655773 19.26068585 0.77321738 19.54234871 3.375 19.9375 C7.50149012 20.72510089 9.92910569 22.0281668 13 25 C16.03831569 23.65741184 17.96518837 22.22120832 20.1640625 19.7421875 C20.72867188 19.11699219 21.29328125 18.49179688 21.875 17.84765625 C22.4525 17.19667969 23.03 16.54570313 23.625 15.875 C24.77885865 14.57627363 25.93747902 13.28175705 27.1015625 11.9921875 C27.61025879 11.41839355 28.11895508 10.84459961 28.64306641 10.25341797 C30 9 30 9 32 9 C35.43472531 16.10301195 35.01065217 25.37036581 33.34765625 32.98828125 C30.34864248 41.26452955 25.1826574 47.06893512 17.625 51.5 C9.25008119 55.340258 -0.57051475 55.86538395 -9.30859375 52.86328125 C-11.66075731 51.69887688 -13.83964367 50.48624023 -16 49 C-15.21625 48.2575 -14.4325 47.515 -13.625 46.75 C-10.67407662 43.72182159 -10.67407662 43.72182159 -9 40 C-9.30378052 37.31006947 -9.30378052 37.31006947 -10 35 C-8.1875 34.3125 -8.1875 34.3125 -6 34 C-4.375 35.375 -4.375 35.375 -3 37 C0.37647303 38.68823651 3.7278943 38.34381235 7.3125 37.375 C9.33056783 36.01443675 9.33056783 36.01443675 9.75 32.875 C9.8325 31.92625 9.915 30.9775 10 30 C6.9417417 27.04039519 4.68892313 25.80785753 0.5625 25.1875 C-3.94910282 24.31988407 -6.22384481 22.66484537 -8.96484375 19 C-10.84526104 15.36689187 -10.65324303 13.05010678 -10 9 C-7.93228896 5.72018249 -6.22880989 4.15253993 -3 2 C-2.01 2 -1.02 2 0 2 C0 1.34 0 0.68 0 0 Z " fill="#F8B224" transform="translate(101,101)"/>
<path d="M0 0 C1.2478125 0.10441406 2.495625 0.20882812 3.78125 0.31640625 C12.18872603 1.13146188 19.54002349 2.45101527 26.71875 7.1171875 C28.81498059 10.19762392 28.30963848 13.60163943 28.1875 17.1875 C28.16719727 18.31188477 28.16719727 18.31188477 28.14648438 19.45898438 C28.11118539 21.30629767 28.05737917 23.15324066 28 25 C27.18732666 24.78778809 26.37465332 24.57557617 25.53735352 24.35693359 C16.59862799 22.2104323 8.28825681 21.52914798 -0.8684082 21.60888672 C-3.0645936 21.62501538 -5.2589468 21.60891291 -7.45507812 21.58984375 C-16.39869587 21.57856697 -24.35277621 22.52668178 -33 25 C-34.18463371 10.0769059 -34.18463371 10.0769059 -31.78125 5.86328125 C-23.85668745 0.35432001 -9.40522563 -0.84825611 0 0 Z " fill="#393939" transform="translate(106,74)"/>
<path d="M0 0 C0.33 0 0.66 0 1 0 C1 3.3 1 6.6 1 10 C1.66 10 2.32 10 3 10 C3.33 9.01 3.66 8.02 4 7 C5.99616554 8.99616554 5.40983427 12.81701963 5.5625 15.5625 C5.60568359 16.27341797 5.64886719 16.98433594 5.69335938 17.71679688 C5.79971777 19.47761912 5.90038846 21.2387832 6 23 C4.35 23 2.7 23 1 23 C1 23.66 1 24.32 1 25 C2.65 25 4.3 25 6 25 C6.8705483 34.37604053 7.28597405 42.76586797 5 52 C4.79890625 53.12535156 4.79890625 53.12535156 4.59375 54.2734375 C3.62176316 59.30160017 1.84466327 61.70457434 -2 65 C-4.88462111 67.72144959 -4.88462111 67.72144959 -7 71 C-8.66666667 71.33333333 -10.33333333 71.66666667 -12 72 C-14.02237052 72.95394836 -16.0282696 73.94535351 -18 75 C-17.67 76.32 -17.34 77.64 -17 79 C-25.58 79 -34.16 79 -43 79 C-43.66 77.68 -44.32 76.36 -45 75 C-44.01 75 -43.02 75 -42 75 C-43.56119422 74.20576139 -45.12401964 73.41472877 -46.6875 72.625 C-47.99267578 71.96371094 -47.99267578 71.96371094 -49.32421875 71.2890625 C-51.97900686 69.96995861 -51.97900686 69.96995861 -54.72265625 68.92578125 C-57.15443416 67.93721973 -58.36984343 67.03769571 -60 65 C-60.33 64.01 -60.66 63.02 -61 62 C-61.61875 61.4225 -62.2375 60.845 -62.875 60.25 C-66.64736161 56.25573476 -68.2143815 52.08079398 -68.1796875 46.66015625 C-68.09572557 45.12653921 -67.99388617 43.59380562 -67.875 42.0625 C-67.83890625 41.30259766 -67.8028125 40.54269531 -67.765625 39.75976562 C-67.41446417 34.3491165 -66.2250408 29.95376 -64 25 C-63.34 24.67 -62.68 24.34 -62 24 C-63.98 23.34 -65.96 22.68 -68 22 C-68 17.05 -68 12.1 -68 7 C-66.68 6.67 -65.36 6.34 -64 6 C-64 11.28 -64 16.56 -64 22 C-62.02 21.67 -60.04 21.34 -58 21 C-57.34 21.33 -56.68 21.66 -56 22 C-56.3609375 22.55945313 -56.721875 23.11890625 -57.09375 23.6953125 C-61.36990029 31.08354995 -62.14595366 37.56838973 -61 46 C-58.32192749 56.01622713 -53.39882763 62.57488888 -44.625 67.9375 C-36.53255438 71.63831355 -26.84730207 71.51444861 -18.44921875 68.890625 C-10.3948447 65.15933341 -5.47715909 60.49263441 -1.625 52.5625 C1.03561006 45.2625909 1.61438248 35.68907773 -0.94140625 28.265625 C-1.88313786 26.46747544 -2.93040329 24.72515598 -4 23 C-3 21 -3 21 -2 20 C-3.32 19.01 -4.64 18.02 -6 17 C-4.68 16.01 -3.36 15.02 -2 14 C-1.01 14.495 -1.01 14.495 0 15 C0 10.05 0 5.1 0 0 Z M-67 8 C-67 12.29 -67 16.58 -67 21 C-66.67 21 -66.34 21 -66 21 C-66 16.71 -66 12.42 -66 8 C-66.33 8 -66.66 8 -67 8 Z M-67 47 C-66 50 -66 50 -66 50 Z M-66 51 C-65 53 -65 53 -65 53 Z " fill="#151108" transform="translate(134,84)"/>
<path d="M0 0 C3.6875 1.125 3.6875 1.125 5.1875 3.1875 C5.435 4.1465625 5.435 4.1465625 5.6875 5.125 C5.0275 5.455 4.3675 5.785 3.6875 6.125 C3.6875 7.445 3.6875 8.765 3.6875 10.125 C2.40234375 11.765625 2.40234375 11.765625 0.625 13.375 C-2.79415636 16.56575118 -5.72802726 19.96266794 -8.63671875 23.62109375 C-10.3125 25.125 -10.3125 25.125 -14.3125 25.125 C-14.869375 24.67125 -15.42625 24.2175 -16 23.75 C-18.46034657 22.02110781 -19.90004554 21.71660384 -22.8125 21.1875 C-25.80480888 20.58115075 -27.30328036 20.13129634 -29.875 18.375 C-31.78043681 15.39257716 -31.83011806 13.60043552 -31.3125 10.125 C-29.69893195 7.9702038 -28.83602491 7.21320257 -26.15625 6.76171875 C-24.99609375 6.78685547 -24.99609375 6.78685547 -23.8125 6.8125 C-23.0390625 6.81636719 -22.265625 6.82023437 -21.46875 6.82421875 C-19.3125 7.125 -19.3125 7.125 -16.3125 9.125 C-14.9925 9.125 -13.6725 9.125 -12.3125 9.125 C-11.9825 8.135 -11.6525 7.145 -11.3125 6.125 C-8.16244333 2.2901484 -5.14874918 -0.43219427 0 0 Z " fill="#FAC050" transform="translate(127.3125,100.875)"/>
<path d="M0 0 C1.65 0 3.3 0 5 0 C5 0.66 5 1.32 5 2 C6.670625 2.433125 6.670625 2.433125 8.375 2.875 C12 4 12 4 14 6 C14 7.32 14 8.64 14 10 C9.25 9.125 9.25 9.125 7 8 C5.50350638 7.87994547 4.00125207 7.82468549 2.5 7.8125 C1.7059375 7.79832031 0.911875 7.78414063 0.09375 7.76953125 C-2.22033317 7.80333697 -2.22033317 7.80333697 -4 10 C-4.49831296 14.09307412 -4.49831296 14.09307412 -2.74609375 17.640625 C-0.67323933 19.25439086 0.6646315 19.47350937 3.25 19.8125 C8.36854651 20.79104566 11.52243541 23.19123878 15 27 C16.43304064 29.86608129 16.30644155 31.81300783 16 35 C13.93920878 38.8271837 12.24474613 41.63072705 8 43 C7.01 43 6.02 43 5 43 C5 44.65 5 46.3 5 48 C3.515 48.495 3.515 48.495 2 49 C1.34 48.67 0.68 48.34 0 48 C0 46.35 0 44.7 0 43 C-0.9075 42.896875 -1.815 42.79375 -2.75 42.6875 C-6.01961575 41.99585051 -7.53717737 41.17865079 -10 39 C-9.67 37.35 -9.34 35.7 -9 34 C-6 34 -6 34 -4.4375 35.4375 C-3.963125 35.953125 -3.48875 36.46875 -3 37 C0.37647303 38.68823651 3.7278943 38.34381235 7.3125 37.375 C9.33056783 36.01443675 9.33056783 36.01443675 9.75 32.875 C9.8325 31.92625 9.915 30.9775 10 30 C6.9417417 27.04039519 4.68892313 25.80785753 0.5625 25.1875 C-3.94910282 24.31988407 -6.22384481 22.66484537 -8.96484375 19 C-10.84526104 15.36689187 -10.65324303 13.05010678 -10 9 C-7.93228896 5.72018249 -6.22880989 4.15253993 -3 2 C-2.01 2 -1.02 2 0 2 C0 1.34 0 0.68 0 0 Z " fill="#100C06" transform="translate(101,101)"/>
<path d="M0 0 C3.25974966 0.0470722 5.23465405 0.5662255 7.875 2.5 C10.3125 5.375 10.3125 5.375 10.5 8.5 C9.3125 11.375 9.3125 11.375 7.125 13.25 C3.85607559 14.55756976 1.80518163 14.8115852 -1.6875 14.375 C-4.5625 13 -4.5625 13 -6.6875 11.375 C-6.6875 10.715 -6.6875 10.055 -6.6875 9.375 C-7.6775 9.705 -8.6675 10.035 -9.6875 10.375 C-9.39875 11.40625 -9.11 12.4375 -8.8125 13.5 C-8.67906324 17.63653965 -8.73416538 18.05546228 -11.375 20.875 C-12.94921875 22.40625 -12.94921875 22.40625 -14.6875 23.375 C-16.76953125 23.28125 -16.76953125 23.28125 -18.6875 22.375 C-19.9375 20.3125 -19.9375 20.3125 -20.6875 18.375 C-20.11902344 17.818125 -19.55054687 17.26125 -18.96484375 16.6875 C-14.46010727 12.23540651 -10.12219324 7.71547545 -6 2.90625 C-3.84399867 0.39091512 -3.84399867 0.39091512 0 0 Z " fill="#F9C562" transform="translate(101.6875,125.625)"/>
<path d="M0 0 C0.66 0.33 1.32 0.66 2 1 C1.34 2.65 0.68 4.3 0 6 C0.99 6.33 1.98 6.66 3 7 C1.58389235 8.69732051 0.15370291 10.37827941 -1.30078125 12.04296875 C-2.36778312 13.27186056 -3.41113402 14.52212887 -4.41796875 15.80078125 C-6.60515818 18.3678187 -7.96452553 19.83847278 -11.37890625 20.37109375 C-13.61917869 20.37459965 -15.77686339 20.26677639 -18 20 C-18 17 -18 17 -16.42578125 15.1328125 C-15.72839844 14.47023438 -15.03101562 13.80765625 -14.3125 13.125 C-13.58160156 12.42503906 -12.85070312 11.72507812 -12.09765625 11.00390625 C-11.40542969 10.34261719 -10.71320313 9.68132813 -10 9 C-9.08065621 8.02334646 -8.16344732 7.04467063 -7.25 6.0625 C-4.96883052 3.97142797 -3.90833248 3.6232141 -1 3 C-0.67 2.01 -0.34 1.02 0 0 Z " fill="#373736" transform="translate(125,51)"/>
<path d="M0 0 C3.5625 1.5 3.5625 1.5 6 3 C4.9171875 3.804375 4.9171875 3.804375 3.8125 4.625 C0.752158 7.2092888 -1.51220011 9.87248014 -4 13 C-6.62655933 12.64505955 -8.57968261 12.27538036 -10.8125 10.8125 C-12.58260835 8.11075568 -12.39415803 6.15326426 -12 3 C-8.8295722 -1.20748362 -4.85096016 -0.64349472 0 0 Z " fill="#F6B125" transform="translate(108,108)"/>
<path d="M0 0 C2.46800047 1.15173355 4.04783565 2.04783565 6 4 C5.9375 6.9375 5.9375 6.9375 5 10 C2.28597396 12.32630803 0.47993368 12.94123261 -3.0625 13.375 C-6.33599313 12.95710726 -7.49489362 12.03640906 -10 10 C-9.44570312 9.52949219 -8.89140625 9.05898437 -8.3203125 8.57421875 C-7.59585938 7.95160156 -6.87140625 7.32898438 -6.125 6.6875 C-5.40570313 6.07261719 -4.68640625 5.45773438 -3.9453125 4.82421875 C-1.80820669 2.9587676 -1.80820669 2.9587676 0 0 Z " fill="#EAB240" transform="translate(106,127)"/>
<path d="M0 0 C2.475 0.495 2.475 0.495 5 1 C1.50365336 5.12389604 -2.03707451 9.20542944 -5.625 13.25 C-6.35976562 14.08015625 -7.09453125 14.9103125 -7.8515625 15.765625 C-9.78929092 17.78086256 -11.71183115 19.4055294 -14 21 C-14.66 19.68 -15.32 18.36 -16 17 C-15.26394531 16.27554688 -14.52789062 15.55109375 -13.76953125 14.8046875 C-6.56983689 7.69064086 -6.56983689 7.69064086 0 0 Z " fill="#FCB627" transform="translate(94,124)"/>
<path d="M0 0 C0.66 0.33 1.32 0.66 2 1 C0.62736637 4.05160609 -0.95956573 6.24826932 -3.2578125 8.671875 C-3.88300781 9.33574219 -4.50820312 9.99960938 -5.15234375 10.68359375 C-5.80332031 11.36550781 -6.45429687 12.04742187 -7.125 12.75 C-7.78371094 13.44738281 -8.44242188 14.14476563 -9.12109375 14.86328125 C-10.74327774 16.57950489 -12.36965379 18.29153435 -14 20 C-14.99 19.67 -15.98 19.34 -17 19 C-17 17 -17 17 -14.89453125 14.76953125 C-13.93145898 13.84450628 -12.96647006 12.92147437 -12 12 C-10.95959982 10.96488607 -9.92190967 9.92704232 -8.88671875 8.88671875 C-5.92447917 5.92447917 -2.96223958 2.96223958 0 0 Z " fill="#F8C35F" transform="translate(130,107)"/>
<path d="M0 0 C4.95 0 9.9 0 15 0 C15 0.66 15 1.32 15 2 C12.69 2 10.38 2 8 2 C14.27 2.33 20.54 2.66 27 3 C27.33 2.34 27.66 1.68 28 1 C28 1.99 28 2.98 28 4 C19.42 4 10.84 4 2 4 C1.34 2.68 0.68 1.36 0 0 Z " fill="#2C2511" transform="translate(89,159)"/>
<path d="M0 0 C1.32 0.66 2.64 1.32 4 2 C2.45355352 3.68157287 0.88719279 5.34484845 -0.6875 7 C-1.99267578 8.3921875 -1.99267578 8.3921875 -3.32421875 9.8125 C-6 12 -6 12 -8.83203125 12.3125 C-9.90517578 12.1578125 -9.90517578 12.1578125 -11 12 C-7.49102731 7.81576108 -3.91939465 3.80411834 0 0 Z " fill="#373737" transform="translate(131,60)"/>
<path d="M0 0 C0.99 0.33 1.98 0.66 3 1 C1.33248852 4.94139078 -1.22710649 7.7892812 -4 11 C-2.68 11.66 -1.36 12.32 0 13 C-4.56830973 13.31147566 -6.50007882 12.89884776 -10 10 C-9.44570312 9.52949219 -8.89140625 9.05898437 -8.3203125 8.57421875 C-7.59585938 7.95160156 -6.87140625 7.32898438 -6.125 6.6875 C-5.40570313 6.07261719 -4.68640625 5.45773438 -3.9453125 4.82421875 C-1.80820669 2.9587676 -1.80820669 2.9587676 0 0 Z " fill="#ECAC2A" transform="translate(106,127)"/>
<path d="M0 0 C-1.1446875 0.8971875 -1.1446875 0.8971875 -2.3125 1.8125 C-4.91335259 3.84004112 -4.91335259 3.84004112 -6.6875 5.75 C-8 7 -8 7 -10 7 C-10.33 7.99 -10.66 8.98 -11 10 C-11.99 8.02 -12.98 6.04 -14 4 C-10.36515075 -1.28705346 -5.79646176 -0.3982302 0 0 Z " fill="#F0B642" transform="translate(126,100)"/>
<path d="M0 0 C-0.8125 1.9375 -0.8125 1.9375 -2 4 C-2.99 4.33 -3.98 4.66 -5 5 C-5.33 5.66 -5.66 6.32 -6 7 C-6.33 7.66 -6.66 8.32 -7 9 C-7.99 9.33 -8.98 9.66 -10 10 C-9.91252721 4.66415991 -9.91252721 4.66415991 -9 2 C-6.28232344 -0.15775324 -3.30056308 -1.65028154 0 0 Z " fill="#EEAE29" transform="translate(115,142)"/>
<path d="M0 0 C0.33 0 0.66 0 1 0 C2.03590199 5.05002222 2.10251672 9.87416389 2 15 C3.98 15 5.96 15 8 15 C8.99 11.04 9.98 7.08 11 3 C11.33 3 11.66 3 12 3 C12 7.62 12 12.24 12 17 C8.04 16.67 4.08 16.34 0 16 C0 10.72 0 5.44 0 0 Z " fill="#1D180A" transform="translate(40,117)"/>
<path d="M0 0 C0.66 0.33 1.32 0.66 2 1 C-0.32385453 3.67504798 -2.66119737 6.33801737 -5 9 C-5.79148437 9.91007813 -6.58296875 10.82015625 -7.3984375 11.7578125 C-8.19507812 12.66273438 -8.99171875 13.56765625 -9.8125 14.5 C-10.93591797 15.78390625 -10.93591797 15.78390625 -12.08203125 17.09375 C-14 19 -14 19 -16 19 C-14.501529 15.45815946 -12.45084115 13.27223438 -9.6875 10.625 C-6.20936358 7.23101204 -3.02197722 3.80184231 0 0 Z " fill="#FCC55C" transform="translate(94,124)"/>
<path d="M0 0 C-4.625 4.875 -4.625 4.875 -8 6 C-10.6875 5.0625 -10.6875 5.0625 -13 4 C-13 3.01 -13 2.02 -13 1 C-8.62426048 0.40667939 -4.42471556 -0.13827236 0 0 Z " fill="#ECAB26" transform="translate(119,99)"/>
<path d="M0 0 C2.475 0.99 2.475 0.99 5 2 C3.9171875 2.804375 3.9171875 2.804375 2.8125 3.625 C-0.247842 6.2092888 -2.51220011 8.87248014 -5 12 C-6.32 11.67 -7.64 11.34 -9 11 C-8.43410156 10.45730469 -7.86820312 9.91460937 -7.28515625 9.35546875 C-6.55167969 8.64003906 -5.81820312 7.92460938 -5.0625 7.1875 C-3.96615234 6.12595703 -3.96615234 6.12595703 -2.84765625 5.04296875 C-0.79165354 3.04463837 -0.79165354 3.04463837 0 0 Z " fill="#F1AE26" transform="translate(109,109)"/>
<path d="M0 0 C1.32 0 2.64 0 4 0 C4 2 4 2 1.75 4.5 C-0.5264965 6.56954228 -2.19566446 7.85749293 -5 9 C-5 4.64014292 -2.97359577 3.04117749 0 0 Z " fill="#F8C35F" transform="translate(95,144)"/>
<path d="M0 0 C0.66 0.33 1.32 0.66 2 1 C1.24203125 1.61488281 1.24203125 1.61488281 0.46875 2.2421875 C-0.50578125 3.05042969 -0.50578125 3.05042969 -1.5 3.875 C-2.47453125 4.67550781 -2.47453125 4.67550781 -3.46875 5.4921875 C-4.22671875 6.23855469 -4.22671875 6.23855469 -5 7 C-5 7.66 -5 8.32 -5 9 C-6.65 9.33 -8.3 9.66 -10 10 C-9.34 9.01 -8.68 8.02 -8 7 C-8.66 6.34 -9.32 5.68 -10 5 C-8.38007835 4.13624104 -6.75388139 3.28424146 -5.125 2.4375 C-4.22007813 1.96183594 -3.31515625 1.48617187 -2.3828125 0.99609375 C-1.20332031 0.50302734 -1.20332031 0.50302734 0 0 Z " fill="#15120F" transform="translate(70,57)"/>
<path d="M0 0 C-1.95585325 1.00484204 -3.91476237 2.00373805 -5.875 3 C-6.96554688 3.556875 -8.05609375 4.11375 -9.1796875 4.6875 C-12 6 -12 6 -14 6 C-14.66 4.68 -15.32 3.36 -16 2 C-14.02 1.34 -12.04 0.68 -10 0 C-10.33 0.99 -10.66 1.98 -11 3 C-10.18595703 2.54947266 -10.18595703 2.54947266 -9.35546875 2.08984375 C-8.64003906 1.70957031 -7.92460937 1.32929687 -7.1875 0.9375 C-6.47980469 0.55464844 -5.77210938 0.17179687 -5.04296875 -0.22265625 C-3 -1 -3 -1 0 0 Z " fill="#17120E" transform="translate(163,79)"/>
<path d="M0 0 C0.33 0.99 0.66 1.98 1 3 C-0.109375 4.7890625 -0.109375 4.7890625 -1.75 6.625 C-2.28109375 7.23601562 -2.8121875 7.84703125 -3.359375 8.4765625 C-5 10 -5 10 -8 11 C-7.43040847 7.37386801 -6.07625466 5.74482259 -3.4375 3.25 C-2.79683594 2.63640625 -2.15617188 2.0228125 -1.49609375 1.390625 C-1.00238281 0.93171875 -0.50867188 0.4728125 0 0 Z " fill="#FCB72C" transform="translate(132,123)"/>
<path d="M0 0 C2.31 0.66 4.62 1.32 7 2 C7.66 1.34 8.32 0.68 9 0 C9 0.99 9 1.98 9 3 C9.3062434 4.33981486 9.63451555 5.67511887 10 7 C2.18363463 5.08277831 2.18363463 5.08277831 0 2 C0 1.34 0 0.68 0 0 Z " fill="#26190D" transform="translate(74,147)"/>
<path d="M0 0 C0.66 0 1.32 0 2 0 C2 0.99 2 1.98 2 3 C3.65 2.01 5.3 1.02 7 0 C7.66 1.65 8.32 3.3 9 5 C7.8553125 5.2165625 7.8553125 5.2165625 6.6875 5.4375 C3.91827092 5.9632594 3.91827092 5.9632594 1 7 C0.67 4.69 0.34 2.38 0 0 Z " fill="#1E1B14" transform="translate(43,77)"/>
<path d="M0 0 C8.25 0 16.5 0 25 0 C25 0.33 25 0.66 25 1 C16.75 1 8.5 1 0 1 C0 0.67 0 0.34 0 0 Z " fill="#000000" transform="translate(91,164)"/>
<path d="M0 0 C0.33 0.99 0.66 1.98 1 3 C-1.64 5.64 -4.28 8.28 -7 11 C-7.66 10.67 -8.32 10.34 -9 10 C-6.03 6.7 -3.06 3.4 0 0 Z " fill="#FBC35A" transform="translate(108,109)"/>
<path d="M0 0 C0 3.97378549 -1.34753657 5.12649795 -4 8 C-6.25 9.3125 -6.25 9.3125 -8 10 C-6.5682479 4.98886765 -4.01554307 3.05530451 0 0 Z " fill="#454545" transform="translate(125,79)"/>
<path d="M0 0 C0 3 0 3 -2 6 C-2.33 6.99 -2.66 7.98 -3 9 C-4.32 8.67 -5.64 8.34 -7 8 C-4.69 5.36 -2.38 2.72 0 0 Z " fill="#FCC65D" transform="translate(108,130)"/>
<path d="M0 0 C2.475 0.99 2.475 0.99 5 2 C3.68 2.99 2.36 3.98 1 5 C0.34 4.34 -0.32 3.68 -1 3 C-0.67 2.01 -0.34 1.02 0 0 Z " fill="#E9AA2C" transform="translate(109,109)"/>
<path d="M0 0 C-0.60183749 2.02045442 -1.27306096 4.02111039 -2 6 C-2.99 6.495 -2.99 6.495 -4 7 C-4.66 6.34 -5.32 5.68 -6 5 C-3.74193548 0 -3.74193548 0 0 0 Z " fill="#131110" transform="translate(78,75)"/>
<path d="M0 0 C1.32 0.33 2.64 0.66 4 1 C3 3 3 3 -0.0625 4.125 C-1.031875 4.41375 -2.00125 4.7025 -3 5 C-2.67 4.01 -2.34 3.02 -2 2 C-1.34 2 -0.68 2 0 2 C0 1.34 0 0.68 0 0 Z " fill="#323232" transform="translate(156,73)"/>
<path d="M0 0 C0.66 0 1.32 0 2 0 C2 4.62 2 9.24 2 14 C1.67 14 1.34 14 1 14 C0.67 9.38 0.34 4.76 0 0 Z " fill="#000000" transform="translate(139,91)"/>
<path d="M0 0 C0.33 0 0.66 0 1 0 C1 4.29 1 8.58 1 13 C0.67 13 0.34 13 0 13 C0 8.71 0 4.42 0 0 Z " fill="#1A0000" transform="translate(65,117)"/>
<path d="M0 0 C3.63 0 7.26 0 11 0 C11 0.33 11 0.66 11 1 C7.37 1 3.74 1 0 1 C0 0.67 0 0.34 0 0 Z " fill="#000000" transform="translate(40,134)"/>
<path d="M0 0 C0.33 0 0.66 0 1 0 C1.1953125 6.0546875 1.1953125 6.0546875 1 8 C0.34 8.66 -0.32 9.32 -1 10 C-0.67 6.7 -0.34 3.4 0 0 Z " fill="#0B0B00" transform="translate(141,125)"/>
<path d="M0 0 C0.33 0 0.66 0 1 0 C1 2.64 1 5.28 1 8 C0.67 8 0.34 8 0 8 C0 5.36 0 2.72 0 0 Z " fill="#000000" transform="translate(50,112)"/>
<path d="M0 0 C0.33 0 0.66 0 1 0 C1 2.31 1 4.62 1 7 C0.67 7 0.34 7 0 7 C0 4.69 0 2.38 0 0 Z " fill="#120000" transform="translate(141,115)"/>
<path d="M0 0 C0.33 0 0.66 0 1 0 C1 1.98 1 3.96 1 6 C0.67 6 0.34 6 0 6 C0 4.02 0 2.04 0 0 Z " fill="#000000" transform="translate(39,124)"/>
<path d="M0 0 C0.33 0 0.66 0 1 0 C1 1.65 1 3.3 1 5 C0.67 5 0.34 5 0 5 C0 3.35 0 1.7 0 0 Z " fill="#000000" transform="translate(52,127)"/>
<path d="M0 0 C4 1 4 1 4 1 Z " fill="#000000" transform="translate(102,39)"/>
<path d="" fill="#000000" transform="translate(0,0)"/>
<path d="" fill="#000000" transform="translate(0,0)"/>
<path d="" fill="#000000" transform="translate(0,0)"/>
<path d="" fill="#000000" transform="translate(0,0)"/>
<path d="" fill="#000000" transform="translate(0,0)"/>
<path d="M0 0 C2 1 2 1 2 1 Z " fill="#000000" transform="translate(118,158)"/>
<path d="M0 0 C2 1 2 1 2 1 Z " fill="#000000" transform="translate(87,158)"/>
<path d="M0 0 C2 1 2 1 2 1 Z " fill="#000000" transform="translate(120,157)"/>
<path d="M0 0 C2 1 2 1 2 1 Z " fill="#000000" transform="translate(85,157)"/>
<path d="M0 0 C2 1 2 1 2 1 Z " fill="#000000" transform="translate(122,156)"/>
<path d="M0 0 C2 1 2 1 2 1 Z " fill="#000000" transform="translate(82,155)"/>
<path d="" fill="#2A0000" transform="translate(0,0)"/>
<path d="" fill="#000000" transform="translate(0,0)"/>
<path d="" fill="#000000" transform="translate(0,0)"/>
<path d="M0 0 C2 1 2 1 2 1 Z " fill="#000000" transform="translate(141,90)"/>
<path d="M0 0 C2 1 2 1 2 1 Z " fill="#000000" transform="translate(64,90)"/>
<path d="M0 0 C2 1 2 1 2 1 Z " fill="#000000" transform="translate(143,89)"/>
<path d="M0 0 C2 1 2 1 2 1 Z " fill="#000000" transform="translate(62,89)"/>
<path d="M0 0 C2 1 2 1 2 1 Z " fill="#000000" transform="translate(145,88)"/>
<path d="M0 0 C2 1 2 1 2 1 Z " fill="#000000" transform="translate(60,88)"/>
<path d="M0 0 C2 1 2 1 2 1 Z " fill="#000000" transform="translate(147,87)"/>
<path d="M0 0 C2 1 2 1 2 1 Z " fill="#000000" transform="translate(58,87)"/>
<path d="M0 0 C2 1 2 1 2 1 Z " fill="#000000" transform="translate(149,86)"/>
<path d="M0 0 C2 1 2 1 2 1 Z " fill="#000000" transform="translate(56,86)"/>
<path d="M0 0 C2 1 2 1 2 1 Z " fill="#000000" transform="translate(151,85)"/>
<path d="M0 0 C2 1 2 1 2 1 Z " fill="#000000" transform="translate(54,85)"/>
<path d="M0 0 C2 1 2 1 2 1 Z " fill="#000000" transform="translate(153,84)"/>
<path d="M0 0 C2 1 2 1 2 1 Z " fill="#000000" transform="translate(52,84)"/>
<path d="M0 0 C2 1 2 1 2 1 Z " fill="#000000" transform="translate(155,83)"/>
<path d="M0 0 C2 1 2 1 2 1 Z " fill="#000000" transform="translate(157,82)"/>
<path d="M0 0 C2 1 2 1 2 1 Z " fill="#000000" transform="translate(159,81)"/>
<path d="M0 0 C2 1 2 1 2 1 Z " fill="#000000" transform="translate(161,80)"/>
<path d="M0 0 C2 1 2 1 2 1 Z " fill="#000000" transform="translate(163,79)"/>
<path d="M0 0 C2 1 2 1 2 1 Z " fill="#000000" transform="translate(165,78)"/>
<path d="M0 0 C2 1 2 1 2 1 Z " fill="#000000" transform="translate(165,70)"/>
<path d="M0 0 C2 1 2 1 2 1 Z " fill="#000000" transform="translate(40,70)"/>
<path d="M0 0 C2 1 2 1 2 1 Z " fill="#000000" transform="translate(163,69)"/>
<path d="M0 0 C2 1 2 1 2 1 Z " fill="#000000" transform="translate(42,69)"/>
<path d="M0 0 C2 1 2 1 2 1 Z " fill="#000000" transform="translate(161,68)"/>
<path d="M0 0 C2 1 2 1 2 1 Z " fill="#000000" transform="translate(44,68)"/>
<path d="M0 0 C2 1 2 1 2 1 Z " fill="#000000" transform="translate(159,67)"/>
<path d="M0 0 C2 1 2 1 2 1 Z " fill="#000000" transform="translate(46,67)"/>
<path d="M0 0 C2 1 2 1 2 1 Z " fill="#000000" transform="translate(157,66)"/>
<path d="M0 0 C2 1 2 1 2 1 Z " fill="#000000" transform="translate(48,66)"/>
<path d="M0 0 C2 1 2 1 2 1 Z " fill="#000000" transform="translate(155,65)"/>
<path d="M0 0 C2 1 2 1 2 1 Z " fill="#000000" transform="translate(50,65)"/>
<path d="M0 0 C2 1 2 1 2 1 Z " fill="#000000" transform="translate(153,64)"/>
<path d="M0 0 C2 1 2 1 2 1 Z " fill="#000000" transform="translate(52,64)"/>
<path d="M0 0 C2 1 2 1 2 1 Z " fill="#000000" transform="translate(151,63)"/>
<path d="M0 0 C2 1 2 1 2 1 Z " fill="#000000" transform="translate(54,63)"/>
<path d="M0 0 C2 1 2 1 2 1 Z " fill="#000000" transform="translate(149,62)"/>
<path d="M0 0 C2 1 2 1 2 1 Z " fill="#000000" transform="translate(56,62)"/>
<path d="M0 0 C2 1 2 1 2 1 Z " fill="#000000" transform="translate(147,61)"/>
<path d="M0 0 C2 1 2 1 2 1 Z " fill="#000000" transform="translate(58,61)"/>
<path d="M0 0 C2 1 2 1 2 1 Z " fill="#000000" transform="translate(145,60)"/>
<path d="M0 0 C2 1 2 1 2 1 Z " fill="#000000" transform="translate(60,60)"/>
<path d="M0 0 C2 1 2 1 2 1 Z " fill="#000000" transform="translate(143,59)"/>
<path d="M0 0 C2 1 2 1 2 1 Z " fill="#000000" transform="translate(62,59)"/>
<path d="M0 0 C2 1 2 1 2 1 Z " fill="#000000" transform="translate(141,58)"/>
<path d="M0 0 C2 1 2 1 2 1 Z " fill="#000000" transform="translate(64,58)"/>
<path d="M0 0 C2 1 2 1 2 1 Z " fill="#000000" transform="translate(139,57)"/>
<path d="M0 0 C2 1 2 1 2 1 Z " fill="#000000" transform="translate(66,57)"/>
<path d="M0 0 C2 1 2 1 2 1 Z " fill="#000000" transform="translate(137,56)"/>
<path d="M0 0 C2 1 2 1 2 1 Z " fill="#000000" transform="translate(68,56)"/>
<path d="M0 0 C2 1 2 1 2 1 Z " fill="#000000" transform="translate(70,55)"/>
<path d="M0 0 C2 1 2 1 2 1 Z " fill="#000000" transform="translate(133,54)"/>
<path d="M0 0 C2 1 2 1 2 1 Z " fill="#000000" transform="translate(72,54)"/>
<path d="M0 0 C2 1 2 1 2 1 Z " fill="#000000" transform="translate(74,53)"/>
<path d="M0 0 C2 1 2 1 2 1 Z " fill="#000000" transform="translate(129,52)"/>
<path d="M0 0 C2 1 2 1 2 1 Z " fill="#000000" transform="translate(76,52)"/>
<path d="M0 0 C2 1 2 1 2 1 Z " fill="#000000" transform="translate(127,51)"/>
<path d="M0 0 C2 1 2 1 2 1 Z " fill="#000000" transform="translate(78,51)"/>
<path d="M0 0 C2 1 2 1 2 1 Z " fill="#000000" transform="translate(80,50)"/>
<path d="M0 0 C2 1 2 1 2 1 Z " fill="#000000" transform="translate(82,49)"/>
<path d="M0 0 C2 1 2 1 2 1 Z " fill="#000000" transform="translate(122,48)"/>
<path d="M0 0 C2 1 2 1 2 1 Z " fill="#000000" transform="translate(84,48)"/>
<path d="M0 0 C2 1 2 1 2 1 Z " fill="#000000" transform="translate(86,47)"/>
<path d="M0 0 C2 1 2 1 2 1 Z " fill="#000000" transform="translate(118,46)"/>
<path d="M0 0 C2 1 2 1 2 1 Z " fill="#000000" transform="translate(88,46)"/>
<path d="M0 0 C2 1 2 1 2 1 Z " fill="#000000" transform="translate(116,45)"/>
<path d="M0 0 C2 1 2 1 2 1 Z " fill="#000000" transform="translate(90,45)"/>
<path d="M0 0 C2 1 2 1 2 1 Z " fill="#000000" transform="translate(114,44)"/>
<path d="M0 0 C2 1 2 1 2 1 Z " fill="#000000" transform="translate(92,44)"/>
<path d="M0 0 C2 1 2 1 2 1 Z " fill="#000000" transform="translate(94,43)"/>
<path d="M0 0 C2 1 2 1 2 1 Z " fill="#000000" transform="translate(110,42)"/>
<path d="M0 0 C2 1 2 1 2 1 Z " fill="#000000" transform="translate(96,42)"/>
<path d="M0 0 C2 1 2 1 2 1 Z " fill="#000000" transform="translate(108,41)"/>
<path d="M0 0 C2 1 2 1 2 1 Z " fill="#000000" transform="translate(98,41)"/>
<path d="M0 0 C2 1 2 1 2 1 Z " fill="#000000" transform="translate(106,40)"/>
<path d="M0 0 C2 1 2 1 2 1 Z " fill="#000000" transform="translate(100,40)"/>
<path d="" fill="#000000" transform="translate(0,0)"/>
<path d="" fill="#000000" transform="translate(0,0)"/>
<path d="" fill="#000000" transform="translate(0,0)"/>
<path d="" fill="#000000" transform="translate(0,0)"/>
<path d="" fill="#000000" transform="translate(0,0)"/>
<path d="" fill="#000000" transform="translate(0,0)"/>
<path d="" fill="#000000" transform="translate(0,0)"/>
<path d="" fill="#000000" transform="translate(0,0)"/>
<path d="" fill="#000000" transform="translate(0,0)"/>
<path d="" fill="#000000" transform="translate(0,0)"/>
<path d="" fill="#000000" transform="translate(0,0)"/>
<path d="" fill="#000000" transform="translate(0,0)"/>
<path d="" fill="#000000" transform="translate(0,0)"/>
<path d="" fill="#000000" transform="translate(0,0)"/>
<path d="" fill="#000000" transform="translate(0,0)"/>
<path d="" fill="#000000" transform="translate(0,0)"/>
<path d="" fill="#000000" transform="translate(0,0)"/>
<path d="" fill="#000000" transform="translate(0,0)"/>
<path d="" fill="#000000" transform="translate(0,0)"/>
<path d="" fill="#000000" transform="translate(0,0)"/>
<path d="" fill="#000000" transform="translate(0,0)"/>
<path d="" fill="#000000" transform="translate(0,0)"/>
<path d="" fill="#000000" transform="translate(0,0)"/>
<path d="" fill="#000000" transform="translate(0,0)"/>
<path d="" fill="#000000" transform="translate(0,0)"/>
</svg>
