<?xml version="1.0" standalone="no"?>
<!DOCTYPE svg PUBLIC "-//W3C//DTD SVG 20010904//EN"
 "http://www.w3.org/TR/2001/REC-SVG-20010904/DTD/svg10.dtd">
<svg version="1.0" xmlns="http://www.w3.org/2000/svg"
 width="4096.000000pt" height="2672.000000pt" viewBox="0 0 4096.000000 2672.000000"
 preserveAspectRatio="xMidYMid meet">

<g transform="translate(0.000000,2672.000000) scale(0.100000,-0.100000)"
fill="#000000" stroke="none">
<path d="M0 13360 l0 -13360 20480 0 20480 0 0 13360 0 13360 -20480 0 -20480
0 0 -13360z m11770 3370 c310 -27 758 -149 1070 -292 182 -83 553 -318 730
-462 146 -119 363 -353 478 -516 25 -36 81 -113 124 -172 158 -217 228 -340
327 -580 184 -447 271 -849 271 -1255 0 -470 -86 -924 -246 -1311 -77 -185
-116 -262 -238 -465 -159 -265 -153 -246 -101 -332 19 -32 38 -74 41 -93 19
-101 -32 -252 -108 -317 -60 -50 -188 -95 -188 -65 0 6 7 10 15 10 8 0 15 5
15 11 0 5 4 8 9 5 14 -9 111 53 151 96 45 48 86 169 75 225 -9 48 -64 163 -77
163 -7 0 -8 16 -5 40 5 40 32 88 143 260 64 99 175 321 232 465 151 384 223
731 248 1205 11 200 -32 550 -104 850 -80 331 -236 700 -399 940 -227 335
-297 421 -505 626 -190 186 -526 435 -755 560 -273 149 -672 282 -1038 346
-120 21 -159 23 -530 23 l-400 0 -202 -42 c-361 -76 -581 -149 -878 -293 -136
-66 -410 -240 -590 -375 -216 -162 -447 -421 -722 -810 -218 -309 -404 -808
-484 -1300 -36 -220 -35 -727 2 -953 15 -96 57 -301 85 -417 111 -461 429
-1013 821 -1425 249 -262 640 -538 988 -699 287 -132 517 -202 862 -262 177
-31 180 -31 548 -32 339 0 381 2 500 22 331 58 677 166 928 293 262 131 512
298 722 481 50 43 95 82 102 88 18 13 33 11 33 -5 0 -16 24 -28 44 -20 8 3 17
0 22 -7 5 -9 2 -10 -10 -6 -15 6 -14 2 4 -23 12 -17 22 -30 23 -30 1 0 20 -7
42 -15 24 -8 32 -14 19 -15 -23 0 -100 47 -128 78 -22 25 -41 28 -53 8 -20
-33 -223 -200 -344 -283 -374 -253 -631 -380 -974 -478 -318 -91 -536 -124
-874 -132 -274 -7 -424 4 -646 44 -448 81 -828 226 -1195 457 -92 58 -341 238
-432 313 -96 80 -289 280 -383 398 -325 409 -523 788 -645 1237 -92 336 -114
514 -114 928 -1 355 12 478 79 745 101 404 230 693 469 1055 195 295 312 441
500 624 127 124 348 286 611 446 355 217 900 399 1310 439 119 12 593 12 725
1z m80 -548 c578 -114 940 -274 1335 -588 126 -101 340 -312 434 -429 294
-366 530 -915 596 -1385 47 -333 17 -792 -70 -1107 -99 -353 -278 -733 -448
-950 -142 -181 -370 -419 -507 -529 -269 -216 -564 -375 -918 -493 -230 -77
-553 -131 -784 -131 -486 0 -821 69 -1242 255 -349 155 -615 344 -861 615
-169 185 -219 248 -323 405 -235 356 -375 730 -448 1200 -25 160 -23 442 5
660 31 247 146 695 178 695 7 0 24 -7 36 -15 12 -8 31 -14 42 -13 11 0 35 -3
53 -7 21 -5 32 -4 32 3 0 6 12 18 28 26 15 8 26 18 24 23 -4 11 40 105 55 118
6 6 16 26 21 45 7 25 10 29 11 13 2 -56 -89 -229 -115 -219 -8 3 -13 0 -11 -7
1 -9 -23 -12 -87 -12 -105 0 -89 24 -151 -220 -109 -424 -134 -763 -81 -1092
65 -402 163 -712 315 -990 275 -505 762 -959 1267 -1184 321 -142 484 -192
794 -240 123 -20 183 -23 400 -23 218 0 274 3 385 22 344 59 550 125 877 281
185 88 464 284 636 446 132 125 367 410 457 555 215 348 351 754 400 1190 59
530 -57 1131 -307 1600 -137 255 -348 532 -548 717 -284 264 -598 461 -910
571 -378 134 -644 185 -962 184 -499 -3 -931 -103 -1349 -313 -266 -133 -621
-426 -830 -684 -55 -68 -236 -327 -268 -383 -7 -12 -13 -14 -20 -7 -21 20 42
120 234 372 303 397 785 739 1274 903 190 64 513 128 716 144 28 2 158 2 290
1 196 -2 259 -6 345 -23z m-219 -852 c495 -49 898 -258 1240 -643 245 -277
406 -615 489 -1029 20 -100 30 -129 60 -163 23 -26 33 -86 20 -119 -5 -15 -22
-31 -37 -37 -27 -9 -28 -12 -30 -82 -5 -214 -103 -556 -225 -784 -122 -228
-304 -439 -548 -635 -125 -100 -190 -140 -341 -212 -211 -101 -391 -151 -664
-186 -132 -17 -174 -18 -292 -10 -245 17 -396 47 -573 115 -313 120 -555 287
-782 540 -113 126 -198 254 -282 421 -156 314 -215 609 -203 1004 5 157 11
204 36 310 83 349 283 700 556 975 186 187 474 365 727 448 252 84 561 115
849 87z m4832 -467 c-29 -2 -77 -2 -105 0 -29 2 -6 3 52 3 58 0 81 -1 53 -3z
m5277 3 c0 -2 -9 -6 -20 -9 -11 -3 -18 -1 -14 4 5 9 34 13 34 5z m138 -3 c-21
-2 -57 -2 -80 0 -24 2 -7 4 37 4 44 0 63 -2 43 -4z m-5688 -7 c0 -2 -7 -7 -16
-10 -8 -3 -12 -2 -9 4 6 10 25 14 25 6z m3393 -3 c-7 -2 -21 -2 -30 0 -10 3
-4 5 12 5 17 0 24 -2 18 -5z m9540 0 c-7 -2 -19 -2 -25 0 -7 3 -2 5 12 5 14 0
19 -2 13 -5z m1815 0 c-27 -2 -69 -2 -95 0 -27 2 -5 3 47 3 52 0 74 -1 48 -3z
m-11498 -29 c-52 -13 -96 -28 -98 -34 -2 -5 -36 -19 -75 -31 -89 -26 -110 -35
-167 -73 -25 -17 -39 -22 -31 -13 23 28 121 83 201 112 94 34 207 64 240 64
14 0 -18 -11 -70 -25z m647 20 c-3 -3 -12 -4 -19 -1 -8 3 -5 6 6 6 11 1 17 -2
13 -5z m130 0 c-3 -3 -12 -4 -19 -1 -8 3 -5 6 6 6 11 1 17 -2 13 -5z m8396 -1
c3 -5 -14 -7 -36 -5 -58 5 -385 -106 -407 -137 -8 -11 -120 -73 -120 -66 0 3
-20 -8 -45 -25 -26 -18 -43 -36 -39 -42 4 -6 3 -8 -3 -5 -13 8 -36 -17 -26
-27 4 -4 -1 -4 -12 0 -14 6 -17 4 -12 -9 4 -10 2 -14 -6 -11 -11 4 -45 -32
-172 -181 -14 -16 -39 -51 -56 -77 -32 -50 -49 -65 -28 -25 61 112 274 342
381 410 115 73 261 137 412 182 80 24 160 32 169 18z m580 0 c-7 -2 -21 -2
-30 0 -10 3 -4 5 12 5 17 0 24 -2 18 -5z m-8824 -33 c23 -6 41 -13 39 -15 -5
-6 -108 22 -117 31 -3 3 3 4 14 1 11 -3 40 -11 64 -17z m8979 -11 c108 -35
275 -118 367 -184 190 -135 413 -456 461 -662 12 -55 13 -67 0 -97 -22 -53
-55 -69 -155 -74 -97 -5 -108 2 -16 11 33 3 74 11 90 18 17 7 33 12 38 11 4
-1 7 4 7 12 0 7 7 19 15 26 19 16 14 71 -9 115 -9 17 -13 38 -10 49 4 11 2 16
-4 12 -12 -7 -24 22 -15 37 3 7 3 9 -2 5 -9 -9 -35 36 -35 61 0 18 -71 144
-99 176 -10 11 -30 41 -44 66 -25 43 -199 219 -218 219 -4 0 -27 13 -51 29
-80 54 -253 138 -325 159 -65 18 -119 41 -100 42 5 0 52 -14 105 -31z m-5961
15 c-3 -3 -12 -4 -19 -1 -8 3 -5 6 6 6 11 1 17 -2 13 -5z m-14452 -34 l20 -9
-20 0 c-11 0 -27 4 -35 9 -13 9 -13 10 0 9 8 0 24 -4 35 -9z m11572 -20 c147
-67 270 -169 375 -311 102 -137 179 -405 149 -517 -20 -72 -35 -76 -264 -80
-109 -2 -209 -1 -221 2 -18 4 -34 30 -72 118 -73 170 -149 243 -336 323 -47
20 -93 44 -102 53 -8 10 48 -13 125 -50 126 -61 147 -75 212 -141 40 -41 80
-89 89 -108 9 -19 33 -69 52 -111 l36 -77 165 0 c91 0 165 4 165 8 0 5 8 8 18
8 49 0 64 5 84 28 11 13 24 22 29 20 4 -3 10 16 14 43 6 47 -19 201 -34 212
-5 3 -11 22 -14 42 -19 123 -199 364 -337 453 -56 36 -163 91 -210 108 -9 3
-10 6 -2 6 7 1 42 -13 79 -29z m5538 -50 c22 -42 18 -51 -5 -12 -20 33 -24 42
-15 42 2 0 11 -13 20 -30z m-16975 -41 c5 -8 5 -21 1 -28 -6 -10 -12 -8 -24 9
-9 12 -13 28 -11 35 3 7 1 16 -5 20 -6 3 -11 12 -11 18 0 12 31 -22 50 -54z
m21687 -123 c-1 -105 2 -148 12 -160 7 -8 10 -19 7 -25 -7 -11 19 -22 38 -15
8 3 17 1 20 -4 5 -8 565 -14 1692 -16 l301 -1 39 26 c35 23 41 34 54 90 l14
64 4 -42 c4 -57 -28 -130 -63 -143 -34 -13 -1883 -13 -2015 0 -72 7 -98 13
-108 27 -15 20 -17 343 -2 343 5 0 8 -65 7 -144z m-11707 111 c0 -1 -22 -25
-50 -52 -27 -27 -50 -46 -50 -43 0 6 92 98 98 98 1 0 2 -1 2 -3z m7070 -110
c23 -54 40 -100 38 -103 -3 -3 -25 41 -49 98 -54 126 -54 126 -41 113 5 -5 29
-54 52 -108z m-7803 -21 c-4 -66 -13 -130 -21 -151 -30 -71 27 -67 -1081 -63
-1048 5 -1046 5 -1061 51 -10 31 -12 158 -3 187 5 16 8 -6 8 -61 1 -109 18
-148 64 -150 18 -1 300 -3 627 -4 327 -2 612 -5 633 -8 20 -3 37 -2 37 3 0 12
53 9 69 -4 12 -8 13 -8 7 2 -6 10 -1 11 21 5 21 -5 448 -8 580 -4 34 1 95 59
87 83 -3 10 0 26 6 34 7 8 15 55 18 104 2 50 7 90 10 90 3 0 2 -51 -1 -114z
m3370 92 c-3 -8 -6 -5 -6 6 -1 11 2 17 5 13 3 -3 4 -12 1 -19z m3634 -5 c-12
-20 -14 -14 -5 12 4 9 9 14 11 11 3 -2 0 -13 -6 -23z m3626 -65 c-2 -13 -4 -3
-4 22 0 25 2 35 4 23 2 -13 2 -33 0 -45z m-10007 -1 c0 -2 -10 -12 -21 -23
-22 -19 -22 -19 -8 4 12 19 29 30 29 19z m4871 -14 c13 -16 12 -17 -3 -4 -17
13 -22 21 -14 21 2 0 10 -8 17 -17z m-2124 -45 c-2 -13 -4 -5 -4 17 -1 22 1
32 4 23 2 -10 2 -28 0 -40z m2228 -109 c36 -68 68 -149 59 -149 -2 0 -11 18
-20 40 -9 22 -20 40 -25 40 -5 0 -9 12 -9 26 0 14 -4 23 -8 20 -4 -2 -8 4 -9
14 -1 11 -20 47 -43 82 -33 50 -35 56 -11 29 17 -19 46 -65 66 -102z m5032 64
c-2 -16 -4 -5 -4 22 0 28 2 40 4 28 2 -13 2 -35 0 -50z m-9219 -69 c-13 -12
-81 -44 -153 -70 -158 -59 -211 -93 -248 -159 -15 -27 -25 -39 -21 -25 4 14
16 39 27 55 45 65 85 89 287 173 112 46 115 48 120 82 l4 35 4 -34 c3 -26 -2
-40 -20 -57z m-10993 46 c10 -11 16 -20 13 -20 -3 0 -13 9 -23 20 -10 11 -16
20 -13 20 3 0 13 -9 23 -20z m19936 -78 c-6 -11 -69 -50 -140 -86 -71 -37
-164 -93 -207 -125 -127 -93 -155 -130 -253 -341 l-11 -25 5 25 c13 54 107
231 143 266 79 77 195 156 331 224 36 18 71 38 78 46 8 8 20 14 28 14 13 0 23
27 27 70 1 15 3 11 5 -12 2 -20 0 -46 -6 -56z m-6961 28 c6 0 9 -4 6 -9 -8
-12 20 -22 39 -15 8 4 15 2 15 -3 0 -6 21 -10 48 -10 26 -1 310 -3 632 -6 528
-5 721 -14 739 -34 3 -3 -10 -3 -29 1 -19 3 -298 8 -620 11 -641 6 -786 9
-813 20 -19 8 -47 55 -46 77 0 7 4 3 9 -9 5 -13 14 -23 20 -23z m4545 -149
c25 -57 44 -106 41 -108 -3 -3 -11 7 -17 23 -7 16 -27 62 -46 102 -18 41 -33
78 -33 83 0 5 -4 9 -8 9 -5 0 -9 6 -9 13 0 6 -3 23 -7 37 -8 32 22 -28 79
-159z m2779 115 c40 -18 103 -43 139 -55 71 -24 192 -104 270 -180 50 -48 129
-152 197 -258 l40 -62 128 -4 127 -3 -131 -2 c-153 -2 -130 -16 -235 143 -77
118 -179 227 -270 288 -31 21 -104 56 -163 77 -132 48 -190 79 -194 105 -2 18
-2 18 8 3 6 -10 44 -33 84 -52z m-5763 -72 c29 -14 149 -141 149 -156 0 -6
-20 14 -44 44 -48 60 -95 99 -147 122 -22 10 -25 14 -9 10 14 -4 37 -13 51
-20z m737 -124 c0 -8 -6 -1 -13 15 -8 17 -14 39 -14 50 0 13 5 8 14 -15 7 -19
13 -42 13 -50z m2392 -265 c98 -239 194 -461 295 -685 54 -118 101 -225 106
-237 15 -40 0 -25 -22 22 -12 25 -24 45 -28 45 -4 0 -7 10 -8 22 -1 11 -7 24
-13 28 -7 4 -11 10 -9 14 4 12 -24 76 -33 76 -4 0 -8 9 -8 21 0 11 -4 17 -10
14 -10 -6 -14 15 -11 44 2 8 -2 10 -10 5 -8 -4 -10 -3 -5 4 4 6 -4 35 -17 64
-13 29 -39 88 -57 131 -19 42 -38 77 -42 77 -5 0 -7 4 -4 9 3 5 -1 11 -9 15
-9 3 -15 18 -15 39 0 21 -8 41 -20 52 -12 11 -20 31 -20 50 0 17 -4 35 -8 41
-5 5 -19 36 -32 69 -13 33 -27 64 -32 70 -4 5 -8 15 -8 22 0 18 -42 106 -54
115 -6 4 -8 8 -3 8 4 0 0 16 -8 36 -8 20 -15 42 -14 48 1 14 25 -40 99 -219z
m-7109 184 c-5 -13 -10 -19 -10 -12 -1 15 10 45 15 40 3 -2 0 -15 -5 -28z
m8262 -34 c-3 -9 -8 -14 -10 -11 -3 3 -2 9 2 15 9 16 15 13 8 -4z m-2475 -17
c-6 -13 -13 -28 -14 -33 -2 -13 -44 -82 -44 -73 0 17 54 128 62 128 5 0 3 -10
-4 -22z m-1031 -90 c-3 -8 -6 -5 -6 6 -1 11 2 17 5 13 3 -3 4 -12 1 -19z
m1729 0 c7 -22 30 -75 101 -228 72 -154 237 -544 333 -785 26 -66 64 -159 84
-207 36 -87 48 -136 21 -88 -7 15 -46 105 -85 200 -96 235 -134 325 -190 455
-27 61 -64 148 -83 195 -19 47 -67 157 -107 244 -82 182 -103 236 -90 236 5 0
12 -10 16 -22z m1744 -17 c0 -6 -4 -13 -10 -16 -5 -3 -10 1 -10 9 0 9 5 16 10
16 6 0 10 -4 10 -9z m-4033 -33 c-3 -8 -6 -5 -6 6 -1 11 2 17 5 13 3 -3 4 -12
1 -19z m2099 -84 c-123 -291 -220 -514 -223 -511 -4 5 51 138 157 382 45 105
84 196 87 203 3 7 7 11 9 9 2 -2 -11 -39 -30 -83z m-6817 39 c-1 -38 -1 -38
-9 -9 -8 27 -6 46 6 46 2 0 4 -17 3 -37z m6241 20 c0 -14 -19 -38 -25 -32 -8
8 5 39 16 39 5 0 9 -3 9 -7z m-59 -110 c-12 -20 -14 -14 -5 12 4 9 9 14 11 11
3 -2 0 -13 -6 -23z m3103 -7 c-3 -15 -8 -25 -11 -23 -2 3 -1 17 3 31 3 15 8
25 11 23 2 -3 1 -17 -3 -31z m-9247 -18 c11 -18 22 -42 26 -53 6 -16 3 -15
-13 5 -18 23 -43 80 -35 80 1 0 12 -15 22 -32z m5230 0 c-3 -7 -5 -2 -5 12 0
14 2 19 5 13 2 -7 2 -19 0 -25z m3433 -53 c-7 -41 -16 -72 -20 -70 -4 2 -3 28
1 57 12 75 19 101 26 94 3 -3 0 -39 -7 -81z m550 -60 c-10 -50 -19 -80 -19
-67 -1 27 29 165 35 160 2 -2 -5 -44 -16 -93z m2945 85 c-55 -3 -107 -2 -115
2 -8 4 37 7 100 6 l115 -2 -100 -6z m1553 3 c-16 -2 -40 -2 -55 0 -16 2 -3 4
27 4 30 0 43 -2 28 -4z m-8491 -25 c-3 -8 -6 -5 -6 6 -1 11 2 17 5 13 3 -3 4
-12 1 -19z m6748 12 c-3 -5 -11 -10 -16 -10 -6 0 -7 5 -4 10 3 6 11 10 16 10
6 0 7 -4 4 -10z m1950 -10 c3 -6 -1 -7 -9 -4 -18 7 -21 14 -7 14 6 0 13 -4 16
-10z m-16282 -7 c-7 -2 -19 -2 -25 0 -7 3 -2 5 12 5 14 0 19 -2 13 -5z m1540
0 c-7 -2 -21 -2 -30 0 -10 3 -4 5 12 5 17 0 24 -2 18 -5z m2104 1 c-3 -3 -12
-4 -19 -1 -8 3 -5 6 6 6 11 1 17 -2 13 -5z m50 -10 c-3 -3 -12 -4 -19 -1 -8 3
-5 6 6 6 11 1 17 -2 13 -5z m-1169 -137 c163 -125 360 -216 612 -282 271 -71
647 -174 688 -189 64 -23 205 -102 228 -128 44 -49 64 -95 64 -147 0 -28 -4
-51 -10 -51 -5 0 -10 25 -10 55 0 88 -33 133 -140 193 -102 57 -203 90 -555
182 -192 50 -397 107 -455 126 -114 38 -251 106 -358 177 -67 45 -166 138
-185 173 -5 11 7 0 27 -24 21 -23 63 -62 94 -85z m5049 101 c-3 -8 -6 -5 -6 6
-1 11 2 17 5 13 3 -3 4 -12 1 -19z m-3600 -43 c284 -93 479 -228 582 -403 49
-82 99 -227 106 -308 l5 -59 -14 71 c-14 75 -36 144 -46 144 -3 0 -6 11 -6 24
-1 13 -17 55 -35 92 -65 132 -233 279 -408 356 -36 16 -75 33 -86 38 -11 5
-83 30 -160 55 -77 25 -124 42 -105 39 19 -3 94 -26 167 -49z m7030 -42 c-3
-10 -5 -2 -5 17 0 19 2 27 5 18 2 -10 2 -26 0 -35z m3307 -118 c3 -82 10 -166
16 -186 12 -43 47 -63 84 -49 15 5 47 6 83 0 102 -16 202 -22 463 -26 536 -8
1097 -6 1189 4 88 10 97 14 129 45 27 28 36 47 48 108 l14 74 -5 -66 c-7 -93
-31 -158 -64 -172 -30 -14 -1688 -16 -1854 -3 -89 7 -99 10 -107 30 -11 29
-17 407 -6 395 2 -2 6 -71 10 -154z m-7414 141 c0 -2 -8 -10 -17 -17 -16 -13
-17 -12 -4 4 13 16 21 21 21 13z m597 -140 c-121 -244 -332 -405 -617 -472
-150 -35 -287 -44 -679 -44 -517 0 -504 8 39 24 496 15 645 31 729 74 20 11
52 22 71 26 19 4 55 18 80 31 25 13 61 31 80 40 19 9 80 62 135 118 91 92 107
113 156 213 30 61 56 109 58 107 3 -2 -21 -54 -52 -117z m-637 110 c0 -7 -45
-33 -70 -40 -14 -4 -5 4 20 18 51 28 50 27 50 22z m-1331 -76 c-130 -4 -242
-10 -250 -15 -10 -5 -11 -5 -4 3 16 17 49 19 275 19 l215 0 -236 -7z m299 3
c-10 -2 -28 -2 -40 0 -13 2 -5 4 17 4 22 1 32 -1 23 -4z m165 0 c-7 -2 -19 -2
-25 0 -7 3 -2 5 12 5 14 0 19 -2 13 -5z m150 0 c-13 -2 -35 -2 -50 0 -16 2 -5
4 22 4 28 0 40 -2 28 -4z m100 0 c-13 -2 -35 -2 -50 0 -16 2 -5 4 22 4 28 0
40 -2 28 -4z m4764 -50 c-3 -10 -5 -4 -5 12 0 17 2 24 5 18 2 -7 2 -21 0 -30z
m-9300 -135 c-3 -7 -5 -2 -5 12 0 14 2 19 5 13 2 -7 2 -19 0 -25z m-1992 -138
c0 -83 -3 -150 -7 -150 -3 0 -7 68 -7 150 -1 83 2 150 6 150 5 0 8 -68 8 -150z
m9200 118 c-13 -40 -78 -188 -82 -184 -2 2 15 49 39 105 41 96 57 127 43 79z
m-7220 -48 c-4 -17 -9 -30 -11 -27 -2 2 -1 18 2 36 4 17 9 30 11 27 3 -2 2
-19 -2 -36z m3548 -41 c-5 -5 -7 7 -4 29 5 34 6 35 9 8 2 -16 0 -32 -5 -37z
m-3581 -32 l-23 -22 -677 -1 c-372 -1 -650 1 -617 3 44 4 55 7 40 13 -28 12
-9 12 679 14 485 1 600 4 604 14 2 7 7 11 10 7 3 -3 -4 -16 -16 -28z m9378
-53 c0 -8 -4 -14 -8 -14 -4 0 -8 9 -8 19 0 11 4 17 8 15 4 -3 8 -12 8 -20z
m567 -16 c-3 -8 -6 -5 -6 6 -1 11 2 17 5 13 3 -3 4 -12 1 -19z m-11350 -565
c-1 -104 -2 -19 -2 187 0 206 1 291 2 188 2 -104 2 -272 0 -375z m8523 425
c-49 -120 -94 -188 -122 -188 -7 0 0 10 15 21 30 23 64 85 117 216 18 46 35
81 37 79 2 -2 -19 -60 -47 -128z m2273 42 c-4 -10 -9 -3 -13 20 -8 48 2 75 12
30 4 -19 4 -42 1 -50z m581 30 c5 -17 4 -20 -2 -10 -5 8 -13 26 -16 40 -5 17
-4 20 2 10 5 -8 13 -26 16 -40z m-9255 6 c-2 -2 -26 -6 -53 -9 -30 -3 -43 -1
-35 4 13 8 97 13 88 5z m332 -13 c11 -13 11 -15 1 -9 -8 5 -26 12 -40 16 l-27
8 26 1 c15 1 33 -7 40 -16z m10889 7 c29 -5 3 -6 -70 -2 -63 2 -155 1 -203 -3
-79 -6 -92 -10 -125 -38 l-37 -31 34 36 c19 21 46 39 60 41 48 7 296 6 341 -3z
m110 -30 c13 -8 13 -10 -2 -10 -9 0 -20 5 -23 10 -8 13 5 13 25 0z m-11460 -4
c0 -2 -8 -10 -17 -17 -16 -13 -17 -12 -4 4 13 16 21 21 21 13z m9414 -33 c9
-18 14 -33 12 -33 -6 0 -36 55 -36 66 0 11 5 3 24 -33z m2084 -24 c-3 -20 -5
-19 -9 9 -3 20 -2 29 4 23 5 -5 7 -19 5 -32z m-5585 -36 c-6 -58 -23 -82 -23
-32 0 42 10 79 20 79 4 0 5 -21 3 -47z m2253 -50 c-4 -4 -36 73 -35 85 0 4 9
-13 20 -37 11 -24 18 -46 15 -48z m1289 37 c9 -16 13 -30 11 -30 -3 0 -12 14
-21 30 -9 17 -13 30 -11 30 3 0 12 -13 21 -30z m1429 2 c-9 -16 -25 -39 -36
-53 l-20 -24 16 28 c28 48 48 77 53 77 2 0 -3 -13 -13 -28z m603 -24 c-3 -8
-6 -5 -6 6 -1 11 2 17 5 13 3 -3 4 -12 1 -19z m-7940 -125 c-2 -27 -3 -5 -3
47 0 52 1 74 3 48 2 -27 2 -69 0 -95z m7912 46 c-104 -276 -321 -521 -591
-670 -130 -72 -235 -113 -418 -163 -103 -28 -118 -24 -164 42 -26 37 -31 53
-33 115 l-2 72 13 -60 c15 -67 21 -84 55 -137 18 -29 29 -38 51 -38 16 0 30 5
32 11 2 6 26 15 53 20 28 5 64 16 82 24 17 8 46 18 65 21 18 4 40 12 48 19 8
6 34 17 58 25 23 7 42 17 42 22 0 4 6 8 14 8 19 0 136 60 136 70 0 4 15 13 33
21 41 16 124 87 294 252 83 81 144 175 215 335 37 83 47 90 17 11z m-3208
-134 c33 -82 74 -181 91 -218 16 -38 27 -71 25 -74 -3 -2 -8 5 -12 16 -3 12
-11 21 -16 21 -5 0 -9 9 -9 20 0 11 -5 28 -10 38 -17 29 -150 364 -149 376 1
14 5 4 80 -179z m-2146 112 l140 -3 -141 -2 -140 -2 -30 33 -29 32 30 -27 c30
-27 34 -27 170 -31z m3410 33 c10 -11 16 -20 13 -20 -3 0 -13 9 -23 20 -10 11
-16 20 -13 20 3 0 13 -9 23 -20z m-7098 -37 c-3 -10 -5 -2 -5 17 0 19 2 27 5
18 2 -10 2 -26 0 -35z m8413 43 c0 -2 -8 -10 -17 -17 -16 -13 -17 -12 -4 4 13
16 21 21 21 13z m-10240 -41 c0 -5 -5 -3 -10 5 -5 8 -10 20 -10 25 0 6 5 3 10
-5 5 -8 10 -19 10 -25z m8297 -15 c6 -16 8 -30 3 -30 -4 0 -13 14 -19 30 -5
17 -7 30 -3 30 4 0 13 -13 19 -30z m1853 -46 c-91 -92 -191 -147 -375 -205
-33 -11 -72 -28 -87 -40 -16 -11 -28 -15 -28 -10 0 14 57 42 165 81 142 51
243 108 315 177 86 82 92 80 10 -3z m-4407 49 c-7 -2 -21 -2 -30 0 -10 3 -4 5
12 5 17 0 24 -2 18 -5z m-6323 -44 c0 -6 -4 -7 -10 -4 -5 3 -10 11 -10 16 0 6
5 7 10 4 6 -3 10 -11 10 -16z m8963 -129 c16 -30 46 -78 68 -106 59 -77 219
-228 291 -275 131 -85 399 -199 469 -199 15 0 31 -4 34 -10 14 -22 54 -9 93
31 43 43 48 60 55 204 3 46 4 41 5 -25 2 -133 -19 -195 -81 -230 -25 -14 -36
-13 -129 11 -116 30 -286 103 -409 175 -94 56 -261 209 -329 303 -52 71 -150
231 -150 246 0 14 50 -60 83 -125z m-6566 98 c-3 -8 -6 -5 -6 6 -1 11 2 17 5
13 3 -3 4 -12 1 -19z m-611 -17 c-26 -28 -133 -91 -152 -91 -5 0 20 16 56 35
36 20 76 47 90 60 35 35 40 31 6 -4z m-1694 -201 c66 -134 200 -264 338 -327
41 -19 98 -45 126 -58 56 -26 323 -95 366 -95 36 0 58 10 58 25 0 8 8 15 17
17 11 2 22 20 29 48 9 34 12 38 13 19 1 -39 -25 -96 -53 -114 -22 -15 -33 -15
-123 0 -344 59 -602 201 -741 409 -55 82 -109 204 -117 263 -4 27 7 8 35 -62
22 -55 45 -111 52 -125z m2295 178 c-3 -8 -6 -5 -6 6 -1 11 2 17 5 13 3 -3 4
-12 1 -19z m1150 0 c-3 -8 -6 -5 -6 6 -1 11 2 17 5 13 3 -3 4 -12 1 -19z
m-1160 -40 c-3 -8 -6 -5 -6 6 -1 11 2 17 5 13 3 -3 4 -12 1 -19z m7479 -44
c35 -20 64 -38 64 -40 0 -5 -67 28 -113 56 -55 34 -18 22 49 -16z m-7492 -1
c-4 -16 -25 -66 -48 -113 -109 -224 -339 -371 -731 -466 -118 -28 -116 -28
-141 -8 -19 15 -19 15 2 5 19 -9 117 13 219 50 17 6 53 17 80 24 74 19 107 34
100 45 -4 6 7 10 25 10 44 0 205 85 259 137 135 129 144 140 181 218 21 44 41
90 44 103 10 31 18 27 10 -5z m-754 8 c-8 -5 -28 -11 -45 -14 l-30 -6 30 14
c34 16 72 21 45 6z m4323 -8 c-13 -2 -35 -2 -50 0 -16 2 -5 4 22 4 28 0 40 -2
28 -4z m205 0 c-21 -2 -55 -2 -75 0 -21 2 -4 4 37 4 41 0 58 -2 38 -4z m540 0
c-82 -2 -214 -2 -295 0 -82 1 -15 3 147 3 162 0 229 -2 148 -3z m5617 -4 c-93
-5 -181 -13 -194 -19 -21 -10 -23 -9 -12 4 17 20 42 23 221 23 l155 0 -170 -8z
m1893 -8 c13 -7 -63 -4 -223 9 -82 7 -72 7 55 3 85 -3 161 -8 168 -12z m-8426
-2 c-13 -5 -31 -17 -40 -27 -10 -11 -13 -12 -7 -2 14 23 37 40 54 39 10 0 7
-4 -7 -10z m-4277 -19 c-11 -5 -27 -9 -35 -9 -9 0 -8 4 5 9 11 5 27 9 35 9 9
0 8 -4 -5 -9z m2052 -202 c-3 -101 -12 -205 -19 -232 -22 -83 -31 -86 -275
-93 l-211 -6 -15 24 c-20 30 -33 99 -19 99 5 0 18 -22 28 -50 21 -57 4 -53
194 -50 74 2 154 3 178 3 23 0 42 3 42 6 0 4 13 14 29 24 40 23 49 69 57 280
4 97 9 177 12 177 3 0 2 -82 -1 -182z m-2193 148 c-10 -8 -21 -12 -24 -10 -5
6 21 24 34 24 6 0 1 -6 -10 -14z m4347 -9 c-10 -9 -11 -8 -5 6 3 10 9 15 12
12 3 -3 0 -11 -7 -18z m4286 -49 c-3 -7 -5 -2 -5 12 0 14 2 19 5 13 2 -7 2
-19 0 -25z m2090 -308 c3 -8 6 -18 5 -21 -3 -14 39 -41 63 -41 16 0 25 -6 26
-17 0 -10 2 -11 6 -3 2 6 18 12 34 12 17 0 28 -4 25 -8 -2 -4 30 -6 72 -5 190
7 458 7 572 1 133 -8 157 -9 400 -7 371 3 531 -1 524 -12 -3 -5 2 -9 10 -9 9
0 16 5 16 11 0 8 4 8 13 1 7 -6 32 -11 56 -10 24 0 38 4 31 8 -20 12 68 21
144 14 68 -6 73 -5 106 22 19 15 37 29 38 30 2 1 10 20 18 41 l15 38 -4 -41
c-6 -50 -41 -102 -77 -112 -14 -4 -480 -7 -1037 -7 l-1011 0 -26 24 c-14 14
-30 41 -36 60 -12 42 -13 267 -2 326 4 26 8 -14 10 -120 1 -88 5 -167 9 -175z
m-6416 273 c-12 -20 -14 -14 -5 12 4 9 9 14 11 11 3 -2 0 -13 -6 -23z m8596
-25 c-3 -7 -5 -2 -5 12 0 14 2 19 5 13 2 -7 2 -19 0 -25z m-5842 -102 c52
-145 46 -203 -28 -244 -30 -16 -116 -17 -1382 -17 -1526 1 -1428 -4 -1433 74
-4 51 25 191 39 191 5 0 7 -10 4 -22 -3 -13 -9 -54 -15 -93 -8 -62 -7 -72 8
-83 9 -7 16 -18 15 -25 -2 -9 42 -13 169 -15 94 -1 175 -5 180 -8 5 -3 15 -1
22 5 13 11 596 19 916 14 74 -2 144 -3 155 -3 158 -1 191 -2 200 -9 18 -14 52
-19 68 -10 10 6 18 5 22 -2 5 -7 12 -5 24 5 13 12 49 15 186 15 94 0 295 1
448 3 153 2 280 2 283 -1 12 -12 41 -8 71 10 18 11 37 18 42 15 5 -3 14 1 21
9 14 17 7 114 -8 124 -4 3 -9 16 -9 29 -1 12 -11 47 -22 78 -12 30 -21 58 -21
61 0 17 12 -11 45 -101z m-2765 80 c0 -3 -4 -8 -10 -11 -5 -3 -10 -1 -10 4 0
6 5 11 10 11 6 0 10 -2 10 -4z m-2646 -116 c4 -59 3 -90 -3 -85 -11 11 -20
139 -13 168 7 28 9 19 16 -83z m2636 83 c0 -14 -19 -38 -25 -32 -8 8 5 39 16
39 5 0 9 -3 9 -7z m-7633 -85 c-3 -7 -5 -2 -5 12 0 14 2 19 5 13 2 -7 2 -19 0
-25z m16250 -45 c-3 -10 -5 -4 -5 12 0 17 2 24 5 18 2 -7 2 -21 0 -30z
m-16269 -101 c-27 -57 -142 -87 -308 -80 -86 4 -115 9 -163 31 -40 18 -57 31
-56 44 0 11 3 13 6 5 9 -23 83 -53 137 -56 29 -1 58 -6 66 -11 7 -5 11 -4 7 1
-6 10 40 10 66 -1 9 -4 23 -2 31 4 7 6 15 8 18 6 11 -11 97 15 141 42 48 30
56 43 59 108 1 34 2 32 5 -13 2 -30 -1 -64 -9 -80z m3069 71 c-3 -10 -5 -2 -5
17 0 19 2 27 5 18 2 -10 2 -26 0 -35z m297 -85 c27 -60 56 -94 82 -99 l29 -7
-31 -1 c-20 -1 -38 7 -51 22 -19 20 -53 79 -53 92 0 10 18 5 24 -7z m-6127
-1144 c-3 -3 -12 -4 -19 -1 -8 3 -5 6 6 6 11 1 17 -2 13 -5z"/>
<path d="M14211 11174 c0 -11 3 -14 6 -6 3 7 2 16 -1 19 -3 4 -6 -2 -5 -13z"/>
<path d="M11230 15304 c-329 -35 -615 -132 -856 -289 -518 -337 -832 -862
-884 -1476 -11 -129 -8 -180 25 -412 77 -551 307 -947 735 -1268 144 -108 237
-162 415 -240 243 -105 487 -159 720 -159 186 1 458 48 660 116 299 100 496
227 766 495 156 154 237 270 332 469 111 233 195 548 198 744 2 87 3 94 19 83
14 -8 24 -7 44 6 42 28 33 69 -32 139 -17 19 -28 48 -38 110 -73 423 -229 766
-470 1032 -188 209 -361 343 -584 454 -253 127 -463 185 -730 202 -171 11
-161 11 -320 -6z m305 -964 c19 -5 4 -7 -40 -3 -72 5 -214 -10 -250 -27 -11
-6 -65 -26 -120 -45 -115 -42 -234 -106 -303 -164 -27 -23 -52 -41 -56 -41 -4
0 -14 -7 -22 -15 -9 -8 -13 -15 -10 -15 3 0 -1 -8 -9 -17 -35 -40 -86 -110
-105 -145 -11 -21 -25 -38 -30 -38 -5 0 -13 -12 -16 -27 -4 -15 -13 -34 -21
-41 -49 -50 66 157 135 241 150 183 384 309 637 340 54 7 179 5 210 -3z m120
-20 l20 -9 -20 1 c-11 0 -33 4 -50 8 l-30 8 30 0 c17 0 39 -3 50 -8z m120 -41
c29 -14 33 -18 14 -14 -15 3 -46 14 -70 25 -35 16 -38 19 -14 14 17 -3 48 -14
70 -25z m225 -125 c214 -156 370 -474 370 -756 0 -239 -83 -461 -240 -643
-114 -132 -312 -246 -528 -301 -84 -22 -111 -25 -202 -20 -63 3 -144 15 -203
30 -104 27 -267 95 -332 139 -109 74 -243 239 -308 380 -34 73 -77 239 -76
292 1 38 1 39 8 10 5 -16 14 -55 20 -85 21 -94 60 -202 95 -265 18 -33 48 -86
65 -117 50 -89 154 -179 283 -243 60 -30 116 -55 124 -55 8 0 36 -9 61 -21 62
-28 166 -42 302 -42 93 1 117 4 127 17 6 9 21 16 33 16 11 0 21 4 21 10 0 5
11 12 25 16 14 3 25 10 25 15 0 5 11 9 25 9 14 0 25 -4 25 -10 0 -16 30 -12
36 5 7 18 103 71 145 80 17 4 33 13 35 20 3 7 15 16 27 19 42 10 133 89 192
166 123 162 205 388 205 562 0 95 -17 211 -31 216 -5 2 -7 8 -4 12 8 13 -6 61
-15 55 -9 -6 -32 54 -25 65 8 12 -6 41 -16 34 -5 -3 -9 6 -9 19 0 30 -24 79
-34 69 -4 -4 -7 -2 -6 3 1 6 2 19 1 30 -1 17 -3 18 -11 5 -8 -12 -10 -11 -10
8 0 12 -5 22 -12 22 -6 0 -9 3 -5 6 27 27 -135 190 -267 269 -53 31 -96 59
-96 62 0 8 131 -67 180 -103z m-1466 -466 c-16 -55 -34 -84 -34 -57 0 25 31
109 40 109 5 0 2 -24 -6 -52z m-31 -115 c-8 -54 -23 -88 -18 -43 2 19 4 45 4
58 1 12 5 22 10 22 6 0 7 -17 4 -37z m2837 -66 c0 -7 -9 -18 -20 -25 -27 -17
-26 -74 1 -119 26 -42 21 -52 -10 -19 -32 34 -51 94 -40 125 16 40 69 70 69
38z m-2853 -179 c-3 -8 -6 -5 -6 6 -1 11 2 17 5 13 3 -3 4 -12 1 -19z"/>
<path d="M30805 11970 c-3 -5 -1 -10 4 -10 6 0 11 5 11 10 0 6 -2 10 -4 10 -3
0 -8 -4 -11 -10z"/>
</g>
</svg>
