<svg version="1.1" id="Layer_1" xmlns="http://www.w3.org/2000/svg" xmlns:xlink="http://www.w3.org/1999/xlink" x="0px" y="0px"
	 width="100%" viewBox="0 0 814 531" enable-background="new 0 0 814 531" xml:space="preserve">
<path fill="#232731" opacity="1.000000" stroke="none" 
	d="
M815.000000,467.000000 
	C815.000000,486.354218 815.000000,505.708466 814.582397,525.510010 
	C811.179504,525.772461 808.169739,525.769897 805.212830,525.372986 
	C786.786438,522.899414 767.865967,526.235229 749.696411,520.622742 
	C747.831055,520.046509 745.727722,520.287598 743.757446,519.996460 
	C733.420288,518.468811 723.017517,517.258423 712.780640,515.219177 
	C704.189270,513.507690 695.787964,510.833466 687.314941,508.539856 
	C682.356079,507.197479 677.411499,505.800140 672.478088,504.366974 
	C661.687622,501.232239 650.643738,498.749329 640.186157,494.740570 
	C624.232788,488.625031 608.473328,481.896362 593.034058,474.578796 
	C579.400146,468.116852 566.039612,460.959503 553.070557,453.247864 
	C540.819763,445.963318 529.076050,437.784821 517.402222,429.582489 
	C504.776062,420.710938 491.904541,412.040375 480.203339,402.038239 
	C465.819183,389.742737 452.160583,376.529480 438.867035,363.043945 
	C420.743835,344.658966 404.438904,324.671753 389.841583,303.347565 
	C387.895691,300.504974 386.594818,297.220825 385.346039,294.150757 
	C388.368042,294.366516 391.630707,297.079803 393.329254,292.821625 
	C395.048859,288.510803 393.151978,285.188538 388.831299,283.038452 
	C386.906097,282.080444 384.865417,280.469086 383.907227,278.620331 
	C381.117920,273.238495 376.708801,272.033691 371.263855,275.412323 
	C368.512024,271.602753 367.239594,266.873474 361.991699,265.651367 
	C360.923187,263.615662 359.930725,261.930450 358.838684,259.888672 
	C357.492126,255.708817 356.245117,251.885498 355.436310,247.989151 
	C357.194550,247.886520 358.521912,247.753662 359.833282,247.846481 
	C363.998199,248.141235 365.210297,246.074234 365.235931,242.154114 
	C365.261810,238.193604 363.995972,236.360184 359.849457,236.461395 
	C355.241150,236.573883 350.622955,236.280502 345.963104,235.776505 
	C345.211548,233.358093 344.716766,231.222412 343.768707,229.311630 
	C328.931488,199.407547 317.572021,168.213318 308.711426,136.054230 
	C296.531494,91.847931 290.701813,46.784901 290.000000,1.000000 
	C311.354218,1.000000 332.708466,1.000000 354.532257,1.447779 
	C355.161163,6.047386 355.213898,10.206560 355.499420,14.349693 
	C356.424988,27.780453 356.626526,41.326488 358.613922,54.602543 
	C361.241180,72.153023 364.719788,89.629036 368.896637,106.879387 
	C372.916962,123.483307 377.152130,140.205292 383.358673,156.067093 
	C391.273560,176.294800 400.719727,195.985855 410.542389,215.383331 
	C417.494965,229.113068 426.277008,241.908630 433.980499,255.272171 
	C435.578033,258.043427 436.020599,261.480469 436.587097,264.681702 
	C433.173798,264.568481 431.512604,265.694733 431.553223,268.991730 
	C431.641327,276.142273 431.600525,283.294800 431.568054,290.446320 
	C431.549835,294.461548 434.140778,294.890961 437.274292,294.858185 
	C440.344788,294.826050 443.037384,294.560425 443.010345,290.474609 
	C442.987244,286.984802 443.112396,283.493988 443.497009,280.098267 
	C445.315552,281.448425 447.036102,282.515259 448.263611,283.991913 
	C453.791260,290.641541 458.917480,297.640381 464.663452,304.090179 
	C487.067841,329.238983 510.943115,352.911255 538.365723,372.593384 
	C554.692139,384.311432 571.289062,395.854706 588.731262,405.776733 
	C633.751892,431.386627 681.797180,449.233978 732.862000,458.598206 
	C756.084473,462.856750 779.347839,466.643616 803.096008,466.061371 
	C807.054016,465.964355 811.031494,466.666901 815.000000,467.000000 
M403.893158,261.626587 
	C400.183258,260.687775 396.298523,260.161163 392.816956,258.684113 
	C389.852905,257.426575 385.771271,255.556168 385.021637,253.093246 
	C383.919128,249.470947 388.385651,248.714935 391.246033,247.399536 
	C395.156128,245.601410 393.803802,241.876251 393.109009,239.076416 
	C392.851715,238.039383 389.681915,236.965027 387.995331,237.171814 
	C379.882599,238.166367 374.010376,244.160370 373.155151,251.744553 
	C372.342194,258.953339 376.116119,264.644775 384.659210,267.794769 
	C390.255890,269.858368 396.291168,270.733398 401.885712,272.801544 
	C404.530396,273.779205 408.101288,275.965759 408.611298,278.205872 
	C409.578247,282.453094 405.184174,283.057373 402.018646,283.998840 
	C401.542084,284.140564 400.727509,284.186096 400.645691,284.452911 
	C399.869537,286.982697 398.867096,289.529663 398.711853,292.118622 
	C398.653625,293.089661 400.544495,294.934021 401.724640,295.097687 
	C408.396515,296.023041 417.430817,290.142792 419.575806,283.830933 
	C422.279755,275.874207 419.688599,269.124207 412.029602,264.835175 
	C409.736481,263.551025 407.125946,262.833618 403.893158,261.626587 
M413.965027,242.565796 
	C410.815979,240.843033 407.808258,238.691437 404.455597,237.586502 
	C402.884766,237.068787 399.264008,238.189026 398.977173,239.229797 
	C398.165833,242.173370 397.232849,245.600952 400.932098,248.064926 
	C403.513702,249.784454 405.880890,252.070923 407.755371,254.549240 
	C410.511627,258.193390 414.071167,257.025879 417.176453,256.220978 
	C418.099335,255.981781 418.898865,252.194870 418.426605,250.379013 
	C417.750519,247.779388 415.854126,245.497147 413.965027,242.565796 
z"/>
<path fill="#0F131E" opacity="1.000000" stroke="none" 
	d="
M252.000000,532.000000 
	C225.312439,532.000000 198.624878,532.000000 171.386261,531.656128 
	C170.253723,530.126099 169.836929,528.818787 169.066406,527.771729 
	C153.876053,507.129822 138.239899,486.801117 123.558228,465.804688 
	C113.080765,450.820740 103.191551,435.330078 94.267204,419.378815 
	C82.167801,397.752655 70.791306,375.688843 59.959930,353.397247 
	C51.748211,336.497040 44.441975,319.118896 37.494541,301.650482 
	C24.125378,268.035461 13.403369,233.543869 4.739451,198.410294 
	C4.093789,195.792038 2.273973,193.463318 0.999999,191.000000 
	C1.000000,127.787338 1.000000,64.574684 1.000000,1.000000 
	C14.018658,1.000000 27.040670,1.000000 40.531269,1.468640 
	C41.996128,23.043554 42.010288,44.253746 44.229797,65.230591 
	C47.205276,93.352249 50.674824,121.534172 56.179256,149.243866 
	C61.617554,176.620636 68.682144,203.815903 77.178459,230.405334 
	C86.335815,259.063507 97.396416,287.165344 108.768867,315.043976 
	C115.344437,331.163452 124.129417,346.385864 131.997559,361.972900 
	C149.604538,396.852875 170.720032,429.603912 193.976913,460.884979 
	C207.856903,479.553864 223.478333,496.926514 238.277344,514.914429 
	C242.917938,520.555054 247.429428,526.301819 252.000000,532.000000 
z"/>
<path fill="#161925" opacity="1.000000" stroke="none" 
	d="
M411.000000,532.000000 
	C380.979095,532.000000 350.958221,532.000000 320.357910,531.667114 
	C316.494171,527.416321 313.415161,523.302063 309.889374,519.615051 
	C295.750458,504.830048 280.605560,490.907349 267.466156,475.291382 
	C250.993652,455.714142 235.970566,434.903259 220.602097,414.414673 
	C201.468231,388.906219 185.497635,361.347137 171.010986,333.065826 
	C159.342133,310.285492 148.852661,286.802643 139.372971,263.020416 
	C121.316750,217.721725 108.483383,170.824371 100.000648,122.785065 
	C92.889023,82.510544 90.068893,41.829876 89.000000,1.000000 
	C104.687561,1.000000 120.375122,1.000000 136.440933,1.406103 
	C136.589233,5.453917 135.909531,9.132246 136.202591,12.731371 
	C138.050232,35.423870 139.513397,58.172394 142.282318,80.757896 
	C144.829437,101.534302 147.653076,122.418365 152.529953,142.732849 
	C159.081421,170.022797 167.722748,196.811066 175.295380,224.083725 
	C155.511017,248.600754 156.055725,283.812103 176.548248,308.897125 
	C176.836121,309.224335 177.020584,309.390900 177.416580,309.822388 
	C181.566254,313.596436 185.519791,317.088501 189.712006,320.812073 
	C204.757248,331.218811 221.090897,334.715424 238.913147,332.605469 
	C240.453186,335.994934 241.545227,339.209869 243.353409,341.952667 
	C255.340530,360.135742 266.992249,378.568268 279.677307,396.256836 
	C303.487701,429.459076 330.893677,459.623718 360.690552,487.510223 
	C375.362061,501.241119 391.199738,513.724060 406.448395,526.842957 
	C408.170135,528.324219 409.492462,530.269775 411.000000,532.000000 
z"/>
<path fill="#131722" opacity="1.000000" stroke="none" 
	d="
M88.531342,1.000000 
	C90.068893,41.829876 92.889023,82.510544 100.000648,122.785065 
	C108.483383,170.824371 121.316750,217.721725 139.372971,263.020416 
	C148.852661,286.802643 159.342133,310.285492 171.010986,333.065826 
	C185.497635,361.347137 201.468231,388.906219 220.602097,414.414673 
	C235.970566,434.903259 250.993652,455.714142 267.466156,475.291382 
	C280.605560,490.907349 295.750458,504.830048 309.889374,519.615051 
	C313.415161,523.302063 316.494171,527.416321 319.889282,531.667114 
	C297.645782,532.000000 275.291534,532.000000 252.468658,532.000000 
	C247.429428,526.301819 242.917938,520.555054 238.277344,514.914429 
	C223.478333,496.926514 207.856903,479.553864 193.976913,460.884979 
	C170.720032,429.603912 149.604538,396.852875 131.997559,361.972900 
	C124.129417,346.385864 115.344437,331.163452 108.768867,315.043976 
	C97.396416,287.165344 86.335815,259.063507 77.178459,230.405334 
	C68.682144,203.815903 61.617554,176.620636 56.179256,149.243866 
	C50.674824,121.534172 47.205276,93.352249 44.229797,65.230591 
	C42.010288,44.253746 41.996128,23.043554 40.999928,1.468640 
	C56.687561,1.000000 72.375122,1.000000 88.531342,1.000000 
z"/>
<path fill="#2A2E38" opacity="1.000000" stroke="none" 
	d="
M413.000000,1.000000 
	C427.687561,1.000000 442.375122,1.000000 457.531372,1.463758 
	C459.060120,36.556141 464.076355,70.570152 474.512665,103.648384 
	C485.652191,138.955414 501.175842,172.235733 522.708618,202.447113 
	C532.644531,216.387665 543.577515,229.617599 553.899292,243.462723 
	C547.871948,251.292099 545.378174,259.840607 546.120728,269.338715 
	C547.077332,281.575378 555.023438,291.923553 565.909424,294.741699 
	C567.265137,295.092651 569.611450,294.488281 570.433105,293.468170 
	C572.523621,290.872803 570.744934,284.842224 567.655029,283.346252 
	C560.770508,280.013092 557.542847,274.582367 558.167358,267.099976 
	C564.730957,272.949799 570.949402,278.692047 576.979370,284.735474 
	C576.345337,285.738770 575.487976,286.464996 575.527344,287.138763 
	C575.675598,289.672363 575.624634,292.434631 576.700012,294.585358 
	C577.104614,295.394562 580.504395,295.230988 582.317017,294.721832 
	C590.837708,292.328461 596.829712,286.893738 600.806885,278.860992 
	C604.763000,280.950348 608.315247,282.974579 611.832520,285.447266 
	C611.408691,294.920105 611.491333,294.992981 620.584473,295.020508 
	C623.721069,295.030029 626.857361,295.120789 630.089478,295.500244 
	C632.687866,298.121490 634.930786,300.830078 637.758484,302.609100 
	C641.383362,304.889648 645.470459,306.440063 649.372864,308.274231 
	C665.331116,315.774628 681.292847,323.267700 697.258667,330.752014 
	C699.956909,332.016876 702.586243,333.534363 705.410950,334.404358 
	C715.371521,337.472168 725.248657,341.137848 735.444153,343.039032 
	C750.689880,345.881989 765.929138,348.806335 781.470764,350.269012 
	C792.136902,351.272827 802.676514,353.641052 813.501953,353.004456 
	C813.999695,352.975159 814.500549,353.000244 815.000000,353.000000 
	C815.000000,369.020905 815.000000,385.041779 814.657349,401.657959 
	C811.895081,402.595764 809.440979,403.380585 807.062561,403.195068 
	C800.774841,402.704620 794.534302,401.329620 788.249329,401.134735 
	C766.850281,400.471100 746.026733,396.129059 725.220215,391.698914 
	C718.420349,390.251068 711.738098,388.174347 705.093079,386.094513 
	C694.947632,382.919098 684.745178,379.848755 674.818542,376.072540 
	C664.272522,372.060730 653.865295,367.600891 643.687500,362.730530 
	C635.364319,358.747620 627.385803,354.013977 619.402893,349.358582 
	C609.664246,343.679291 599.595825,338.394562 590.542236,331.750641 
	C576.476562,321.428589 563.168213,310.076660 549.488647,299.224487 
	C546.637146,296.962372 543.567200,294.975555 540.579590,292.504272 
	C533.455505,275.127441 526.235229,258.154449 519.331055,241.053772 
	C517.762756,237.169296 515.292358,236.463562 511.626373,236.409058 
	C507.807037,236.352264 505.375519,237.466339 504.064240,241.283218 
	C503.111603,244.056305 501.447235,246.584854 499.900085,248.937027 
	C495.965271,243.551315 492.243134,238.441772 488.493805,233.352264 
	C468.512573,206.229004 452.955139,176.659561 440.730743,145.370743 
	C422.611206,98.993088 412.865906,50.924622 413.000000,1.000000 
z"/>
<path fill="#333640" opacity="1.000000" stroke="none" 
	d="
M815.000000,205.000000 
	C815.000000,225.687561 815.000000,246.375122 814.531982,267.531342 
	C793.633484,268.058044 773.691711,264.586792 753.957458,259.647095 
	C709.018311,248.398270 669.774231,226.454056 635.912170,195.176178 
	C608.316711,169.686707 587.112915,139.478333 572.155823,104.808884 
	C557.828735,71.599800 550.222961,37.131924 550.000000,1.000000 
	C570.354248,1.000000 590.708435,1.000000 611.531372,1.465132 
	C612.575928,36.095135 621.459351,67.911743 638.178467,97.743736 
	C650.196716,119.187996 664.933777,138.241165 683.681091,154.191147 
	C721.554443,186.413391 764.931091,204.335724 815.000000,205.000000 
z"/>
<path fill="#1E212C" opacity="1.000000" stroke="none" 
	d="
M218.000000,1.000000 
	C227.687561,1.000000 237.375122,1.000000 247.441589,1.366967 
	C247.473892,4.858147 246.772263,7.990908 246.847244,11.104967 
	C247.071411,20.414078 247.231140,29.749975 248.088379,39.013187 
	C249.713196,56.570793 251.003876,74.220070 253.925003,91.580269 
	C256.985016,109.765762 261.088593,127.853722 266.036041,145.622345 
	C271.336823,164.659988 277.879913,183.371475 284.426239,202.033997 
	C287.553619,210.949554 291.772400,219.502441 295.797577,228.078430 
	C302.708923,242.803574 309.794739,257.448242 316.990601,272.036346 
	C317.789795,273.656525 319.780182,274.689117 321.317322,276.453156 
	C321.472351,281.387299 321.575043,285.862610 321.567719,290.337677 
	C321.562744,293.374268 322.863220,294.846954 326.001648,295.033752 
	C331.736328,295.375031 332.959839,294.325256 333.022156,288.467743 
	C333.041565,286.646088 333.124969,284.825134 333.449860,282.873413 
	C335.514923,283.259857 338.154724,283.195801 338.971375,284.384338 
	C346.320221,295.080200 353.181091,306.111145 360.521729,316.812866 
	C367.108154,326.415100 373.758148,336.015869 381.040009,345.087616 
	C388.945618,354.936432 397.510925,364.265961 405.982208,373.647064 
	C412.335144,380.682312 418.733337,387.713745 425.575348,394.262115 
	C437.473694,405.649750 449.157776,417.377625 461.982025,427.651825 
	C477.922302,440.422546 494.595154,452.360687 511.573395,463.729858 
	C527.170349,474.174072 543.271851,483.974091 559.750427,492.958649 
	C573.433594,500.419037 587.870972,506.551422 602.195557,512.761597 
	C612.860718,517.385193 623.919983,521.091858 634.722900,525.409180 
	C639.583557,527.351746 644.247070,529.787842 649.000000,532.000000 
	C618.645752,532.000000 588.291565,532.000000 557.278931,531.724854 
	C555.031189,530.276611 553.534973,528.943481 551.838074,527.955139 
	C534.011353,517.572266 515.918213,507.625427 498.354065,496.818085 
	C466.901825,477.465302 438.284302,454.356110 411.540192,428.954987 
	C386.144073,404.834167 362.487366,379.044952 342.147491,350.522491 
	C328.538940,331.439301 316.490112,311.244080 303.734497,291.552185 
	C300.586365,286.692169 297.403839,281.854462 294.209137,276.569550 
	C294.344177,273.990021 294.517120,271.848114 294.668518,269.704681 
	C295.632904,256.048584 292.635834,243.387207 285.074371,231.527130 
	C283.713745,229.418655 282.429810,227.638062 281.056396,225.553131 
	C280.188812,224.258987 279.410645,223.269180 278.475037,222.073059 
	C277.942017,221.508316 277.566467,221.149887 277.077850,220.577576 
	C276.765656,220.100220 276.515442,219.900803 276.091919,219.557953 
	C275.765381,219.093201 275.512390,218.899567 275.092316,218.563171 
	C274.774597,218.099808 274.524963,217.908447 274.099548,217.571686 
	C273.765442,217.097137 273.504425,216.904602 273.019470,216.599091 
	C272.590790,216.742432 272.333679,217.069794 272.278534,217.663452 
	C272.803741,218.236191 273.126984,218.542603 273.552734,218.975952 
	C273.801941,219.265900 273.964661,219.410843 274.279846,219.722839 
	C274.629303,220.127533 274.851532,220.337479 275.228485,220.728928 
	C275.606537,221.139313 275.846588,221.349869 276.277100,221.783966 
	C276.885254,222.423370 277.310425,222.830627 277.888428,223.503906 
	C278.820587,224.704041 279.599945,225.638153 280.558044,226.850983 
	C281.968475,228.931992 283.200165,230.734329 284.596924,232.849442 
	C297.341980,257.508240 296.313416,281.127625 280.636658,303.899841 
	C278.196869,303.878235 276.100830,303.939972 273.904236,303.664185 
	C273.504822,302.436310 273.205963,301.545959 273.045227,300.359192 
	C278.702942,291.731384 283.058411,282.971008 282.814514,272.549896 
	C282.278168,274.511658 281.741852,276.473419 280.956085,278.169342 
	C279.127563,275.579559 277.183533,273.422699 276.030304,270.903778 
	C269.809937,257.317169 263.667358,243.691666 257.768951,229.963120 
	C256.086029,226.046097 255.308258,221.740173 254.379120,217.615967 
	C254.859222,217.427490 255.103821,217.257004 255.275131,217.030975 
	C255.327454,216.961945 255.213623,216.636276 255.116653,216.603516 
	C248.722733,214.443207 242.322723,212.300903 235.524063,210.089478 
	C228.121780,210.435989 221.118683,210.850037 213.749084,211.267609 
	C211.970474,211.668961 210.558365,212.066772 209.115372,212.012299 
	C208.062698,209.124100 207.040909,206.688217 206.370941,204.072327 
	C228.558640,197.221954 248.860321,200.068054 267.629517,213.865265 
	C268.490021,214.368607 269.147614,214.685440 269.805206,215.002274 
	C269.940643,214.782166 270.076050,214.562073 270.211456,214.341980 
	C269.531616,213.835709 268.851807,213.329453 267.975983,212.553665 
	C262.809662,209.370026 257.839325,206.455902 252.956299,203.182312 
	C252.733521,200.727219 252.666870,198.560074 252.075577,196.547043 
	C246.371689,177.128586 240.150452,157.849899 234.962830,138.296265 
	C231.477783,125.160088 228.887314,111.725876 226.851181,98.280449 
	C223.915070,78.892021 221.431259,59.412262 219.552109,39.894676 
	C218.310577,26.999506 218.468597,13.969587 218.000000,1.000000 
M269.036987,227.293335 
	C268.835724,227.036469 268.583832,226.846878 268.006744,226.212631 
	C267.420532,225.719666 266.834320,225.226700 265.987213,224.331100 
	C265.769836,224.082901 265.502502,223.913620 264.874573,223.528473 
	C264.750977,223.867294 264.627350,224.206100 264.817627,224.889450 
	C265.050018,225.101822 265.310303,225.271332 265.915649,225.871170 
	C266.468597,226.389725 267.021545,226.908264 267.761505,227.833206 
	C267.906769,228.096939 268.091370,228.329422 268.613190,228.915176 
	C268.830872,229.156281 269.071198,229.372131 269.618439,229.927307 
	C269.824280,230.156464 270.045654,230.369507 270.606110,231.086838 
	C271.297394,231.995621 271.988678,232.904404 272.679962,233.813187 
	C272.995483,233.476761 273.311035,233.140335 273.626587,232.803909 
	C272.821716,231.793060 272.016815,230.782227 270.980652,229.351547 
	C270.784698,229.091766 270.542908,228.885803 270.029358,228.304947 
	C269.831268,228.039688 269.581024,227.839615 269.036987,227.293335 
M274.819489,236.852997 
	C277.657623,243.763809 280.495728,250.674622 283.333862,257.585419 
	C282.701202,249.896973 280.001221,242.865097 275.907776,236.311035 
	C275.804016,236.144928 275.159576,236.316544 274.819489,236.852997 
M260.582886,221.323135 
	C261.102020,221.581757 261.621185,221.840378 262.140320,222.098999 
	C262.155762,221.818649 262.253296,221.323288 262.173370,221.292801 
	C261.651764,221.093735 261.091675,220.995407 260.582886,221.323135 
M258.472443,219.150375 
	C258.204773,218.872864 257.943909,218.587708 257.657043,218.331711 
	C257.632935,218.310196 257.433990,218.484665 257.316284,218.568085 
	C257.593262,218.846527 257.870239,219.124969 258.472443,219.150375 
z"/>
<path fill="#0B0F1A" opacity="1.000000" stroke="none" 
	d="
M0.999999,191.468658 
	C2.273973,193.463318 4.093789,195.792038 4.739451,198.410294 
	C13.403369,233.543869 24.125378,268.035461 37.494541,301.650482 
	C44.441975,319.118896 51.748211,336.497040 59.959930,353.397247 
	C70.791306,375.688843 82.167801,397.752655 94.267204,419.378815 
	C103.191551,435.330078 113.080765,450.820740 123.558228,465.804688 
	C138.239899,486.801117 153.876053,507.129822 169.066406,527.771729 
	C169.836929,528.818787 170.253723,530.126099 170.917603,531.656128 
	C141.312439,532.000000 111.624878,532.000000 81.361061,531.670044 
	C73.952896,521.187988 67.041458,511.088196 60.313408,500.867676 
	C54.589996,492.173248 48.939960,483.424042 43.512726,474.543060 
	C38.514957,466.364838 33.813061,458.003967 29.062963,449.676727 
	C24.956038,442.477051 20.842794,435.276245 16.954872,427.957703 
	C12.758939,420.059448 8.901061,411.981445 4.692767,404.090057 
	C3.992543,402.777008 2.257076,402.016083 0.999998,401.000000 
	C1.000000,331.312439 1.000000,261.624878 0.999999,191.468658 
z"/>
<path fill="#30343D" opacity="1.000000" stroke="none" 
	d="
M549.531372,1.000000 
	C550.222961,37.131924 557.828735,71.599800 572.155823,104.808884 
	C587.112915,139.478333 608.316711,169.686707 635.912170,195.176178 
	C669.774231,226.454056 709.018311,248.398270 753.957458,259.647095 
	C773.691711,264.586792 793.633484,268.058044 814.531982,268.000000 
	C815.000000,280.354218 815.000000,292.708466 814.533203,305.531342 
	C809.258972,305.801300 804.423523,305.861786 799.650146,305.347412 
	C790.951599,304.410126 782.255676,303.341034 773.622253,301.936493 
	C765.158875,300.559631 756.699219,299.003265 748.377808,296.956757 
	C740.782227,295.088806 733.383240,292.428253 725.880371,290.174469 
	C720.061340,288.426514 713.878906,287.483429 708.447144,284.929535 
	C694.075806,278.172363 679.955566,270.866425 665.876953,263.508057 
	C659.624207,260.239929 653.635193,256.439270 647.698059,252.613998 
	C646.136597,251.607925 645.214600,249.609177 644.448242,247.998276 
	C646.388245,247.901230 647.882812,247.790573 649.369019,247.859085 
	C653.269226,248.038895 656.021423,247.489258 656.132935,242.381866 
	C656.249573,237.038956 653.472717,236.440445 649.292542,236.474564 
	C637.859924,236.567932 626.425903,236.482483 614.940735,236.134460 
	C613.019653,233.127762 611.535950,230.049774 609.221375,227.843430 
	C585.228516,204.972153 564.265869,179.841156 548.127197,150.654800 
	C530.224731,118.278786 517.197693,84.285652 511.730255,47.663612 
	C509.424316,32.217941 508.533875,16.560940 507.000000,1.000000 
	C521.020874,1.000000 535.041809,1.000000 549.531372,1.000000 
z"/>
<path fill="#373A44" opacity="1.000000" stroke="none" 
	d="
M815.000000,204.531342 
	C764.931091,204.335724 721.554443,186.413391 683.681091,154.191147 
	C664.933777,138.241165 650.196716,119.187996 638.178467,97.743736 
	C621.459351,67.911743 612.575928,36.095135 612.000000,1.465132 
	C632.020874,1.000000 652.041809,1.000000 672.531616,1.454653 
	C673.874390,24.221174 679.209778,45.435223 689.621765,65.165352 
	C701.747620,88.142960 718.799316,106.902603 740.705872,120.905800 
	C763.293457,135.344315 787.797852,144.146759 815.000000,144.000000 
	C815.000000,164.020889 815.000000,184.041794 815.000000,204.531342 
z"/>
<path fill="#272B35" opacity="1.000000" stroke="none" 
	d="
M412.531342,1.000000 
	C412.865906,50.924622 422.611206,98.993088 440.730743,145.370743 
	C452.955139,176.659561 468.512573,206.229004 488.493805,233.352264 
	C492.243134,238.441772 495.965271,243.551315 499.874512,249.297333 
	C496.690155,258.156281 493.267731,266.344391 490.001099,274.594147 
	C488.531921,278.304352 489.803131,279.712463 493.994141,280.157013 
	C500.601013,280.857819 501.806702,276.111755 504.126709,272.130615 
	C507.258728,275.954315 510.122345,279.564575 512.571289,283.260162 
	C503.209473,283.608795 494.262299,283.872040 485.070404,283.880493 
	C480.887115,279.418030 476.948578,275.210388 473.179749,270.708008 
	C479.440826,263.414581 480.613647,255.490982 476.716309,247.252502 
	C473.178650,239.774368 466.495117,236.690430 458.426788,236.568787 
	C451.271332,236.460892 444.110046,236.648651 436.957672,236.462708 
	C432.781128,236.354111 431.455505,238.189362 431.482605,242.174210 
	C431.510193,246.225037 433.114136,247.911713 437.136963,247.861420 
	C444.291901,247.771957 451.453766,247.762222 458.604706,247.981705 
	C464.411896,248.159927 467.166138,250.961426 467.197968,256.129791 
	C467.231354,261.551758 464.337341,264.628082 458.453186,264.753265 
	C451.304840,264.905396 444.148407,264.675354 436.995453,264.610657 
	C436.020599,261.480469 435.578033,258.043427 433.980499,255.272171 
	C426.277008,241.908630 417.494965,229.113068 410.542389,215.383331 
	C400.719727,195.985855 391.273560,176.294800 383.358673,156.067093 
	C377.152130,140.205292 372.916962,123.483307 368.896637,106.879387 
	C364.719788,89.629036 361.241180,72.153023 358.613922,54.602543 
	C356.626526,41.326488 356.424988,27.780453 355.499420,14.349693 
	C355.213898,10.206560 355.161163,6.047386 355.000916,1.447779 
	C374.020905,1.000000 393.041779,1.000000 412.531342,1.000000 
z"/>
<path fill="#20232E" opacity="1.000000" stroke="none" 
	d="
M649.468628,532.000000 
	C644.247070,529.787842 639.583557,527.351746 634.722900,525.409180 
	C623.919983,521.091858 612.860718,517.385193 602.195557,512.761597 
	C587.870972,506.551422 573.433594,500.419037 559.750427,492.958649 
	C543.271851,483.974091 527.170349,474.174072 511.573395,463.729858 
	C494.595154,452.360687 477.922302,440.422546 461.982025,427.651825 
	C449.157776,417.377625 437.473694,405.649750 425.575348,394.262115 
	C418.733337,387.713745 412.335144,380.682312 405.982208,373.647064 
	C397.510925,364.265961 388.945618,354.936432 381.040009,345.087616 
	C373.758148,336.015869 367.108154,326.415100 360.521729,316.812866 
	C353.181091,306.111145 346.320221,295.080200 338.971375,284.384338 
	C338.154724,283.195801 335.514923,283.259857 333.390198,282.417694 
	C333.059784,278.852631 333.059784,275.612854 333.059784,272.007996 
	C341.026978,272.007996 348.168243,271.771210 355.284363,272.092438 
	C359.920319,272.301727 362.253387,270.764343 362.067749,266.001862 
	C367.239594,266.873474 368.512024,271.602753 371.287140,275.755676 
	C372.153503,285.271179 376.903961,290.976654 384.995239,294.141174 
	C386.594818,297.220825 387.895691,300.504974 389.841583,303.347565 
	C404.438904,324.671753 420.743835,344.658966 438.867035,363.043945 
	C452.160583,376.529480 465.819183,389.742737 480.203339,402.038239 
	C491.904541,412.040375 504.776062,420.710938 517.402222,429.582489 
	C529.076050,437.784821 540.819763,445.963318 553.070557,453.247864 
	C566.039612,460.959503 579.400146,468.116852 593.034058,474.578796 
	C608.473328,481.896362 624.232788,488.625031 640.186157,494.740570 
	C650.643738,498.749329 661.687622,501.232239 672.478088,504.366974 
	C677.411499,505.800140 682.356079,507.197479 687.314941,508.539856 
	C695.787964,510.833466 704.189270,513.507690 712.780640,515.219177 
	C723.017517,517.258423 733.420288,518.468811 743.757446,519.996460 
	C745.727722,520.287598 747.831055,520.046509 749.696411,520.622742 
	C767.865967,526.235229 786.786438,522.899414 805.212830,525.372986 
	C808.169739,525.769897 811.179504,525.772461 814.582397,525.978638 
	C815.000000,527.994873 815.000000,529.989807 815.000000,532.000000 
	C759.979126,532.000000 704.958191,532.000000 649.468628,532.000000 
z"/>
<path fill="#1A1D28" opacity="1.000000" stroke="none" 
	d="
M272.907135,300.655640 
	C273.205963,301.545959 273.504822,302.436310 273.698090,303.948608 
	C269.836182,307.554443 271.600647,311.381409 271.713898,315.080383 
	C271.172241,315.459137 270.916504,315.757416 270.561249,316.128540 
	C270.391052,316.434113 270.320404,316.666779 270.249756,316.899475 
	C270.490051,316.784790 270.730377,316.670135 271.249542,316.370544 
	C271.686005,315.790863 271.843628,315.396088 272.402496,315.068970 
	C275.927368,315.014008 279.050964,314.891449 282.411194,315.129761 
	C293.775299,332.450256 304.306580,349.840271 316.168060,366.269958 
	C334.587128,391.782806 355.212860,415.566895 377.475281,437.799530 
	C396.411377,456.710388 416.094147,474.883820 437.828827,490.640442 
	C451.679169,500.681244 465.664948,510.534973 479.551239,520.526489 
	C484.757355,524.272400 489.853638,528.171021 495.000000,532.000000 
	C467.312439,532.000000 439.624878,532.000000 411.468658,532.000000 
	C409.492462,530.269775 408.170135,528.324219 406.448395,526.842957 
	C391.199738,513.724060 375.362061,501.241119 360.690552,487.510223 
	C330.893677,459.623718 303.487701,429.459076 279.677307,396.256836 
	C266.992249,378.568268 255.340530,360.135742 243.353409,341.952667 
	C241.545227,339.209869 240.453186,335.994934 239.261932,332.509033 
	C248.653214,329.840759 257.656097,327.313599 264.867249,320.811493 
	C259.913361,322.890106 254.959488,324.968719 249.900604,326.708130 
	C248.864807,323.984100 247.934021,321.599243 247.315521,319.026611 
	C253.440323,315.217468 259.252808,311.596069 265.036743,307.993347 
	C265.008148,308.011993 264.960297,308.060699 265.218933,307.965607 
	C265.670471,307.568207 265.863373,307.265930 266.030151,306.984039 
	C266.004028,307.004425 265.962708,307.056244 266.230316,306.977051 
	C266.681976,306.588043 266.866058,306.278259 267.026733,305.986267 
	C267.003326,306.004089 266.968048,306.051178 267.241455,305.982605 
	C267.693726,305.598877 267.872589,305.283722 268.030762,304.987915 
	C268.010132,305.007233 267.981598,305.056030 268.286072,304.908020 
	C268.737183,304.152496 268.883820,303.545013 269.006348,302.962189 
	C268.982208,302.986877 268.945435,303.045319 269.259827,303.038757 
	C269.731110,302.671631 269.887970,302.311096 270.018646,301.970032 
	C269.992432,301.989532 269.950500,302.039642 270.289276,302.102722 
	C271.387726,301.662384 272.147430,301.158997 272.907135,300.655640 
z"/>
<path fill="#262A34" opacity="1.000000" stroke="none" 
	d="
M473.010040,271.002777 
	C476.948578,275.210388 480.887115,279.418030 484.996826,284.245483 
	C484.653046,286.227325 484.146851,287.592712 483.621521,288.950714 
	C481.695709,293.928986 482.300690,294.867889 487.700012,294.991821 
	C492.464600,295.101166 497.231354,295.115784 502.082886,295.504730 
	C503.579102,297.857300 504.678253,300.216187 506.449615,301.843384 
	C519.803528,314.110657 533.099854,326.452179 546.779602,338.350372 
	C566.467224,355.474060 588.565308,369.197479 611.371338,381.629822 
	C625.366882,389.259186 640.005859,395.829559 654.743347,401.941010 
	C668.392151,407.600983 682.471558,412.277252 696.527405,416.879425 
	C704.239868,419.404663 712.234985,421.186554 720.208618,422.769714 
	C738.139343,426.329803 756.043762,430.237305 774.136536,432.695465 
	C787.613281,434.526489 801.368713,434.306549 815.000000,435.000000 
	C815.000000,445.354218 815.000000,455.708466 815.000000,466.531342 
	C811.031494,466.666901 807.054016,465.964355 803.096008,466.061371 
	C779.347839,466.643616 756.084473,462.856750 732.862000,458.598206 
	C681.797180,449.233978 633.751892,431.386627 588.731262,405.776733 
	C571.289062,395.854706 554.692139,384.311432 538.365723,372.593384 
	C510.943115,352.911255 487.067841,329.238983 464.663452,304.090179 
	C458.917480,297.640381 453.791260,290.641541 448.263611,283.991913 
	C447.036102,282.515259 445.315552,281.448425 443.444611,279.676636 
	C442.628235,275.209381 445.544006,276.038452 447.687683,276.031006 
	C456.463226,276.000549 465.385681,276.802155 473.010040,271.002777 
z"/>
<path fill="#20232E" opacity="1.000000" stroke="none" 
	d="
M321.218140,275.994202 
	C319.780182,274.689117 317.789795,273.656525 316.990601,272.036346 
	C309.794739,257.448242 302.708923,242.803574 295.797577,228.078430 
	C291.772400,219.502441 287.553619,210.949554 284.426239,202.033997 
	C277.879913,183.371475 271.336823,164.659988 266.036041,145.622345 
	C261.088593,127.853722 256.985016,109.765762 253.925003,91.580269 
	C251.003876,74.220070 249.713196,56.570793 248.088379,39.013187 
	C247.231140,29.749975 247.071411,20.414078 246.847244,11.104967 
	C246.772263,7.990908 247.473892,4.858147 247.910248,1.366967 
	C261.687561,1.000000 275.375122,1.000000 289.531342,1.000000 
	C290.701813,46.784901 296.531494,91.847931 308.711426,136.054230 
	C317.572021,168.213318 328.931488,199.407547 343.768707,229.311630 
	C344.716766,231.222412 345.211548,233.358093 345.501190,235.868103 
	C339.257080,236.395233 333.428925,236.475220 327.600739,236.480316 
	C323.785370,236.483658 320.794037,236.837006 320.873077,242.064423 
	C320.947876,247.013916 323.500275,247.871689 327.528137,247.866440 
	C336.684692,247.854477 345.841431,247.987869 354.998108,248.062195 
	C356.245117,251.885498 357.492126,255.708817 358.377991,259.956604 
	C347.725555,260.420990 337.433380,260.550751 327.143280,260.455811 
	C323.120850,260.418732 321.379761,261.986633 321.534424,266.064362 
	C321.659668,269.365570 321.340302,272.683624 321.218140,275.994202 
z"/>
<path fill="#282C36" opacity="1.000000" stroke="none" 
	d="
M815.000000,434.531342 
	C801.368713,434.306549 787.613281,434.526489 774.136536,432.695465 
	C756.043762,430.237305 738.139343,426.329803 720.208618,422.769714 
	C712.234985,421.186554 704.239868,419.404663 696.527405,416.879425 
	C682.471558,412.277252 668.392151,407.600983 654.743347,401.941010 
	C640.005859,395.829559 625.366882,389.259186 611.371338,381.629822 
	C588.565308,369.197479 566.467224,355.474060 546.779602,338.350372 
	C533.099854,326.452179 519.803528,314.110657 506.449615,301.843384 
	C504.678253,300.216187 503.579102,297.857300 502.548737,295.447510 
	C513.400940,295.041260 523.875549,295.139648 534.343079,294.911530 
	C536.441956,294.865814 538.513733,293.577332 540.597961,292.861877 
	C543.567200,294.975555 546.637146,296.962372 549.488647,299.224487 
	C563.168213,310.076660 576.476562,321.428589 590.542236,331.750641 
	C599.595825,338.394562 609.664246,343.679291 619.402893,349.358582 
	C627.385803,354.013977 635.364319,358.747620 643.687500,362.730530 
	C653.865295,367.600891 664.272522,372.060730 674.818542,376.072540 
	C684.745178,379.848755 694.947632,382.919098 705.093079,386.094513 
	C711.738098,388.174347 718.420349,390.251068 725.220215,391.698914 
	C746.026733,396.129059 766.850281,400.471100 788.249329,401.134735 
	C794.534302,401.329620 800.774841,402.704620 807.062561,403.195068 
	C809.440979,403.380585 811.895081,402.595764 814.657349,402.126648 
	C815.000000,412.687561 815.000000,423.375122 815.000000,434.531342 
z"/>
<path fill="#1C1F2A" opacity="1.000000" stroke="none" 
	d="
M495.468658,532.000000 
	C489.853638,528.171021 484.757355,524.272400 479.551239,520.526489 
	C465.664948,510.534973 451.679169,500.681244 437.828827,490.640442 
	C416.094147,474.883820 396.411377,456.710388 377.475281,437.799530 
	C355.212860,415.566895 334.587128,391.782806 316.168060,366.269958 
	C304.306580,349.840271 293.775299,332.450256 282.564819,314.818481 
	C284.683533,311.151978 284.553802,308.151154 282.682556,304.818054 
	C286.651245,295.329559 290.444183,286.168030 294.237122,277.006470 
	C297.403839,281.854462 300.586365,286.692169 303.734497,291.552185 
	C316.490112,311.244080 328.538940,331.439301 342.147491,350.522491 
	C362.487366,379.044952 386.144073,404.834167 411.540192,428.954987 
	C438.284302,454.356110 466.901825,477.465302 498.354065,496.818085 
	C515.918213,507.625427 534.011353,517.572266 551.838074,527.955139 
	C553.534973,528.943481 555.031189,530.276611 556.810303,531.724854 
	C536.645752,532.000000 516.291565,532.000000 495.468658,532.000000 
z"/>
<path fill="#2D313B" opacity="1.000000" stroke="none" 
	d="
M611.867554,284.998810 
	C608.315247,282.974579 604.763000,280.950348 600.892151,278.482880 
	C599.728271,276.721466 598.936707,274.324677 598.027832,274.279358 
	C594.789734,274.117737 590.948730,272.507721 588.647888,276.612457 
	C586.133789,281.097504 582.322266,283.775848 577.167847,284.434326 
	C570.949402,278.692047 564.730957,272.949799 558.069946,266.670502 
	C557.306946,257.998383 560.706360,252.086990 568.122437,248.576797 
	C572.735413,246.393372 571.440918,242.190872 570.514526,239.048782 
	C569.381531,235.206299 565.972534,237.461639 563.780273,238.300125 
	C560.411621,239.588608 557.286804,241.514359 554.058472,243.169724 
	C543.577515,229.617599 532.644531,216.387665 522.708618,202.447113 
	C501.175842,172.235733 485.652191,138.955414 474.512665,103.648384 
	C464.076355,70.570152 459.060120,36.556141 458.000000,1.463758 
	C468.020905,1.000000 478.041779,1.000000 488.531342,1.466416 
	C489.290405,32.605618 494.183136,62.626987 502.997040,91.909920 
	C513.674805,127.385246 529.636719,160.402039 551.548523,190.405899 
	C568.192810,213.196899 586.715332,234.221802 609.033081,251.716309 
	C611.990540,254.034607 614.357849,257.105835 616.612183,259.886078 
	C610.998596,259.778900 611.748657,263.528259 611.658875,266.816711 
	C611.560120,270.434631 613.636230,271.200256 616.734680,271.196381 
	C625.155579,271.185913 633.576660,271.322662 642.119873,271.704285 
	C644.583862,274.268768 646.936768,276.518646 649.263550,278.795227 
	C650.863403,280.360565 652.426941,281.963043 653.537659,283.541748 
	C641.530945,283.526184 629.992432,283.440826 618.456482,283.576813 
	C616.254883,283.602753 614.063599,284.502319 611.867554,284.998810 
M587.907776,239.542572 
	C585.904785,238.774536 583.945557,237.575775 581.885864,237.366959 
	C580.049194,237.180725 576.438599,238.206573 576.459106,238.496353 
	C576.674805,241.549515 576.579590,246.437103 578.260254,247.228317 
	C582.961182,249.441467 586.242615,252.524017 589.686951,256.249512 
	C591.426392,258.130981 596.239624,257.170563 599.663086,257.495087 
	C599.501587,255.227005 600.174438,252.314743 599.016968,250.815659 
	C595.954102,246.848709 592.098938,243.493484 587.907776,239.542572 
z"/>
<path fill="#191C27" opacity="1.000000" stroke="none" 
	d="
M175.466965,223.814682 
	C167.722748,196.811066 159.081421,170.022797 152.529953,142.732849 
	C147.653076,122.418365 144.829437,101.534302 142.282318,80.757896 
	C139.513397,58.172394 138.050232,35.423870 136.202591,12.731371 
	C135.909531,9.132246 136.589233,5.453917 136.909592,1.406103 
	C151.687561,1.000000 166.375122,1.000000 181.531342,1.468552 
	C182.625504,16.397650 182.980881,30.875904 183.927612,45.315388 
	C186.661209,87.008430 194.137955,127.890747 205.445312,168.097153 
	C208.415237,178.657562 211.151108,189.283798 213.634583,200.015198 
	C198.253540,204.174484 185.435196,211.717804 175.466965,223.814682 
z"/>
<path fill="#3B3E48" opacity="1.000000" stroke="none" 
	d="
M815.000000,143.531342 
	C787.797852,144.146759 763.293457,135.344315 740.705872,120.905800 
	C718.799316,106.902603 701.747620,88.142960 689.621765,65.165352 
	C679.209778,45.435223 673.874390,24.221174 673.000244,1.454653 
	C689.687561,1.000000 706.375122,1.000000 723.533569,1.439237 
	C725.077698,7.921206 725.816833,14.047031 727.294739,19.989128 
	C730.240356,31.832537 734.140503,43.270164 742.121887,52.946594 
	C753.231873,66.416100 764.808899,79.368164 782.036377,84.971062 
	C792.858337,88.490715 804.001160,91.024124 815.000000,94.000000 
	C815.000000,110.354225 815.000000,126.708458 815.000000,143.531342 
z"/>
<path fill="#2E323C" opacity="1.000000" stroke="none" 
	d="
M654.006714,283.548920 
	C652.426941,281.963043 650.863403,280.360565 649.263550,278.795227 
	C646.936768,276.518646 644.583862,274.268768 642.563599,271.635620 
	C643.878906,271.235504 644.881470,271.108154 645.864868,271.196228 
	C650.172668,271.582001 652.754150,270.516876 652.661560,265.331604 
	C652.570374,260.216156 649.717957,259.916931 645.827515,259.948120 
	C636.218811,260.025208 626.608276,259.882660 616.998474,259.828369 
	C614.357849,257.105835 611.990540,254.034607 609.033081,251.716309 
	C586.715332,234.221802 568.192810,213.196899 551.548523,190.405899 
	C529.636719,160.402039 513.674805,127.385246 502.997040,91.909920 
	C494.183136,62.626987 489.290405,32.605618 489.000000,1.466416 
	C494.688049,1.000000 500.376068,1.000000 506.532043,1.000000 
	C508.533875,16.560940 509.424316,32.217941 511.730255,47.663612 
	C517.197693,84.285652 530.224731,118.278786 548.127197,150.654800 
	C564.265869,179.841156 585.228516,204.972153 609.221375,227.843430 
	C611.535950,230.049774 613.019653,233.127762 614.566528,236.234100 
	C610.026245,238.632187 611.429382,242.424377 612.183777,245.265564 
	C612.518433,246.525803 615.765320,247.654129 617.732666,247.728943 
	C626.479675,248.061539 635.242126,247.991058 643.998962,248.066315 
	C645.214600,249.609177 646.136597,251.607925 647.698059,252.613998 
	C653.635193,256.439270 659.624207,260.239929 665.876953,263.508057 
	C679.955566,270.866425 694.075806,278.172363 708.447144,284.929535 
	C713.878906,287.483429 720.061340,288.426514 725.880371,290.174469 
	C733.383240,292.428253 740.782227,295.088806 748.377808,296.956757 
	C756.699219,299.003265 765.158875,300.559631 773.622253,301.936493 
	C782.255676,303.341034 790.951599,304.410126 799.650146,305.347412 
	C804.423523,305.861786 809.258972,305.801300 814.533203,306.000000 
	C815.000000,312.687653 815.000000,319.375275 814.532349,326.531464 
	C804.313110,326.157471 794.554749,325.385651 784.812378,324.447388 
	C778.358337,323.825806 771.806213,323.507019 765.510925,322.100220 
	C752.093140,319.101715 738.706665,315.851257 725.511230,312.004730 
	C714.546814,308.808533 703.679749,305.082764 693.126465,300.726898 
	C682.535339,296.355408 672.425415,290.828186 662.004517,286.024445 
	C660.225342,285.204285 657.943970,285.473450 655.629883,285.062897 
	C654.912415,284.440613 654.459534,283.994751 654.006714,283.548920 
z"/>
<path fill="#1C1F2A" opacity="1.000000" stroke="none" 
	d="
M213.994476,199.879807 
	C211.151108,189.283798 208.415237,178.657562 205.445312,168.097153 
	C194.137955,127.890747 186.661209,87.008430 183.927612,45.315388 
	C182.980881,30.875904 182.625504,16.397650 182.000000,1.468552 
	C193.687561,1.000000 205.375122,1.000000 217.531342,1.000000 
	C218.468597,13.969587 218.310577,26.999506 219.552109,39.894676 
	C221.431259,59.412262 223.915070,78.892021 226.851181,98.280449 
	C228.887314,111.725876 231.477783,125.160088 234.962830,138.296265 
	C240.150452,157.849899 246.371689,177.128586 252.075577,196.547043 
	C252.666870,198.560074 252.733521,200.727219 252.592453,203.058167 
	C239.761703,198.400848 226.980270,197.998459 213.994476,199.879807 
z"/>
<path fill="#3F424B" opacity="1.000000" stroke="none" 
	d="
M815.000000,93.531342 
	C804.001160,91.024124 792.858337,88.490715 782.036377,84.971062 
	C764.808899,79.368164 753.231873,66.416100 742.121887,52.946594 
	C734.140503,43.270164 730.240356,31.832537 727.294739,19.989128 
	C725.816833,14.047031 725.077698,7.921206 724.002197,1.439237 
	C754.261047,1.000000 784.522095,1.000000 815.000000,1.000000 
	C815.000000,31.687220 815.000000,62.374950 815.000000,93.531342 
z"/>
<path fill="#070B17" opacity="1.000000" stroke="none" 
	d="
M0.999998,401.468658 
	C2.257076,402.016083 3.992543,402.777008 4.692767,404.090057 
	C8.901061,411.981445 12.758939,420.059448 16.954872,427.957703 
	C20.842794,435.276245 24.956038,442.477051 29.062963,449.676727 
	C33.813061,458.003967 38.514957,466.364838 43.512726,474.543060 
	C48.939960,483.424042 54.589996,492.173248 60.313408,500.867676 
	C67.041458,511.088196 73.952896,521.187988 80.892403,531.670044 
	C54.388733,532.000000 27.777464,532.000000 1.000000,532.000000 
	C1.000000,488.645905 1.000000,445.291626 0.999998,401.468658 
z"/>
<path fill="#2D313B" opacity="1.000000" stroke="none" 
	d="
M655.894592,285.239349 
	C657.943970,285.473450 660.225342,285.204285 662.004517,286.024445 
	C672.425415,290.828186 682.535339,296.355408 693.126465,300.726898 
	C703.679749,305.082764 714.546814,308.808533 725.511230,312.004730 
	C738.706665,315.851257 752.093140,319.101715 765.510925,322.100220 
	C771.806213,323.507019 778.358337,323.825806 784.812378,324.447388 
	C794.554749,325.385651 804.313110,326.157471 814.532349,327.000000 
	C815.000000,335.354218 815.000000,343.708466 815.000000,352.531342 
	C814.500549,353.000244 813.999695,352.975159 813.501953,353.004456 
	C802.676514,353.641052 792.136902,351.272827 781.470764,350.269012 
	C765.929138,348.806335 750.689880,345.881989 735.444153,343.039032 
	C725.248657,341.137848 715.371521,337.472168 705.410950,334.404358 
	C702.586243,333.534363 699.956909,332.016876 697.258667,330.752014 
	C681.292847,323.267700 665.331116,315.774628 649.372864,308.274231 
	C645.470459,306.440063 641.383362,304.889648 637.758484,302.609100 
	C634.930786,300.830078 632.687866,298.121490 630.555664,295.443390 
	C637.524780,295.039398 644.124084,294.949371 650.721497,295.023438 
	C654.451355,295.065277 656.291382,293.524292 656.012390,289.690094 
	C655.904846,288.211487 655.929932,286.723206 655.894592,285.239349 
z"/>
<path fill="#01969C" opacity="1.000000" stroke="none" 
	d="
M473.179749,270.708008 
	C465.385681,276.802155 456.463226,276.000549 447.687683,276.031006 
	C445.544006,276.038452 442.628235,275.209381 443.119598,279.582031 
	C443.112396,283.493988 442.987244,286.984802 443.010345,290.474609 
	C443.037384,294.560425 440.344788,294.826050 437.274292,294.858185 
	C434.140778,294.890961 431.549835,294.461548 431.568054,290.446320 
	C431.600525,283.294800 431.641327,276.142273 431.553223,268.991730 
	C431.512604,265.694733 433.173798,264.568481 436.587097,264.681702 
	C444.148407,264.675354 451.304840,264.905396 458.453186,264.753265 
	C464.337341,264.628082 467.231354,261.551758 467.197968,256.129791 
	C467.166138,250.961426 464.411896,248.159927 458.604706,247.981705 
	C451.453766,247.762222 444.291901,247.771957 437.136963,247.861420 
	C433.114136,247.911713 431.510193,246.225037 431.482605,242.174210 
	C431.455505,238.189362 432.781128,236.354111 436.957672,236.462708 
	C444.110046,236.648651 451.271332,236.460892 458.426788,236.568787 
	C466.495117,236.690430 473.178650,239.774368 476.716309,247.252502 
	C480.613647,255.490982 479.440826,263.414581 473.179749,270.708008 
z"/>
<path fill="#01969C" opacity="1.000000" stroke="none" 
	d="
M404.277008,261.741577 
	C407.125946,262.833618 409.736481,263.551025 412.029602,264.835175 
	C419.688599,269.124207 422.279755,275.874207 419.575806,283.830933 
	C417.430817,290.142792 408.396515,296.023041 401.724640,295.097687 
	C400.544495,294.934021 398.653625,293.089661 398.711853,292.118622 
	C398.867096,289.529663 399.869537,286.982697 400.645691,284.452911 
	C400.727509,284.186096 401.542084,284.140564 402.018646,283.998840 
	C405.184174,283.057373 409.578247,282.453094 408.611298,278.205872 
	C408.101288,275.965759 404.530396,273.779205 401.885712,272.801544 
	C396.291168,270.733398 390.255890,269.858368 384.659210,267.794769 
	C376.116119,264.644775 372.342194,258.953339 373.155151,251.744553 
	C374.010376,244.160370 379.882599,238.166367 387.995331,237.171814 
	C389.681915,236.965027 392.851715,238.039383 393.109009,239.076416 
	C393.803802,241.876251 395.156128,245.601410 391.246033,247.399536 
	C388.385651,248.714935 383.919128,249.470947 385.021637,253.093246 
	C385.771271,255.556168 389.852905,257.426575 392.816956,258.684113 
	C396.298523,260.161163 400.183258,260.687775 404.277008,261.741577 
z"/>
<path fill="#01969C" opacity="1.000000" stroke="none" 
	d="
M321.317322,276.453156 
	C321.340302,272.683624 321.659668,269.365570 321.534424,266.064362 
	C321.379761,261.986633 323.120850,260.418732 327.143280,260.455811 
	C337.433380,260.550751 347.725555,260.420990 358.477600,260.313171 
	C359.930725,261.930450 360.923187,263.615662 361.991699,265.651367 
	C362.253387,270.764343 359.920319,272.301727 355.284363,272.092438 
	C348.168243,271.771210 341.026978,272.007996 333.059784,272.007996 
	C333.059784,275.612854 333.059784,278.852631 333.119446,282.548126 
	C333.124969,284.825134 333.041565,286.646088 333.022156,288.467743 
	C332.959839,294.325256 331.736328,295.375031 326.001648,295.033752 
	C322.863220,294.846954 321.562744,293.374268 321.567719,290.337677 
	C321.575043,285.862610 321.472351,281.387299 321.317322,276.453156 
z"/>
<path fill="#01969C" opacity="1.000000" stroke="none" 
	d="
M355.436310,247.989151 
	C345.841431,247.987869 336.684692,247.854477 327.528137,247.866440 
	C323.500275,247.871689 320.947876,247.013916 320.873077,242.064423 
	C320.794037,236.837006 323.785370,236.483658 327.600739,236.480316 
	C333.428925,236.475220 339.257080,236.395233 345.547150,236.255432 
	C350.622955,236.280502 355.241150,236.573883 359.849457,236.461395 
	C363.995972,236.360184 365.261810,238.193604 365.235931,242.154114 
	C365.210297,246.074234 363.998199,248.141235 359.833282,247.846481 
	C358.521912,247.753662 357.194550,247.886520 355.436310,247.989151 
z"/>
<path fill="#01969C" opacity="1.000000" stroke="none" 
	d="
M385.346039,294.150757 
	C376.903961,290.976654 372.153503,285.271179 371.501648,276.087311 
	C376.708801,272.033691 381.117920,273.238495 383.907227,278.620331 
	C384.865417,280.469086 386.906097,282.080444 388.831299,283.038452 
	C393.151978,285.188538 395.048859,288.510803 393.329254,292.821625 
	C391.630707,297.079803 388.368042,294.366516 385.346039,294.150757 
z"/>
<path fill="#01969C" opacity="1.000000" stroke="none" 
	d="
M414.221924,242.822586 
	C415.854126,245.497147 417.750519,247.779388 418.426605,250.379013 
	C418.898865,252.194870 418.099335,255.981781 417.176453,256.220978 
	C414.071167,257.025879 410.511627,258.193390 407.755371,254.549240 
	C405.880890,252.070923 403.513702,249.784454 400.932098,248.064926 
	C397.232849,245.600952 398.165833,242.173370 398.977173,239.229797 
	C399.264008,238.189026 402.884766,237.068787 404.455597,237.586502 
	C407.808258,238.691437 410.815979,240.843033 414.221924,242.822586 
z"/>
<path fill="#087777" opacity="1.000000" stroke="none" 
	d="
M213.634583,200.015198 
	C226.980270,197.998459 239.761703,198.400848 252.505157,203.417633 
	C257.839325,206.455902 262.809662,209.370026 267.789246,212.767212 
	C267.674530,213.393097 267.550568,213.535919 267.426605,213.678741 
	C248.860321,200.068054 228.558640,197.221954 206.036682,204.130707 
	C176.423386,215.476318 159.884811,242.492249 162.856796,273.286346 
	C164.117554,286.349823 169.674789,297.449188 177.050339,308.027771 
	C176.704910,308.430542 176.567184,308.592041 176.429443,308.753540 
	C156.055725,283.812103 155.511017,248.600754 175.295380,224.083725 
	C185.435196,211.717804 198.253540,204.174484 213.634583,200.015198 
z"/>
<path fill="#087777" opacity="1.000000" stroke="none" 
	d="
M250.005615,327.047302 
	C254.959488,324.968719 259.913361,322.890106 264.867249,320.811493 
	C257.656097,327.313599 248.653214,329.840759 239.145187,332.116058 
	C221.090897,334.715424 204.757248,331.218811 189.893097,320.607300 
	C189.956161,320.034363 190.076797,319.897766 190.522491,319.887787 
	C192.112305,320.800659 193.345306,321.644257 194.646576,322.364563 
	C212.397171,332.190125 230.806824,334.303986 250.005615,327.047302 
z"/>
<path fill="#087777" opacity="1.000000" stroke="none" 
	d="
M189.654419,320.375732 
	C185.519791,317.088501 181.566254,313.596436 177.666718,309.633728 
	C177.886871,309.036407 178.053009,308.909790 178.488907,308.976379 
	C182.571594,312.700104 186.384506,316.230652 190.197433,319.761169 
	C190.076797,319.897766 189.956161,320.034363 189.654419,320.375732 
z"/>
<path fill="#087777" opacity="1.000000" stroke="none" 
	d="
M177.470581,309.351746 
	C177.020584,309.390900 176.836121,309.224335 176.548248,308.897125 
	C176.567184,308.592041 176.704910,308.430542 177.251617,308.150757 
	C177.911453,308.234589 178.097641,308.484833 178.219147,308.783203 
	C178.053009,308.909790 177.886871,309.036407 177.470581,309.351746 
z"/>
<path fill="#01969C" opacity="1.000000" stroke="none" 
	d="
M540.579590,292.504272 
	C538.513733,293.577332 536.441956,294.865814 534.343079,294.911530 
	C523.875549,295.139648 513.400940,295.041260 502.462952,295.114990 
	C497.231354,295.115784 492.464600,295.101166 487.700012,294.991821 
	C482.300690,294.867889 481.695709,293.928986 483.621521,288.950714 
	C484.146851,287.592712 484.653046,286.227325 485.241577,284.500305 
	C494.262299,283.872040 503.209473,283.608795 512.954102,283.357483 
	C517.083191,283.369446 520.414917,283.369446 524.610596,283.369446 
	C520.160645,272.772156 516.233948,263.420898 511.735321,252.707520 
	C508.717010,260.068268 506.287659,265.992676 503.858337,271.917114 
	C501.806702,276.111755 500.601013,280.857819 493.994141,280.157013 
	C489.803131,279.712463 488.531921,278.304352 490.001099,274.594147 
	C493.267731,266.344391 496.690155,258.156281 500.074646,249.582748 
	C501.447235,246.584854 503.111603,244.056305 504.064240,241.283218 
	C505.375519,237.466339 507.807037,236.352264 511.626373,236.409058 
	C515.292358,236.463562 517.762756,237.169296 519.331055,241.053772 
	C526.235229,258.154449 533.455505,275.127441 540.579590,292.504272 
z"/>
<path fill="#01969C" opacity="1.000000" stroke="none" 
	d="
M553.899292,243.462708 
	C557.286804,241.514359 560.411621,239.588608 563.780273,238.300125 
	C565.972534,237.461639 569.381531,235.206299 570.514526,239.048782 
	C571.440918,242.190872 572.735413,246.393372 568.122437,248.576797 
	C560.706360,252.086990 557.306946,257.998383 557.724854,266.562927 
	C557.542847,274.582367 560.770508,280.013092 567.655029,283.346252 
	C570.744934,284.842224 572.523621,290.872803 570.433105,293.468170 
	C569.611450,294.488281 567.265137,295.092651 565.909424,294.741699 
	C555.023438,291.923553 547.077332,281.575378 546.120728,269.338715 
	C545.378174,259.840607 547.871948,251.292099 553.899292,243.462708 
z"/>
<path fill="#01969C" opacity="1.000000" stroke="none" 
	d="
M655.629883,285.062897 
	C655.929932,286.723206 655.904846,288.211487 656.012390,289.690094 
	C656.291382,293.524292 654.451355,295.065277 650.721497,295.023438 
	C644.124084,294.949371 637.524780,295.039398 630.460083,295.117615 
	C626.857361,295.120789 623.721069,295.030029 620.584473,295.020508 
	C611.491333,294.992981 611.408691,294.920105 611.832520,285.447266 
	C614.063599,284.502319 616.254883,283.602753 618.456482,283.576813 
	C629.992432,283.440826 641.530945,283.526184 653.537659,283.541748 
	C654.459534,283.994751 654.912415,284.440613 655.629883,285.062897 
z"/>
<path fill="#01969C" opacity="1.000000" stroke="none" 
	d="
M576.979370,284.735474 
	C582.322266,283.775848 586.133789,281.097504 588.647888,276.612457 
	C590.948730,272.507721 594.789734,274.117737 598.027832,274.279358 
	C598.936707,274.324677 599.728271,276.721466 600.488342,278.417786 
	C596.829712,286.893738 590.837708,292.328461 582.317017,294.721832 
	C580.504395,295.230988 577.104614,295.394562 576.700012,294.585358 
	C575.624634,292.434631 575.675598,289.672363 575.527344,287.138763 
	C575.487976,286.464996 576.345337,285.738770 576.979370,284.735474 
z"/>
<path fill="#191C27" opacity="1.000000" stroke="none" 
	d="
M178.488907,308.976379 
	C178.097641,308.484833 177.911453,308.234589 177.459290,307.909485 
	C169.674789,297.449188 164.117554,286.349823 162.856796,273.286346 
	C159.884811,242.492249 176.423386,215.476318 205.684875,204.310699 
	C207.040909,206.688217 208.062698,209.124100 208.806885,212.163422 
	C202.948151,216.103378 197.367035,219.439896 191.489746,222.925934 
	C188.990738,224.832993 186.787933,226.590515 184.585114,228.348038 
	C185.085968,228.849640 185.586807,229.351257 186.087662,229.852875 
	C188.255753,227.809341 190.423859,225.765808 192.877945,223.533371 
	C200.123840,219.700333 207.083725,216.056198 214.411835,212.361862 
	C215.519363,212.254425 216.258682,212.197189 217.069946,212.502350 
	C218.426407,217.532745 219.710907,222.200760 220.637787,227.001938 
	C217.462357,228.083923 214.635925,229.009552 211.850403,230.045197 
	C211.700104,230.101089 211.892960,231.079971 212.036758,231.999100 
	C214.119034,237.970383 216.090607,243.571747 217.850204,249.425507 
	C210.411057,254.883514 207.366913,261.910919 209.446045,270.578064 
	C211.275696,278.205261 216.466431,283.108337 224.162537,284.500458 
	C227.627411,285.127136 231.374588,284.193268 235.123047,284.295593 
	C237.907455,289.774323 240.562485,294.925018 242.928833,300.313965 
	C239.220627,301.697113 235.801147,302.841919 232.381653,303.986725 
	C238.540085,303.540009 244.779449,303.288696 249.021973,297.987823 
	C248.998596,297.996490 248.966431,298.034576 249.288605,298.108521 
	C250.090836,297.785492 250.570862,297.388489 251.029404,296.999573 
	C251.007904,297.007629 250.982437,297.045868 251.248444,297.065735 
	C251.852921,296.977875 252.191391,296.870117 252.805878,297.005066 
	C255.770294,301.303528 258.458649,305.359344 260.923981,309.654022 
	C252.380829,313.962677 244.060715,318.032440 235.739594,322.102722 
	C239.319183,321.184814 243.161194,320.199585 247.003220,319.214386 
	C247.934021,321.599243 248.864807,323.984100 249.900604,326.708130 
	C230.806824,334.303986 212.397171,332.190125 194.646576,322.364563 
	C193.345306,321.644257 192.112305,320.800659 190.522491,319.887787 
	C186.384506,316.230652 182.571594,312.700104 178.488907,308.976379 
M199.325684,291.026703 
	C199.163712,290.818604 198.981506,290.630066 198.392899,289.907166 
	C197.124832,288.093201 195.856766,286.279205 194.303802,283.788574 
	C188.449539,271.510712 188.517593,259.209167 194.472336,246.884140 
	C186.802200,255.477829 186.604355,273.251587 193.919586,285.885132 
	C195.210739,287.664825 196.501892,289.444489 198.014923,291.647797 
	C198.207962,291.912781 198.455734,292.108459 198.987762,292.660706 
	C199.182236,292.929810 199.432999,293.127502 199.976456,293.676086 
	C200.177567,293.939819 200.432251,294.132874 200.989639,294.670715 
	C201.202835,294.925720 201.467102,295.105743 202.133072,295.546844 
	C202.272720,295.156097 202.412369,294.765350 202.241119,294.034882 
	C202.015717,293.821075 201.764359,293.644104 201.212463,293.117920 
	C201.006760,292.872406 200.766190,292.667938 200.230042,292.079773 
	C200.003693,291.836304 199.777344,291.592834 199.325684,291.026703 
M186.095779,302.123108 
	C186.020004,302.454651 185.944229,302.786224 186.059677,303.567200 
	C186.242889,303.847809 186.486191,304.059296 187.064774,304.659302 
	C187.387955,304.762177 187.711121,304.865051 188.396515,305.532501 
	C190.438660,307.637115 192.480804,309.741730 194.522964,311.846313 
	C194.902222,311.398987 195.281479,310.951660 195.660751,310.504333 
	C193.093063,308.682648 190.525375,306.860962 188.067505,304.458374 
	C187.887833,304.115051 187.708145,303.771698 187.220276,303.005371 
	C186.970428,302.761780 186.720566,302.518158 186.095779,302.123108 
M182.301971,296.991089 
	C181.828522,296.493988 181.355072,295.996918 180.881622,295.499817 
	C180.695023,295.644501 180.508423,295.789154 180.321823,295.933807 
	C180.822998,296.673218 181.324158,297.412628 182.003494,298.670685 
	C182.347916,299.477997 182.692337,300.285309 183.036774,301.092621 
	C183.452652,300.706238 183.868530,300.319885 184.284409,299.933502 
	C183.719345,299.106659 183.154282,298.279816 182.301971,296.991089 
M180.575806,238.432175 
	C181.834503,236.234619 183.093216,234.037048 184.351913,231.839493 
	C184.007660,231.625168 183.663406,231.410858 183.319153,231.196533 
	C181.867432,233.435135 180.415695,235.673737 178.161697,237.931046 
	C176.388382,239.227707 173.976196,240.198639 173.085648,241.945374 
	C172.566193,242.964233 174.080994,245.833435 175.434479,246.722717 
	C176.420883,247.370834 179.689529,246.591766 180.087158,245.658859 
	C180.887634,243.780869 180.423462,241.363861 180.575806,238.432175 
M173.434509,275.568817 
	C173.269119,275.548370 173.085602,275.474396 172.943466,275.522583 
	C172.802856,275.570221 172.582092,275.776520 172.604279,275.853088 
	C174.301620,281.714172 176.019531,287.569305 177.735840,293.424866 
	C178.221252,293.265808 178.706680,293.106720 179.192093,292.947632 
	C177.379929,287.301331 175.567780,281.654999 173.434509,275.568817 
M213.942444,319.227631 
	C208.633469,317.117188 203.324478,315.006775 198.015488,312.896362 
	C200.551651,315.176361 203.437454,316.903259 206.540924,318.031189 
	C208.998795,318.924469 211.723724,319.082916 213.942444,319.227631 
M212.491730,302.333344 
	C215.509918,303.249451 218.528122,304.165527 221.546310,305.081635 
	C221.666611,304.662079 221.786911,304.242523 221.907196,303.822968 
	C218.181198,302.621857 214.455200,301.420746 209.351593,299.775543 
	C210.926117,301.203278 211.392685,301.626343 212.491730,302.333344 
M208.329666,298.758331 
	C207.240997,298.005157 206.152328,297.251953 205.063660,296.498779 
	C204.845596,296.886993 204.627533,297.275177 204.409470,297.663391 
	C205.775467,298.210510 207.141479,298.757660 208.329666,298.758331 
M195.104874,244.341858 
	C195.353607,244.525192 195.602325,244.708511 195.851059,244.891846 
	C195.682983,244.608185 195.514908,244.324539 195.104874,244.341858 
M208.475693,232.733673 
	C208.565430,232.664810 208.655151,232.595963 208.744873,232.527100 
	C208.674805,232.438492 208.612183,232.288132 208.532608,232.278534 
	C208.452240,232.268860 208.355057,232.398758 208.475693,232.733673 
M206.779556,233.554428 
	C206.779556,233.554428 206.446899,233.419891 206.446899,233.419891 
	C206.446899,233.419891 206.537460,233.763687 206.779556,233.554428 
z"/>
<path fill="#1C1F2A" opacity="1.000000" stroke="none" 
	d="
M243.217529,300.075684 
	C240.562485,294.925018 237.907455,289.774323 235.369995,284.067963 
	C246.709641,277.098511 250.240387,265.638580 244.041748,255.747452 
	C238.692261,247.211334 229.683746,244.931656 218.062195,249.173126 
	C216.090607,243.571747 214.119034,237.970383 212.337723,231.806732 
	C223.411713,226.485840 234.286072,227.270020 245.186447,231.415268 
	C237.797195,226.030594 229.333344,226.792938 220.995392,226.868759 
	C219.710907,222.200760 218.426407,217.532745 217.477417,212.370865 
	C223.869080,211.606796 229.925247,211.336609 236.298386,211.255066 
	C242.448730,213.499985 248.282074,215.556290 254.115433,217.612579 
	C255.308258,221.740173 256.086029,226.046097 257.768951,229.963120 
	C263.667358,243.691666 269.809937,257.317169 276.030304,270.903778 
	C277.183533,273.422699 279.127563,275.579559 280.918335,278.531311 
	C277.403534,286.785980 273.677032,294.412811 269.950500,302.039642 
	C269.950500,302.039642 269.992432,301.989532 269.760620,302.064026 
	C269.334381,302.440796 269.139893,302.743042 268.945435,303.045319 
	C268.945435,303.045319 268.982208,302.986877 268.722778,303.128662 
	C268.302734,303.865662 268.142181,304.460846 267.981598,305.056030 
	C267.981598,305.056030 268.010132,305.007233 267.715942,304.989655 
	C267.270508,305.331787 267.119263,305.691467 266.968048,306.051178 
	C266.968048,306.051178 267.003326,306.004089 266.717285,306.005188 
	C266.275055,306.356262 266.118866,306.706238 265.962708,307.056244 
	C265.962708,307.056244 266.004028,307.004425 265.721191,307.007568 
	C265.278992,307.360718 265.119629,307.710724 264.960297,308.060699 
	C264.960297,308.060699 265.008148,308.011993 264.685028,307.909546 
	C263.290283,308.343140 262.218658,308.879150 261.147034,309.415161 
	C258.458649,305.359344 255.770294,301.303528 252.997955,296.769073 
	C253.476013,295.707062 254.038055,295.123657 254.784470,294.391663 
	C255.208298,294.032898 255.419647,293.797516 255.778015,293.378113 
	C256.176605,292.992371 256.365082,292.739380 256.686768,292.238525 
	C256.889191,291.659546 256.923340,291.302338 257.202637,290.783386 
	C258.040649,290.154114 258.633514,289.686554 259.469788,289.033051 
	C260.219940,287.971771 260.726715,287.096436 261.479736,285.981506 
	C263.642548,281.019348 265.559082,276.296722 267.475616,271.574127 
	C267.034271,271.406677 266.592957,271.239227 266.151611,271.071777 
	C264.226685,275.863983 262.301727,280.656219 260.187866,285.679565 
	C259.456238,286.755859 258.913513,287.600952 258.198395,288.680359 
	C257.699066,289.617249 257.372101,290.319794 256.790222,291.057922 
	C256.298370,291.333282 256.061401,291.573029 255.610474,291.927063 
	C255.129196,292.240051 254.935013,292.494568 254.601532,292.919739 
	C254.123749,293.230927 253.924057,293.479919 253.495728,293.930969 
	C252.461746,295.068817 251.722092,296.057343 250.982437,297.045868 
	C250.982437,297.045868 251.007904,297.007629 250.706985,296.918213 
	C249.926193,297.230743 249.446320,297.632660 248.966431,298.034576 
	C248.966431,298.034576 248.998596,297.996490 248.670593,297.993378 
	C246.634232,298.685394 244.925873,299.380524 243.217529,300.075684 
M260.336121,244.030243 
	C259.733765,243.351120 259.131409,242.671997 258.529053,241.992874 
	C258.323578,242.213501 258.118103,242.434113 257.912628,242.654739 
	C258.536469,243.500397 259.160309,244.346054 260.007416,245.871719 
	C262.056183,250.765839 264.104980,255.659943 266.153748,260.554047 
	C266.609192,260.359161 267.064606,260.164276 267.520050,259.969391 
	C265.205811,254.806427 262.891571,249.643448 260.336121,244.030243 
M247.218613,232.158936 
	C247.293686,232.439499 247.368774,232.720047 247.443848,233.000610 
	C247.496353,232.722321 247.548874,232.444031 247.218613,232.158936 
z"/>
<path fill="#01969C" opacity="1.000000" stroke="none" 
	d="
M282.506805,305.145020 
	C284.553802,308.151154 284.683533,311.151978 282.328186,314.457581 
	C279.050964,314.891449 275.927368,315.014008 272.401886,315.068298 
	C272.000000,315.000000 271.999817,314.999878 271.999817,314.999878 
	C271.600647,311.381409 269.836182,307.554443 273.798645,304.286133 
	C276.100830,303.939972 278.196869,303.878235 280.803406,304.075073 
	C281.711548,304.604095 282.109161,304.874542 282.506805,305.145020 
z"/>
<path fill="#087777" opacity="1.000000" stroke="none" 
	d="
M282.682556,304.818054 
	C282.109161,304.874542 281.711548,304.604095 281.147156,304.158447 
	C296.313416,281.127625 297.341980,257.508240 284.777344,232.679260 
	C284.792694,232.196304 285.151031,231.855011 285.151031,231.855011 
	C292.635834,243.387207 295.632904,256.048584 294.668518,269.704681 
	C294.517120,271.848114 294.344177,273.990021 294.209137,276.569550 
	C290.444183,286.168030 286.651245,295.329559 282.682556,304.818054 
z"/>
<path fill="#087777" opacity="1.000000" stroke="none" 
	d="
M270.289307,302.102722 
	C273.677032,294.412811 277.403534,286.785980 281.167786,278.797180 
	C281.741852,276.473419 282.278168,274.511658 282.814514,272.549896 
	C283.058411,282.971008 278.702942,291.731384 273.045227,300.359192 
	C272.147430,301.158997 271.387726,301.662384 270.289307,302.102722 
z"/>
<path fill="#087777" opacity="1.000000" stroke="none" 
	d="
M274.793396,236.591827 
	C275.159576,236.316544 275.804016,236.144928 275.907776,236.311035 
	C280.001221,242.865097 282.701202,249.896973 283.333862,257.585419 
	C280.495728,250.674622 277.657623,243.763809 274.793396,236.591827 
z"/>
<path fill="#087777" opacity="1.000000" stroke="none" 
	d="
M191.785919,222.776413 
	C197.367035,219.439896 202.948151,216.103378 208.837769,212.615723 
	C210.558365,212.066772 211.970474,211.668961 213.752747,211.555984 
	C214.096481,212.031250 214.070053,212.221664 214.043625,212.412064 
	C207.083725,216.056198 200.123840,219.700333 192.676651,223.296722 
	C192.054886,223.091461 191.920395,222.933929 191.785919,222.776413 
z"/>
<path fill="#087777" opacity="1.000000" stroke="none" 
	d="
M254.379120,217.615967 
	C248.282074,215.556290 242.448730,213.499985 236.278610,211.028046 
	C235.941849,210.612411 235.923248,210.157028 235.923248,210.157028 
	C242.322723,212.300903 248.722733,214.443207 255.116653,216.603516 
	C255.213623,216.636276 255.327454,216.961945 255.275131,217.030975 
	C255.103821,217.257004 254.859222,217.427490 254.379120,217.615967 
z"/>
<path fill="#01969C" opacity="1.000000" stroke="none" 
	d="
M235.524063,210.089478 
	C235.923248,210.157028 235.941849,210.612411 235.961624,210.839417 
	C229.925247,211.336609 223.869080,211.606796 217.405457,212.008469 
	C216.258682,212.197189 215.519363,212.254425 214.411835,212.361862 
	C214.070053,212.221664 214.096481,212.031250 214.119247,211.552460 
	C221.118683,210.850037 228.121780,210.435989 235.524063,210.089478 
z"/>
<path fill="#087777" opacity="1.000000" stroke="none" 
	d="
M281.145844,225.857468 
	C282.429810,227.638062 283.713745,229.418655 285.074371,231.527130 
	C285.151031,231.855011 284.792694,232.196304 284.612305,232.366486 
	C283.200165,230.734329 281.968475,228.931992 280.750244,226.672516 
	C280.891083,226.096069 281.018463,225.976776 281.145844,225.857468 
z"/>
<path fill="#087777" opacity="1.000000" stroke="none" 
	d="
M271.211945,229.771378 
	C272.016815,230.782227 272.821716,231.793060 273.626587,232.803909 
	C273.311035,233.140335 272.995483,233.476761 272.679962,233.813187 
	C271.988678,232.904404 271.297394,231.995621 270.677490,230.628830 
	C270.903229,230.037674 271.057587,229.904526 271.211945,229.771378 
z"/>
<path fill="#087777" opacity="1.000000" stroke="none" 
	d="
M260.563538,221.093643 
	C261.091675,220.995407 261.651764,221.093735 262.173370,221.292801 
	C262.253296,221.323288 262.155762,221.818649 262.140320,222.098999 
	C261.621185,221.840378 261.102020,221.581757 260.563538,221.093643 
z"/>
<path fill="#087777" opacity="1.000000" stroke="none" 
	d="
M278.632507,222.279358 
	C279.410645,223.269180 280.188812,224.258987 281.056396,225.553131 
	C281.018463,225.976776 280.891083,226.096069 280.571533,226.393829 
	C279.599945,225.638153 278.820587,224.704041 278.113464,223.265030 
	C278.334625,222.599869 278.483551,222.439621 278.632507,222.279358 
z"/>
<path fill="#087777" opacity="1.000000" stroke="none" 
	d="
M267.985229,213.036713 
	C268.851807,213.329453 269.531616,213.835709 270.211456,214.341980 
	C270.076050,214.562073 269.940643,214.782166 269.805206,215.002274 
	C269.147614,214.685440 268.490021,214.368607 267.629517,213.865265 
	C267.550568,213.535919 267.674530,213.393097 267.985229,213.036713 
z"/>
<path fill="#087777" opacity="1.000000" stroke="none" 
	d="
M258.309814,219.276901 
	C257.870239,219.124969 257.593262,218.846527 257.316284,218.568085 
	C257.433990,218.484665 257.632935,218.310196 257.657043,218.331711 
	C257.943909,218.587708 258.204773,218.872864 258.309814,219.276901 
z"/>
<path fill="#087777" opacity="1.000000" stroke="none" 
	d="
M267.574493,227.426819 
	C267.021545,226.908264 266.468597,226.389725 265.919495,225.468536 
	C265.923340,225.065903 266.248108,224.733734 266.248108,224.733734 
	C266.834320,225.226700 267.420532,225.719666 267.967285,226.644135 
	C267.927826,227.075623 267.574493,227.426819 267.574493,227.426819 
z"/>
<path fill="#087777" opacity="1.000000" stroke="none" 
	d="
M277.190887,220.791473 
	C277.566467,221.149887 277.942017,221.508316 278.475037,222.073059 
	C278.483551,222.439621 278.334625,222.599869 277.960663,222.999008 
	C277.310425,222.830627 276.885254,222.423370 276.552216,221.595215 
	C276.826538,221.046707 277.008728,220.919083 277.190887,220.791473 
z"/>
<path fill="#087777" opacity="1.000000" stroke="none" 
	d="
M270.515686,230.368637 
	C270.045654,230.369507 269.824280,230.156464 269.707336,229.538605 
	C269.949249,229.011169 270.102264,228.872421 270.255280,228.733658 
	C270.542908,228.885803 270.784698,229.091766 271.096313,229.561462 
	C271.057587,229.904526 270.903229,230.037674 270.515686,230.368637 
z"/>
<path fill="#087777" opacity="1.000000" stroke="none" 
	d="
M276.369263,221.363068 
	C275.846588,221.349869 275.606537,221.139313 275.512634,220.537018 
	C275.838837,220.024414 276.026520,219.894928 276.214172,219.765442 
	C276.515442,219.900803 276.765656,220.100220 277.077850,220.577576 
	C277.008728,220.919083 276.826538,221.046707 276.369263,221.363068 
z"/>
<path fill="#087777" opacity="1.000000" stroke="none" 
	d="
M264.503723,224.544907 
	C264.627350,224.206100 264.750977,223.867294 264.858948,223.855759 
	C264.843353,224.183044 264.503723,224.544907 264.503723,224.544907 
z"/>
<path fill="#087777" opacity="1.000000" stroke="none" 
	d="
M273.191010,216.783096 
	C273.504425,216.904602 273.765442,217.097137 273.904999,217.837646 
	C273.707397,218.492737 273.578796,218.670868 273.450195,218.848999 
	C273.126984,218.542603 272.803741,218.236191 272.557983,217.511444 
	C272.820618,216.989761 273.005798,216.886429 273.191010,216.783096 
z"/>
<path fill="#087777" opacity="1.000000" stroke="none" 
	d="
M275.210693,218.769577 
	C275.512390,218.899567 275.765381,219.093201 276.091919,219.557953 
	C276.026520,219.894928 275.838837,220.024414 275.367035,220.345825 
	C274.851532,220.337479 274.629303,220.127533 274.547302,219.531677 
	C274.855804,219.026825 275.033234,218.898209 275.210693,218.769577 
z"/>
<path fill="#087777" opacity="1.000000" stroke="none" 
	d="
M274.410889,219.346588 
	C273.964661,219.410843 273.801941,219.265900 273.552734,218.975952 
	C273.578796,218.670868 273.707397,218.492737 274.030518,218.048630 
	C274.524963,217.908447 274.774597,218.099808 275.092316,218.563171 
	C275.033234,218.898209 274.855804,219.026825 274.410889,219.346588 
z"/>
<path fill="#087777" opacity="1.000000" stroke="none" 
	d="
M269.565247,229.356308 
	C269.071198,229.372131 268.830872,229.156281 268.706543,228.517151 
	C268.959473,227.980972 269.119080,227.842850 269.278687,227.704712 
	C269.581024,227.839615 269.831268,228.039688 270.142334,228.519302 
	C270.102264,228.872421 269.949249,229.011169 269.565247,229.356308 
z"/>
<path fill="#087777" opacity="1.000000" stroke="none" 
	d="
M272.356018,217.245117 
	C272.333679,217.069794 272.590790,216.742432 273.019470,216.599091 
	C273.005798,216.886429 272.820618,216.989761 272.356018,217.245117 
z"/>
<path fill="#087777" opacity="1.000000" stroke="none" 
	d="
M268.104553,226.900101 
	C268.583832,226.846878 268.835724,227.036469 269.157837,227.499023 
	C269.119080,227.842850 268.959473,227.980972 268.557587,228.324890 
	C268.091370,228.329422 267.906769,228.096939 267.667999,227.630005 
	C267.574493,227.426819 267.927826,227.075623 268.104553,226.900101 
z"/>
<path fill="#087777" opacity="1.000000" stroke="none" 
	d="
M265.760925,225.231934 
	C265.310303,225.271332 265.050018,225.101822 264.660675,224.717178 
	C264.503723,224.544907 264.843353,224.183044 265.014282,224.003143 
	C265.502502,223.913620 265.769836,224.082901 266.117676,224.532410 
	C266.248108,224.733734 265.923340,225.065903 265.760925,225.231934 
z"/>
<path fill="#01969C" opacity="1.000000" stroke="none" 
	d="
M644.448242,247.998260 
	C635.242126,247.991058 626.479675,248.061539 617.732666,247.728943 
	C615.765320,247.654129 612.518433,246.525803 612.183777,245.265564 
	C611.429382,242.424377 610.026245,238.632187 614.618286,236.567474 
	C626.425903,236.482483 637.859924,236.567932 649.292542,236.474564 
	C653.472717,236.440445 656.249573,237.038956 656.132935,242.381866 
	C656.021423,247.489258 653.269226,248.038895 649.369019,247.859085 
	C647.882812,247.790573 646.388245,247.901230 644.448242,247.998260 
z"/>
<path fill="#2D313B" opacity="1.000000" stroke="none" 
	d="
M504.126709,272.130615 
	C506.287659,265.992676 508.717010,260.068268 511.735321,252.707520 
	C516.233948,263.420898 520.160645,272.772156 524.610596,283.369446 
	C520.414917,283.369446 517.083191,283.369446 513.368774,283.272125 
	C510.122345,279.564575 507.258728,275.954315 504.126709,272.130615 
z"/>
<path fill="#087777" opacity="1.000000" stroke="none" 
	d="
M260.923981,309.654022 
	C262.218658,308.879150 263.290283,308.343140 264.713623,307.890930 
	C259.252808,311.596069 253.440323,315.217468 247.315521,319.026611 
	C243.161194,320.199585 239.319183,321.184814 235.739594,322.102722 
	C244.060715,318.032440 252.380829,313.962677 260.923981,309.654022 
z"/>
<path fill="#1E212C" opacity="1.000000" stroke="none" 
	d="
M270.970673,316.555481 
	C270.730377,316.670135 270.490051,316.784790 270.249756,316.899475 
	C270.320404,316.666779 270.391052,316.434113 270.676270,316.230225 
	C270.890839,316.259003 270.970673,316.555450 270.970673,316.555481 
z"/>
<path fill="#087777" opacity="1.000000" stroke="none" 
	d="
M268.286072,304.908020 
	C268.142181,304.460846 268.302734,303.865662 268.746887,303.104004 
	C268.883820,303.545013 268.737183,304.152496 268.286072,304.908020 
z"/>
<path fill="#087777" opacity="1.000000" stroke="none" 
	d="
M267.241455,305.982605 
	C267.119263,305.691467 267.270508,305.331787 267.736572,304.970337 
	C267.872589,305.283722 267.693726,305.598877 267.241455,305.982605 
z"/>
<path fill="#087777" opacity="1.000000" stroke="none" 
	d="
M266.230316,306.977051 
	C266.118866,306.706238 266.275055,306.356262 266.740662,305.987366 
	C266.866058,306.278259 266.681976,306.588043 266.230316,306.977051 
z"/>
<path fill="#087777" opacity="1.000000" stroke="none" 
	d="
M265.218933,307.965607 
	C265.119629,307.710724 265.278992,307.360718 265.747314,306.987183 
	C265.863373,307.265930 265.670471,307.568207 265.218933,307.965607 
z"/>
<path fill="#01969C" opacity="1.000000" stroke="none" 
	d="
M270.775818,316.157349 
	C270.916504,315.757416 271.172241,315.459137 271.713898,315.080383 
	C271.999817,314.999878 272.000000,315.000000 272.000610,315.000671 
	C271.843628,315.396088 271.686005,315.790863 271.249542,316.370544 
	C270.970673,316.555450 270.890839,316.259003 270.775818,316.157349 
z"/>
<path fill="#087777" opacity="1.000000" stroke="none" 
	d="
M269.259827,303.038757 
	C269.139893,302.743042 269.334381,302.440796 269.786865,302.044525 
	C269.887970,302.311096 269.731110,302.671631 269.259827,303.038757 
z"/>
<path fill="#01969C" opacity="1.000000" stroke="none" 
	d="
M616.612183,259.886078 
	C626.608276,259.882660 636.218811,260.025208 645.827515,259.948120 
	C649.717957,259.916931 652.570374,260.216156 652.661560,265.331604 
	C652.754150,270.516876 650.172668,271.582001 645.864868,271.196228 
	C644.881470,271.108154 643.878906,271.235504 642.441406,271.332397 
	C633.576660,271.322662 625.155579,271.185913 616.734680,271.196381 
	C613.636230,271.200256 611.560120,270.434631 611.658875,266.816711 
	C611.748657,263.528259 610.998596,259.778900 616.612183,259.886078 
z"/>
<path fill="#01969C" opacity="1.000000" stroke="none" 
	d="
M588.233459,239.718689 
	C592.098938,243.493484 595.954102,246.848709 599.016968,250.815659 
	C600.174438,252.314743 599.501587,255.227005 599.663086,257.495087 
	C596.239624,257.170563 591.426392,258.130981 589.686951,256.249512 
	C586.242615,252.524017 582.961182,249.441467 578.260254,247.228317 
	C576.579590,246.437103 576.674805,241.549515 576.459106,238.496353 
	C576.438599,238.206573 580.049194,237.180725 581.885864,237.366959 
	C583.945557,237.575775 585.904785,238.774536 588.233459,239.718689 
z"/>
<path fill="#01969C" opacity="1.000000" stroke="none" 
	d="
M217.850204,249.425507 
	C229.683746,244.931656 238.692261,247.211334 244.041748,255.747452 
	C250.240387,265.638580 246.709641,277.098511 235.240601,283.739868 
	C231.374588,284.193268 227.627411,285.127136 224.162537,284.500458 
	C216.466431,283.108337 211.275696,278.205261 209.446045,270.578064 
	C207.366913,261.910919 210.411057,254.883514 217.850204,249.425507 
z"/>
<path fill="#087777" opacity="1.000000" stroke="none" 
	d="
M193.729446,285.242889 
	C186.604355,273.251587 186.802200,255.477829 194.472336,246.884140 
	C188.517593,259.209167 188.449539,271.510712 194.231094,284.321167 
	C194.015396,284.983490 193.872421,285.113190 193.729446,285.242889 
z"/>
<path fill="#01969C" opacity="1.000000" stroke="none" 
	d="
M180.481064,239.169235 
	C180.423462,241.363861 180.887634,243.780869 180.087158,245.658859 
	C179.689529,246.591766 176.420883,247.370834 175.434479,246.722717 
	C174.080994,245.833435 172.566193,242.964233 173.085648,241.945374 
	C173.976196,240.198639 176.388382,239.227707 178.730286,238.105362 
	C179.692932,238.576202 180.086990,238.872711 180.481064,239.169235 
z"/>
<path fill="#087777" opacity="1.000000" stroke="none" 
	d="
M220.637787,227.001938 
	C229.333344,226.792938 237.797195,226.030594 245.186447,231.415268 
	C234.286072,227.270020 223.411713,226.485840 212.227036,231.436829 
	C211.892960,231.079971 211.700104,230.101089 211.850403,230.045197 
	C214.635925,229.009552 217.462357,228.083923 220.637787,227.001938 
z"/>
<path fill="#087777" opacity="1.000000" stroke="none" 
	d="
M173.595062,275.788757 
	C175.567780,281.654999 177.379929,287.301331 179.192093,292.947632 
	C178.706680,293.106720 178.221252,293.265808 177.735840,293.424866 
	C176.019531,287.569305 174.301620,281.714172 172.604279,275.853088 
	C172.582092,275.776520 172.802856,275.570221 172.943466,275.522583 
	C173.085602,275.474396 173.269119,275.548370 173.595062,275.788757 
z"/>
<path fill="#087777" opacity="1.000000" stroke="none" 
	d="
M214.136261,319.397644 
	C211.723724,319.082916 208.998795,318.924469 206.540924,318.031189 
	C203.437454,316.903259 200.551651,315.176361 198.015488,312.896362 
	C203.324478,315.006775 208.633469,317.117188 214.136261,319.397644 
z"/>
<path fill="#087777" opacity="1.000000" stroke="none" 
	d="
M242.928818,300.313965 
	C244.925873,299.380524 246.634232,298.685394 248.693970,297.984711 
	C244.779449,303.288696 238.540085,303.540009 232.381653,303.986725 
	C235.801147,302.841919 239.220627,301.697113 242.928818,300.313965 
z"/>
<path fill="#087777" opacity="1.000000" stroke="none" 
	d="
M212.175491,302.191376 
	C211.392685,301.626343 210.926117,301.203278 209.351593,299.775543 
	C214.455200,301.420746 218.181198,302.621857 221.907196,303.822968 
	C221.786911,304.242523 221.666611,304.662079 221.546310,305.081635 
	C218.528122,304.165527 215.509918,303.249451 212.175491,302.191376 
z"/>
<path fill="#087777" opacity="1.000000" stroke="none" 
	d="
M187.957687,305.039276 
	C190.525375,306.860962 193.093063,308.682648 195.660751,310.504333 
	C195.281479,310.951660 194.902222,311.398987 194.522964,311.846313 
	C192.480804,309.741730 190.438660,307.637115 188.196320,305.268127 
	C187.996140,305.003754 187.957687,305.039276 187.957687,305.039276 
z"/>
<path fill="#087777" opacity="1.000000" stroke="none" 
	d="
M180.528442,238.800705 
	C180.086990,238.872711 179.692932,238.576202 179.131409,238.096008 
	C180.415695,235.673737 181.867432,233.435135 183.319153,231.196533 
	C183.663406,231.410858 184.007660,231.625168 184.351913,231.839493 
	C183.093216,234.037048 181.834503,236.234619 180.528442,238.800705 
z"/>
<path fill="#087777" opacity="1.000000" stroke="none" 
	d="
M192.390656,223.485626 
	C190.423859,225.765808 188.255753,227.809341 186.087662,229.852875 
	C185.586807,229.351257 185.085968,228.849640 184.585114,228.348038 
	C186.787933,226.590515 188.990738,224.832993 191.489746,222.925934 
	C191.920395,222.933929 192.054886,223.091461 192.390656,223.485626 
z"/>
<path fill="#087777" opacity="1.000000" stroke="none" 
	d="
M197.793045,291.224182 
	C196.501892,289.444489 195.210739,287.664825 193.824524,285.564026 
	C193.872421,285.113190 194.015396,284.983490 194.373535,284.659485 
	C195.856766,286.279205 197.124832,288.093201 198.338715,290.373932 
	C198.120697,290.968536 197.956879,291.096344 197.793045,291.224182 
z"/>
<path fill="#087777" opacity="1.000000" stroke="none" 
	d="
M208.418579,299.031555 
	C207.141479,298.757660 205.775467,298.210510 204.409470,297.663391 
	C204.627533,297.275177 204.845596,296.886993 205.063660,296.498779 
	C206.152328,297.251953 207.240997,298.005157 208.418579,299.031555 
z"/>
<path fill="#087777" opacity="1.000000" stroke="none" 
	d="
M254.600098,294.540283 
	C254.038055,295.123657 253.476013,295.707062 252.721924,296.526428 
	C252.191391,296.870117 251.852921,296.977875 251.248444,297.065735 
	C251.722092,296.057343 252.461746,295.068817 253.697693,294.121216 
	C254.329346,294.288208 254.464722,294.414246 254.600098,294.540283 
z"/>
<path fill="#087777" opacity="1.000000" stroke="none" 
	d="
M182.589203,297.453003 
	C183.154282,298.279816 183.719345,299.106659 184.284409,299.933502 
	C183.868530,300.319885 183.452652,300.706238 183.036774,301.092621 
	C182.692337,300.285309 182.347916,299.477997 182.105499,298.236755 
	C182.334747,297.686188 182.461975,297.569611 182.589203,297.453003 
z"/>
<path fill="#087777" opacity="1.000000" stroke="none" 
	d="
M182.016418,297.977417 
	C181.324158,297.412628 180.822998,296.673218 180.321823,295.933807 
	C180.508423,295.789154 180.695023,295.644501 180.881622,295.499817 
	C181.355072,295.996918 181.828522,296.493988 182.445587,297.222046 
	C182.461975,297.569611 182.334747,297.686188 182.016418,297.977417 
z"/>
<path fill="#087777" opacity="1.000000" stroke="none" 
	d="
M195.225845,244.191376 
	C195.514908,244.324539 195.682983,244.608185 195.851059,244.891846 
	C195.602325,244.708511 195.353607,244.525192 195.225845,244.191376 
z"/>
<path fill="#087777" opacity="1.000000" stroke="none" 
	d="
M249.288605,298.108521 
	C249.446320,297.632660 249.926193,297.230743 250.728485,296.910156 
	C250.570862,297.388489 250.090836,297.785492 249.288605,298.108521 
z"/>
<path fill="#087777" opacity="1.000000" stroke="none" 
	d="
M208.370453,232.600586 
	C208.355057,232.398758 208.452240,232.268860 208.532608,232.278534 
	C208.612183,232.288132 208.674805,232.438492 208.744873,232.527100 
	C208.655151,232.595963 208.565430,232.664810 208.370453,232.600586 
z"/>
<path fill="#087777" opacity="1.000000" stroke="none" 
	d="
M206.658508,233.659058 
	C206.537460,233.763687 206.446899,233.419891 206.446899,233.419891 
	C206.446899,233.419891 206.779556,233.554428 206.658508,233.659058 
z"/>
<path fill="#087777" opacity="1.000000" stroke="none" 
	d="
M188.015228,304.985840 
	C187.711121,304.865051 187.387955,304.762177 187.112427,304.237671 
	C187.282867,303.686829 187.405655,303.557617 187.528458,303.428375 
	C187.708145,303.771698 187.887833,304.115051 188.012604,304.748840 
	C187.957687,305.039276 187.996140,305.003754 188.015228,304.985840 
z"/>
<path fill="#087777" opacity="1.000000" stroke="none" 
	d="
M186.470703,302.274567 
	C186.720566,302.518158 186.970428,302.761780 187.374359,303.216858 
	C187.405655,303.557617 187.282867,303.686829 186.974838,304.008881 
	C186.486191,304.059296 186.242889,303.847809 186.115814,303.132507 
	C186.271530,302.556763 186.371109,302.415649 186.470703,302.274567 
z"/>
<path fill="#087777" opacity="1.000000" stroke="none" 
	d="
M186.020203,302.907806 
	C185.944229,302.786224 186.020004,302.454651 186.283234,302.198853 
	C186.371109,302.415649 186.271530,302.556763 186.020203,302.907806 
z"/>
<path fill="#087777" opacity="1.000000" stroke="none" 
	d="
M202.552017,294.374603 
	C202.412369,294.765350 202.272720,295.156097 202.150940,295.170471 
	C202.296539,294.654266 202.424286,294.514435 202.552017,294.374603 
z"/>
<path fill="#087777" opacity="1.000000" stroke="none" 
	d="
M201.487045,293.503937 
	C201.764359,293.644104 202.015717,293.821075 202.396576,294.204742 
	C202.424286,294.514435 202.296539,294.654266 201.975616,295.002441 
	C201.467102,295.105743 201.202835,294.925720 201.052094,294.275513 
	C201.238708,293.754883 201.362869,293.629425 201.487045,293.503937 
z"/>
<path fill="#087777" opacity="1.000000" stroke="none" 
	d="
M200.490753,292.504486 
	C200.766190,292.667938 201.006760,292.872406 201.349762,293.310913 
	C201.362869,293.629425 201.238708,293.754883 200.927521,294.067780 
	C200.432251,294.132874 200.177567,293.939819 200.046249,293.277924 
	C200.240936,292.754700 200.365845,292.629608 200.490753,292.504486 
z"/>
<path fill="#087777" opacity="1.000000" stroke="none" 
	d="
M199.928040,293.066772 
	C199.432999,293.127502 199.182236,292.929810 199.071655,292.226807 
	C199.287354,291.645050 199.419159,291.497223 199.550980,291.349365 
	C199.777344,291.592834 200.003693,291.836304 200.360397,292.292114 
	C200.365845,292.629608 200.240936,292.754700 199.928040,293.066772 
z"/>
<path fill="#087777" opacity="1.000000" stroke="none" 
	d="
M198.531784,290.650879 
	C198.981506,290.630066 199.163712,290.818604 199.438324,291.188049 
	C199.419159,291.497223 199.287354,291.645050 198.956894,292.013855 
	C198.455734,292.108459 198.207962,291.912781 197.903992,291.435974 
	C197.956879,291.096344 198.120697,290.968536 198.531784,290.650879 
z"/>
<path fill="#087777" opacity="1.000000" stroke="none" 
	d="
M260.577332,244.480469 
	C262.891571,249.643448 265.205811,254.806427 267.520050,259.969391 
	C267.064606,260.164276 266.609192,260.359161 266.153748,260.554047 
	C264.104980,255.659943 262.056183,250.765839 260.094147,245.354004 
	C260.313019,244.717667 260.445160,244.599075 260.577332,244.480469 
z"/>
<path fill="#087777" opacity="1.000000" stroke="none" 
	d="
M260.376801,285.448425 
	C262.301727,280.656219 264.226685,275.863983 266.151611,271.071777 
	C266.592957,271.239227 267.034271,271.406677 267.475616,271.574127 
	C265.559082,276.296722 263.642548,281.019348 261.266296,285.787537 
	C260.663330,285.704895 260.520081,285.576660 260.376801,285.448425 
z"/>
<path fill="#087777" opacity="1.000000" stroke="none" 
	d="
M259.982513,245.013992 
	C259.160309,244.346054 258.536469,243.500397 257.912628,242.654739 
	C258.118103,242.434113 258.323578,242.213501 258.529053,241.992874 
	C259.131409,242.671997 259.733765,243.351120 260.456726,244.255356 
	C260.445160,244.599075 260.313019,244.717667 259.982513,245.013992 
z"/>
<path fill="#087777" opacity="1.000000" stroke="none" 
	d="
M261.020020,286.027100 
	C260.726715,287.096436 260.219940,287.971771 259.256348,288.839264 
	C258.656647,288.702972 258.513702,288.574493 258.370789,288.446045 
	C258.913513,287.600952 259.456238,286.755859 260.187866,285.679565 
	C260.520081,285.576660 260.663330,285.704895 261.020020,286.027100 
z"/>
<path fill="#087777" opacity="1.000000" stroke="none" 
	d="
M259.012970,289.025208 
	C258.633514,289.686554 258.040649,290.154114 257.224304,290.803162 
	C257.000824,290.984680 257.045135,291.022339 257.045135,291.022339 
	C257.372101,290.319794 257.699066,289.617249 258.198395,288.680359 
	C258.513702,288.574493 258.656647,288.702972 259.012970,289.025208 
z"/>
<path fill="#087777" opacity="1.000000" stroke="none" 
	d="
M247.410004,232.162338 
	C247.548874,232.444031 247.496353,232.722321 247.443848,233.000610 
	C247.368774,232.720047 247.293686,232.439499 247.410004,232.162338 
z"/>
<path fill="#087777" opacity="1.000000" stroke="none" 
	d="
M255.602905,293.536926 
	C255.419647,293.797516 255.208298,294.032898 254.784470,294.391663 
	C254.464722,294.414246 254.329346,294.288208 253.992004,293.971863 
	C253.924057,293.479919 254.123749,293.230927 254.798218,293.103333 
	C255.339172,293.293732 255.471039,293.415314 255.602905,293.536926 
z"/>
<path fill="#087777" opacity="1.000000" stroke="none" 
	d="
M256.518524,292.460266 
	C256.365082,292.739380 256.176605,292.992371 255.778015,293.378113 
	C255.471039,293.415314 255.339172,293.293732 255.010620,292.988525 
	C254.935013,292.494568 255.129196,292.240051 255.783463,292.089478 
	C256.170441,292.137695 256.518524,292.460266 256.518524,292.460266 
z"/>
<path fill="#087777" opacity="1.000000" stroke="none" 
	d="
M255.997437,291.975250 
	C256.061401,291.573029 256.298370,291.333282 256.790222,291.057922 
	C257.045135,291.022339 257.000824,290.984680 256.979187,290.964905 
	C256.923340,291.302338 256.889191,291.659546 256.686768,292.238525 
	C256.518524,292.460266 256.170441,292.137695 255.997437,291.975250 
z"/>
</svg>